{
.appVersion = "1286";
DisplayStrings = (
"/TifLtrYa/TifLtrYa.alt/TifLtrTuarYak/TifLtrTuarYah/_VerticalOval/TifLtrYar/TifLtrYam/_HorizontalBarMedShort1.5/TifLtrYadd/TifLtrYi/TifLtrYaghh.alt/TifLtrYan/TifLig-zzt.alt2/TifLig-zt.rtl/TifPuncTazarast",
"/TifLigTuar-bt"
);
copyright = "Copyright (c) 2010-2020, SIL International (https://scripts.sil.org), with Reserved Font Name \"Akatab\".";
customParameters = (
{
name = hheaAscender;
value = 2010;
},
{
name = hheaDescender;
value = -567;
},
{
name = hheaLineGap;
value = 0;
},
{
name = description;
value = "Copyright (c) 2010-2020, SIL International (https://scripts.sil.org), with Reserved Font Name \"Akatab\".";
},
{
name = license;

glyphs = (
{
glyphname = .notdef;
layers = (
{
layerId = "CEA11641-8665-47E8-AF62-91D5E9FF7384";
paths = (
{
closed = 1;
nodes = (
"58 40 LINE",
"58 1228 LINE",
"864 1228 LINE",
"864 40 LINE"
);
},
{
closed = 1;
nodes = (
"806 98 LINE",
"806 1170 LINE",
"115 1170 LINE",
"115 98 LINE"
);
}
);
width = 922;
},
{
layerId = "F475B0A9-7A87-46A7-B4AD-E82CB5471E06";
paths = (
{
closed = 1;
nodes = (
"58 40 LINE",
"58 1228 LINE",
"864 1228 LINE",
"864 40 LINE"
);
},
{
closed = 1;
nodes = (
"806 98 LINE",
"806 1170 LINE",
"115 1170 LINE",
"115 98 LINE"
);
}
);
width = 922;
}
);
},
{
glyphname = ExclamationMrk;
production = exclam;
layers = (
{
background = {
paths = (
{
closed = 1;
nodes = (
"440 419 LINE",
"445 695 OFFCURVE",
"441 1025 OFFCURVE",
"478 1439 CURVE",
"235 1439 LINE",
"271 1025 OFFCURVE",
"266 695 OFFCURVE",
"273 419 CURVE"
);
},
{
closed = 1;
nodes = (
"225 104 CURVE SMOOTH",
"225 33 OFFCURVE",
"283 -25 OFFCURVE",
"354 -25 CURVE SMOOTH",
"424 -25 OFFCURVE",
"483 33 OFFCURVE",
"483 104 CURVE SMOOTH",
"483 174 OFFCURVE",
"424 233 OFFCURVE",
"354 233 CURVE SMOOTH",
"283 233 OFFCURVE",
"225 174 OFFCURVE"
);
}
);
};
components = (
{
name = _Dot;
transform = "{0.7, 0, 0, 0.7, -89, -339}";
}
);
layerId = "CEA11641-8665-47E8-AF62-91D5E9FF7384";
paths = (
{
closed = 1;
nodes = (
"266 354 OFFCURVE",
"208 255 OFFCURVE",
"121 186 CURVE SMOOTH",
"102 171 OFFCURVE",
"103 147 OFFCURVE",
"118 128 CURVE SMOOTH",
"187 41 OFFCURVE",
"286 -17 OFFCURVE",
"354 -103 CURVE SMOOTH",
"369 -122 OFFCURVE",
"393 -120 OFFCURVE",
"412 -105 CURVE SMOOTH",
"499 -36 OFFCURVE",
"557 63 OFFCURVE",
"643 131 CURVE SMOOTH",
"662 146 OFFCURVE",
"661 170 OFFCURVE",
"646 189 CURVE SMOOTH",
"578 275 OFFCURVE",
"479 332 OFFCURVE",
"410 419 CURVE SMOOTH",
"395 438 OFFCURVE",
"371 437 OFFCURVE",
"352 422 CURVE SMOOTH"
);
},
{
closed = 1;
nodes = (
"437 282 OFFCURVE",
"534 241 OFFCURVE",
"589 158 CURVE",
"506 104 OFFCURVE",
"465 6 OFFCURVE",
"382 -48 CURVE",
"328 35 OFFCURVE",
"230 76 OFFCURVE",
"176 158 CURVE",
"258 213 OFFCURVE",
"299 310 OFFCURVE",
"382 365 CURVE"
);
},
{
closed = 1;
nodes = (
"393 1043 OFFCURVE",
"406 1173 OFFCURVE",
"403 1303 CURVE SMOOTH",
"402 1326 OFFCURVE",
"388 1342 OFFCURVE",
"371 1342 CURVE SMOOTH",
"354 1342 OFFCURVE",
"342 1324 OFFCURVE",
"343 1299 CURVE SMOOTH",
"346 1169 OFFCURVE",
"333 1039 OFFCURVE",
"337 908 CURVE SMOOTH",
"338 885 OFFCURVE",
"352 869 OFFCURVE",
"369 869 CURVE SMOOTH",
"386 869 OFFCURVE",
"398 887 OFFCURVE",
"397 912 CURVE SMOOTH"
);
},
{
closed = 1;
nodes = (
"464 1381 OFFCURVE",
"491 1314 OFFCURVE",
"578 1246 CURVE",
"521 999 OFFCURVE",
"405 752 OFFCURVE",
"348 505 CURVE",
"406 505 LINE",
"309 751 OFFCURVE",
"273 997 OFFCURVE",
"176 1243 CURVE",
"223 1312 OFFCURVE",
"330 1380 OFFCURVE",
"377 1449 CURVE"
);
},
{
closed = 1;
nodes = (
"282 1426 OFFCURVE",
"183 1350 OFFCURVE",
"120 1274 CURVE SMOOTH",
"112 1264 OFFCURVE",
"111 1252 OFFCURVE",
"115 1240 CURVE",
"207 997 OFFCURVE",
"247 754 OFFCURVE",
"339 511 CURVE",
"344 496 OFFCURVE",
"358 487 OFFCURVE",
"373 487 CURVE SMOOTH",
"377 487 LINE SMOOTH",
"394 487 OFFCURVE",
"409 498 OFFCURVE",
"413 516 CURVE SMOOTH",
"473 757 OFFCURVE",
"581 1000 OFFCURVE",
"641 1241 CURVE SMOOTH",
"644 1254 OFFCURVE",
"640 1267 OFFCURVE",
"629 1276 CURVE",
"541 1354 OFFCURVE",
"493 1430 OFFCURVE",
"409 1507 CURVE SMOOTH",
"391 1524 OFFCURVE",
"366 1521 OFFCURVE",
"350 1503 CURVE SMOOTH"
);
}
);
width = 764;
},
{
background = {
paths = (
{
closed = 1;
nodes = (
"440 419 LINE",
"445 695 OFFCURVE",
"441 1025 OFFCURVE",
"478 1439 CURVE",
"235 1439 LINE",
"271 1025 OFFCURVE",
"266 695 OFFCURVE",
"273 419 CURVE"
);
},
{
closed = 1;
nodes = (
"225 104 CURVE SMOOTH",
"225 33 OFFCURVE",
"283 -25 OFFCURVE",
"354 -25 CURVE SMOOTH",
"424 -25 OFFCURVE",
"483 33 OFFCURVE",
"483 104 CURVE SMOOTH",
"483 174 OFFCURVE",
"424 233 OFFCURVE",
"354 233 CURVE SMOOTH",
"283 233 OFFCURVE",
"225 174 OFFCURVE"
);
}
);
};
components = (
{
name = _Dot;
transform = "{0.7, 0, 0, 0.7, -89, -339}";
}
);
layerId = "F475B0A9-7A87-46A7-B4AD-E82CB5471E06";
paths = (
{
closed = 1;
nodes = (
"266 354 OFFCURVE",
"208 255 OFFCURVE",
"121 186 CURVE SMOOTH",
"102 171 OFFCURVE",
"103 147 OFFCURVE",
"118 128 CURVE SMOOTH",
"187 41 OFFCURVE",
"286 -17 OFFCURVE",
"354 -103 CURVE SMOOTH",
"369 -122 OFFCURVE",
"393 -120 OFFCURVE",
"412 -105 CURVE SMOOTH",
"499 -36 OFFCURVE",
"557 63 OFFCURVE",
"643 131 CURVE SMOOTH",
"662 146 OFFCURVE",
"661 170 OFFCURVE",
"646 189 CURVE SMOOTH",
"578 275 OFFCURVE",
"479 332 OFFCURVE",
"410 419 CURVE SMOOTH",
"395 438 OFFCURVE",
"371 437 OFFCURVE",
"352 422 CURVE SMOOTH"
);
},
{
closed = 1;
nodes = (
"437 282 OFFCURVE",
"534 241 OFFCURVE",
"589 158 CURVE",
"506 104 OFFCURVE",
"465 6 OFFCURVE",
"382 -48 CURVE",
"328 35 OFFCURVE",
"230 76 OFFCURVE",
"176 158 CURVE",
"258 213 OFFCURVE",
"299 310 OFFCURVE",
"382 365 CURVE"
);
},
{
closed = 1;
nodes = (
"393 1043 OFFCURVE",
"406 1173 OFFCURVE",
"403 1303 CURVE SMOOTH",
"402 1326 OFFCURVE",
"388 1342 OFFCURVE",
"371 1342 CURVE SMOOTH",
"354 1342 OFFCURVE",
"342 1324 OFFCURVE",
"343 1299 CURVE SMOOTH",
"346 1169 OFFCURVE",
"333 1039 OFFCURVE",
"337 908 CURVE SMOOTH",
"338 885 OFFCURVE",
"352 869 OFFCURVE",
"369 869 CURVE SMOOTH",
"386 869 OFFCURVE",
"398 887 OFFCURVE",
"397 912 CURVE SMOOTH"
);
},
{
closed = 1;
nodes = (
"464 1381 OFFCURVE",
"491 1314 OFFCURVE",
"578 1246 CURVE",
"521 999 OFFCURVE",
"405 752 OFFCURVE",
"348 505 CURVE",
"406 505 LINE",
"309 751 OFFCURVE",
"273 997 OFFCURVE",
"176 1243 CURVE",
"223 1312 OFFCURVE",
"330 1380 OFFCURVE",
"377 1449 CURVE"
);
},
{
closed = 1;
nodes = (
"282 1426 OFFCURVE",
"183 1350 OFFCURVE",
"120 1274 CURVE SMOOTH",
"112 1264 OFFCURVE",
"111 1252 OFFCURVE",
"115 1240 CURVE",
"207 997 OFFCURVE",
"247 754 OFFCURVE",
"339 511 CURVE",
"344 496 OFFCURVE",
"358 487 OFFCURVE",
"373 487 CURVE SMOOTH",
"377 487 LINE SMOOTH",
"394 487 OFFCURVE",
"409 498 OFFCURVE",
"413 516 CURVE SMOOTH",
"473 757 OFFCURVE",
"581 1000 OFFCURVE",
"641 1241 CURVE SMOOTH",
"644 1254 OFFCURVE",
"640 1267 OFFCURVE",
"629 1276 CURVE",
"541 1354 OFFCURVE",
"493 1430 OFFCURVE",
"409 1507 CURVE SMOOTH",
"391 1524 OFFCURVE",
"366 1521 OFFCURVE",
"350 1503 CURVE SMOOTH"
);
}
);
width = 764;
}
);
unicode = 0021;
},
{
glyphname = QuotMrk;
production = quotedbl;
layers = (
{
layerId = "CEA11641-8665-47E8-AF62-91D5E9FF7384";
paths = (
{
closed = 1;
nodes = (
"397 1045 LINE",
"402 1180 OFFCURVE",
"408 1325 OFFCURVE",
"436 1560 CURVE",
"240 1560 LINE",
"270 1325 OFFCURVE",
"274 1180 OFFCURVE",
"278 1045 CURVE"
);
},
{
closed = 1;
nodes = (
"722 1045 LINE",
"727 1180 OFFCURVE",
"732 1325 OFFCURVE",
"760 1560 CURVE",
"564 1560 LINE",
"594 1325 OFFCURVE",
"599 1180 OFFCURVE",
"603 1045 CURVE"
);
}
);
width = 1025;
},
{
layerId = "F475B0A9-7A87-46A7-B4AD-E82CB5471E06";
paths = (
{
closed = 1;
nodes = (
"397 1045 LINE",
"402 1180 OFFCURVE",
"408 1325 OFFCURVE",
"436 1560 CURVE",
"240 1560 LINE",
"270 1325 OFFCURVE",
"274 1180 OFFCURVE",
"278 1045 CURVE"
);
},
{
closed = 1;
nodes = (
"722 1045 LINE",
"727 1180 OFFCURVE",
"732 1325 OFFCURVE",
"760 1560 CURVE",
"564 1560 LINE",
"594 1325 OFFCURVE",
"599 1180 OFFCURVE",
"603 1045 CURVE"
);
}
);
width = 1025;
}
);
unicode = 0022;
},
{
glyphname = NumSgn;
production = numbersign;
layers = (
{
layerId = "CEA11641-8665-47E8-AF62-91D5E9FF7384";
paths = (
{
closed = 1;
nodes = (
"466 1402 LINE",
"122 200 LINE",
"265 200 LINE",
"609 1402 LINE"
);
},
{
closed = 1;
nodes = (
"25 558 LINE",
"1066 558 LINE",
"1066 701 LINE",
"25 701 LINE"
);
},
{
closed = 1;
nodes = (
"81 925 LINE",
"1122 925 LINE",
"1122 1068 LINE",
"81 1068 LINE"
);
},
{
closed = 1;
nodes = (
"871 1402 LINE",
"528 200 LINE",
"671 200 LINE",
"1014 1402 LINE"
);
}
);
width = 1200;
},
{
layerId = "F475B0A9-7A87-46A7-B4AD-E82CB5471E06";
paths = (
{
closed = 1;
nodes = (
"466 1402 LINE",
"122 200 LINE",
"265 200 LINE",
"609 1402 LINE"
);
},
{
closed = 1;
nodes = (
"25 558 LINE",
"1066 558 LINE",
"1066 701 LINE",
"25 701 LINE"
);
},
{
closed = 1;
nodes = (
"81 925 LINE",
"1122 925 LINE",
"1122 1068 LINE",
"81 1068 LINE"
);
},
{
closed = 1;
nodes = (
"871 1402 LINE",
"528 200 LINE",
"671 200 LINE",
"1014 1402 LINE"
);
}
);
width = 1200;
}
);
unicode = 0023;
},
{
glyphname = DollarSgn;
production = dollar;
layers = (
{
layerId = "CEA11641-8665-47E8-AF62-91D5E9FF7384";
paths = (
{
closed = 1;
nodes = (
"535 1516 LINE",
"535 -220 LINE",
"659 -220 LINE",
"659 1516 LINE"
);
},
{
closed = 1;
nodes = (
"948 1236 LINE",
"833 1291 OFFCURVE",
"736 1315 OFFCURVE",
"601 1315 CURVE SMOOTH",
"309 1315 OFFCURVE",
"188 1109 OFFCURVE",
"188 960 CURVE SMOOTH",
"188 810 OFFCURVE",
"248 695 OFFCURVE",
"522 613 CURVE SMOOTH",
"796 531 OFFCURVE",
"838 459 OFFCURVE",
"838 368 CURVE SMOOTH",
"838 226 OFFCURVE",
"707 143 OFFCURVE",
"566 143 CURVE SMOOTH",
"436 143 OFFCURVE",
"309 187 OFFCURVE",
"193 288 CURVE",
"153 108 LINE",
"243 39 OFFCURVE",
"396 -10 OFFCURVE",
"566 -10 CURVE SMOOTH",
"806 -10 OFFCURVE",
"1005 149 OFFCURVE",
"1005 385 CURVE SMOOTH",
"1005 575 OFFCURVE",
"877 682 OFFCURVE",
"645 749 CURVE SMOOTH",
"394 823 OFFCURVE",
"355 876 OFFCURVE",
"355 973 CURVE SMOOTH",
"355 1070 OFFCURVE",
"452 1161 OFFCURVE",
"592 1161 CURVE SMOOTH",
"704 1161 OFFCURVE",
"787 1135 OFFCURVE",
"912 1065 CURVE"
);
}
);
width = 1200;
},
{
layerId = "F475B0A9-7A87-46A7-B4AD-E82CB5471E06";
paths = (
{
closed = 1;
nodes = (
"535 1516 LINE",
"535 -220 LINE",
"659 -220 LINE",
"659 1516 LINE"
);
},
{
closed = 1;
nodes = (
"948 1236 LINE",
"833 1291 OFFCURVE",
"736 1315 OFFCURVE",
"601 1315 CURVE SMOOTH",
"309 1315 OFFCURVE",
"188 1109 OFFCURVE",
"188 960 CURVE SMOOTH",
"188 810 OFFCURVE",
"248 695 OFFCURVE",
"522 613 CURVE SMOOTH",
"796 531 OFFCURVE",
"838 459 OFFCURVE",
"838 368 CURVE SMOOTH",
"838 226 OFFCURVE",
"707 143 OFFCURVE",
"566 143 CURVE SMOOTH",
"436 143 OFFCURVE",
"309 187 OFFCURVE",
"193 288 CURVE",
"153 108 LINE",
"243 39 OFFCURVE",
"396 -10 OFFCURVE",
"566 -10 CURVE SMOOTH",
"806 -10 OFFCURVE",
"1005 149 OFFCURVE",
"1005 385 CURVE SMOOTH",
"1005 575 OFFCURVE",
"877 682 OFFCURVE",
"645 749 CURVE SMOOTH",
"394 823 OFFCURVE",
"355 876 OFFCURVE",
"355 973 CURVE SMOOTH",
"355 1070 OFFCURVE",
"452 1161 OFFCURVE",
"592 1161 CURVE SMOOTH",
"704 1161 OFFCURVE",
"787 1135 OFFCURVE",
"912 1065 CURVE"
);
}
);
width = 1200;
}
);
unicode = 0024;
},
{
glyphname = PercentSgn;
production = percent;
layers = (
{
layerId = "CEA11641-8665-47E8-AF62-91D5E9FF7384";
paths = (
{
closed = 1;
nodes = (
"1208 348 CURVE SMOOTH",
"1208 172 OFFCURVE",
"1165 109 OFFCURVE",
"1083 109 CURVE SMOOTH",
"998 109 OFFCURVE",
"960 172 OFFCURVE",
"960 362 CURVE SMOOTH",
"960 538 OFFCURVE",
"1000 600 OFFCURVE",
"1083 600 CURVE SMOOTH",
"1169 600 OFFCURVE",
"1208 539 OFFCURVE"
);
},
{
closed = 1;
nodes = (
"1365 360 CURVE SMOOTH",
"1365 621 OFFCURVE",
"1254 733 OFFCURVE",
"1087 733 CURVE SMOOTH",
"921 733 OFFCURVE",
"802 619 OFFCURVE",
"802 350 CURVE SMOOTH",
"802 81 OFFCURVE",
"912 -25 OFFCURVE",
"1079 -25 CURVE SMOOTH",
"1246 -25 OFFCURVE",
"1365 79 OFFCURVE"
);
},
{
closed = 1;
nodes = (
"1028 1411 LINE",
"282 -25 LINE",
"442 -25 LINE",
"1187 1411 LINE"
);
},
{
closed = 1;
nodes = (
"505 1025 CURVE SMOOTH",
"505 850 OFFCURVE",
"463 786 OFFCURVE",
"380 786 CURVE SMOOTH",
"296 786 OFFCURVE",
"257 849 OFFCURVE",
"257 1040 CURVE SMOOTH",
"257 1215 OFFCURVE",
"297 1277 OFFCURVE",
"380 1277 CURVE SMOOTH",
"467 1277 OFFCURVE",
"505 1216 OFFCURVE"
);
},
{
closed = 1;
nodes = (
"663 1038 CURVE SMOOTH",
"663 1298 OFFCURVE",
"552 1411 OFFCURVE",
"385 1411 CURVE SMOOTH",
"219 1411 OFFCURVE",
"100 1296 OFFCURVE",
"100 1027 CURVE SMOOTH",
"100 758 OFFCURVE",
"210 652 OFFCURVE",
"377 652 CURVE SMOOTH",
"544 652 OFFCURVE",
"663 756 OFFCURVE"
);
}
);
width = 1526;
},
{
layerId = "F475B0A9-7A87-46A7-B4AD-E82CB5471E06";
paths = (
{
closed = 1;
nodes = (
"1208 348 CURVE SMOOTH",
"1208 172 OFFCURVE",
"1165 109 OFFCURVE",
"1083 109 CURVE SMOOTH",
"998 109 OFFCURVE",
"960 172 OFFCURVE",
"960 362 CURVE SMOOTH",
"960 538 OFFCURVE",
"1000 600 OFFCURVE",
"1083 600 CURVE SMOOTH",
"1169 600 OFFCURVE",
"1208 539 OFFCURVE"
);
},
{
closed = 1;
nodes = (
"1365 360 CURVE SMOOTH",
"1365 621 OFFCURVE",
"1254 733 OFFCURVE",
"1087 733 CURVE SMOOTH",
"921 733 OFFCURVE",
"802 619 OFFCURVE",
"802 350 CURVE SMOOTH",
"802 81 OFFCURVE",
"912 -25 OFFCURVE",
"1079 -25 CURVE SMOOTH",
"1246 -25 OFFCURVE",
"1365 79 OFFCURVE"
);
},
{
closed = 1;
nodes = (
"1028 1411 LINE",
"282 -25 LINE",
"442 -25 LINE",
"1187 1411 LINE"
);
},
{
closed = 1;
nodes = (
"505 1025 CURVE SMOOTH",
"505 850 OFFCURVE",
"463 786 OFFCURVE",
"380 786 CURVE SMOOTH",
"296 786 OFFCURVE",
"257 849 OFFCURVE",
"257 1040 CURVE SMOOTH",
"257 1215 OFFCURVE",
"297 1277 OFFCURVE",
"380 1277 CURVE SMOOTH",
"467 1277 OFFCURVE",
"505 1216 OFFCURVE"
);
},
{
closed = 1;
nodes = (
"663 1038 CURVE SMOOTH",
"663 1298 OFFCURVE",
"552 1411 OFFCURVE",
"385 1411 CURVE SMOOTH",
"219 1411 OFFCURVE",
"100 1296 OFFCURVE",
"100 1027 CURVE SMOOTH",
"100 758 OFFCURVE",
"210 652 OFFCURVE",
"377 652 CURVE SMOOTH",
"544 652 OFFCURVE",
"663 756 OFFCURVE"
);
}
);
width = 1526;
}
);
unicode = 0025;
},
{
glyphname = Ampersand;
production = ampersand;
layers = (
{
layerId = "CEA11641-8665-47E8-AF62-91D5E9FF7384";
paths = (
{
closed = 1;
nodes = (
"470 1416 CURVE SMOOTH",
"318 1416 OFFCURVE",
"150 1346 OFFCURVE",
"150 1134 CURVE SMOOTH",
"150 962 OFFCURVE",
"348 776 OFFCURVE",
"513 543 CURVE SMOOTH",
"760 192 OFFCURVE",
"931 -25 OFFCURVE",
"980 -25 CURVE SMOOTH",
"1014 -25 OFFCURVE",
"1088 35 OFFCURVE",
"1123 66 CURVE",
"1033 104 OFFCURVE",
"874 282 OFFCURVE",
"623 648 CURVE SMOOTH",
"474 863 OFFCURVE",
"303 1024 OFFCURVE",
"303 1144 CURVE SMOOTH",
"303 1230 OFFCURVE",
"382 1287 OFFCURVE",
"456 1287 CURVE SMOOTH",
"532 1287 OFFCURVE",
"604 1233 OFFCURVE",
"604 1148 CURVE SMOOTH",
"604 1064 OFFCURVE",
"501 954 OFFCURVE",
"336 800 CURVE SMOOTH",
"142 620 OFFCURVE",
"55 502 OFFCURVE",
"55 357 CURVE SMOOTH",
"55 143 OFFCURVE",
"210 -25 OFFCURVE",
"422 -25 CURVE SMOOTH",
"683 -25 OFFCURVE",
"958 260 OFFCURVE",
"1033 414 CURVE",
"933 543 LINE",
"872 383 OFFCURVE",
"604 142 OFFCURVE",
"437 142 CURVE SMOOTH",
"298 142 OFFCURVE",
"222 254 OFFCURVE",
"222 361 CURVE SMOOTH",
"222 466 OFFCURVE",
"285 559 OFFCURVE",
"451 705 CURVE SMOOTH",
"624 856 OFFCURVE",
"756 1018 OFFCURVE",
"756 1144 CURVE SMOOTH",
"756 1317 OFFCURVE",
"615 1416 OFFCURVE"
);
}
);
width = 1222;
},
{
layerId = "F475B0A9-7A87-46A7-B4AD-E82CB5471E06";
paths = (
{
closed = 1;
nodes = (
"470 1416 CURVE SMOOTH",
"318 1416 OFFCURVE",
"150 1346 OFFCURVE",
"150 1134 CURVE SMOOTH",
"150 962 OFFCURVE",
"348 776 OFFCURVE",
"513 543 CURVE SMOOTH",
"760 192 OFFCURVE",
"931 -25 OFFCURVE",
"980 -25 CURVE SMOOTH",
"1014 -25 OFFCURVE",
"1088 35 OFFCURVE",
"1123 66 CURVE",
"1033 104 OFFCURVE",
"874 282 OFFCURVE",
"623 648 CURVE SMOOTH",
"474 863 OFFCURVE",
"303 1024 OFFCURVE",
"303 1144 CURVE SMOOTH",
"303 1230 OFFCURVE",
"382 1287 OFFCURVE",
"456 1287 CURVE SMOOTH",
"532 1287 OFFCURVE",
"604 1233 OFFCURVE",
"604 1148 CURVE SMOOTH",
"604 1064 OFFCURVE",
"501 954 OFFCURVE",
"336 800 CURVE SMOOTH",
"142 620 OFFCURVE",
"55 502 OFFCURVE",
"55 357 CURVE SMOOTH",
"55 143 OFFCURVE",
"210 -25 OFFCURVE",
"422 -25 CURVE SMOOTH",
"683 -25 OFFCURVE",
"958 260 OFFCURVE",
"1033 414 CURVE",
"933 543 LINE",
"872 383 OFFCURVE",
"604 142 OFFCURVE",
"437 142 CURVE SMOOTH",
"298 142 OFFCURVE",
"222 254 OFFCURVE",
"222 361 CURVE SMOOTH",
"222 466 OFFCURVE",
"285 559 OFFCURVE",
"451 705 CURVE SMOOTH",
"624 856 OFFCURVE",
"756 1018 OFFCURVE",
"756 1144 CURVE SMOOTH",
"756 1317 OFFCURVE",
"615 1416 OFFCURVE"
);
}
);
width = 1222;
}
);
unicode = 0026;
},
{
glyphname = Apos;
production = quotesingle;
layers = (
{
layerId = "CEA11641-8665-47E8-AF62-91D5E9FF7384";
paths = (
{
closed = 1;
nodes = (
"357 1045 LINE",
"362 1180 OFFCURVE",
"368 1325 OFFCURVE",
"396 1560 CURVE",
"200 1560 LINE",
"230 1325 OFFCURVE",
"234 1180 OFFCURVE",
"238 1045 CURVE"
);
}
);
width = 605;
},
{
layerId = "F475B0A9-7A87-46A7-B4AD-E82CB5471E06";
paths = (
{
closed = 1;
nodes = (
"357 1045 LINE",
"362 1180 OFFCURVE",
"368 1325 OFFCURVE",
"396 1560 CURVE",
"200 1560 LINE",
"230 1325 OFFCURVE",
"234 1180 OFFCURVE",
"238 1045 CURVE"
);
}
);
width = 605;
}
);
unicode = 0027;
},
{
glyphname = LftParen;
production = parenleft;
layers = (
{
layerId = "CEA11641-8665-47E8-AF62-91D5E9FF7384";
paths = (
{
closed = 1;
nodes = (
"115 577 CURVE SMOOTH",
"115 189 OFFCURVE",
"253 -138 OFFCURVE",
"516 -410 CURVE",
"606 -272 LINE",
"382 -26 OFFCURVE",
"296 246 OFFCURVE",
"296 577 CURVE SMOOTH",
"296 918 OFFCURVE",
"382 1202 OFFCURVE",
"606 1398 CURVE",
"535 1546 LINE",
"282 1359 OFFCURVE",
"115 994 OFFCURVE"
);
}
);
width = 795;
},
{
layerId = "F475B0A9-7A87-46A7-B4AD-E82CB5471E06";
paths = (
{
closed = 1;
nodes = (
"115 577 CURVE SMOOTH",
"115 189 OFFCURVE",
"253 -138 OFFCURVE",
"516 -410 CURVE",
"606 -272 LINE",
"382 -26 OFFCURVE",
"296 246 OFFCURVE",
"296 577 CURVE SMOOTH",
"296 918 OFFCURVE",
"382 1202 OFFCURVE",
"606 1398 CURVE",
"535 1546 LINE",
"282 1359 OFFCURVE",
"115 994 OFFCURVE"
);
}
);
width = 795;
}
);
unicode = 0028;
},
{
glyphname = RtParen;
production = parenright;
layers = (
{
layerId = "CEA11641-8665-47E8-AF62-91D5E9FF7384";
paths = (
{
closed = 1;
nodes = (
"656 577 CURVE SMOOTH",
"656 994 OFFCURVE",
"489 1359 OFFCURVE",
"237 1546 CURVE",
"165 1398 LINE",
"380 1202 OFFCURVE",
"475 899 OFFCURVE",
"475 577 CURVE SMOOTH",
"475 246 OFFCURVE",
"380 -26 OFFCURVE",
"165 -272 CURVE",
"256 -410 LINE",
"518 -138 OFFCURVE",
"656 189 OFFCURVE"
);
}
);
width = 795;
},
{
layerId = "F475B0A9-7A87-46A7-B4AD-E82CB5471E06";
paths = (
{
closed = 1;
nodes = (
"656 577 CURVE SMOOTH",
"656 994 OFFCURVE",
"489 1359 OFFCURVE",
"237 1546 CURVE",
"165 1398 LINE",
"380 1202 OFFCURVE",
"475 899 OFFCURVE",
"475 577 CURVE SMOOTH",
"475 246 OFFCURVE",
"380 -26 OFFCURVE",
"165 -272 CURVE",
"256 -410 LINE",
"518 -138 OFFCURVE",
"656 189 OFFCURVE"
);
}
);
width = 795;
}
);
unicode = 0029;
},
{
glyphname = Asterisk;
production = asterisk;
layers = (
{
layerId = "CEA11641-8665-47E8-AF62-91D5E9FF7384";
paths = (
{
closed = 1;
nodes = (
"540 1565 CURVE",
"402 1565 LINE",
"420 1438 OFFCURVE",
"432 1362 OFFCURVE",
"435 1279 CURVE",
"364 1321 OFFCURVE",
"301 1362 OFFCURVE",
"197 1436 CURVE",
"125 1317 LINE",
"244 1269 OFFCURVE",
"318 1242 OFFCURVE",
"392 1203 CURVE",
"320 1161 OFFCURVE",
"250 1126 OFFCURVE",
"135 1074 CURVE",
"201 954 LINE",
"301 1033 OFFCURVE",
"365 1082 OFFCURVE",
"435 1126 CURVE",
"433 1045 OFFCURVE",
"427 967 OFFCURVE",
"416 840 CURVE",
"550 840 LINE",
"530 967 OFFCURVE",
"525 1042 OFFCURVE",
"521 1126 CURVE",
"592 1083 OFFCURVE",
"655 1043 OFFCURVE",
"759 969 CURVE",
"831 1088 LINE",
"711 1135 OFFCURVE",
"638 1163 OFFCURVE",
"564 1203 CURVE",
"636 1242 OFFCURVE",
"705 1278 OFFCURVE",
"821 1331 CURVE",
"755 1451 LINE",
"654 1370 OFFCURVE",
"592 1325 OFFCURVE",
"521 1279 CURVE",
"522 1362 OFFCURVE",
"528 1438 OFFCURVE"
);
}
);
width = 1028;
},
{
layerId = "F475B0A9-7A87-46A7-B4AD-E82CB5471E06";
paths = (
{
closed = 1;
nodes = (
"540 1565 CURVE",
"402 1565 LINE",
"420 1438 OFFCURVE",
"432 1362 OFFCURVE",
"435 1279 CURVE",
"364 1321 OFFCURVE",
"301 1362 OFFCURVE",
"197 1436 CURVE",
"125 1317 LINE",
"244 1269 OFFCURVE",
"318 1242 OFFCURVE",
"392 1203 CURVE",
"320 1161 OFFCURVE",
"250 1126 OFFCURVE",
"135 1074 CURVE",
"201 954 LINE",
"301 1033 OFFCURVE",
"365 1082 OFFCURVE",
"435 1126 CURVE",
"433 1045 OFFCURVE",
"427 967 OFFCURVE",
"416 840 CURVE",
"550 840 LINE",
"530 967 OFFCURVE",
"525 1042 OFFCURVE",
"521 1126 CURVE",
"592 1083 OFFCURVE",
"655 1043 OFFCURVE",
"759 969 CURVE",
"831 1088 LINE",
"711 1135 OFFCURVE",
"638 1163 OFFCURVE",
"564 1203 CURVE",
"636 1242 OFFCURVE",
"705 1278 OFFCURVE",
"821 1331 CURVE",
"755 1451 LINE",
"654 1370 OFFCURVE",
"592 1325 OFFCURVE",
"521 1279 CURVE",
"522 1362 OFFCURVE",
"528 1438 OFFCURVE"
);
}
);
width = 1028;
}
);
unicode = 002A;
},
{
glyphname = PlusSgn;
production = plus;
layers = (
{
layerId = "CEA11641-8665-47E8-AF62-91D5E9FF7384";
paths = (
{
closed = 1;
nodes = (
"508 1139 LINE",
"508 285 LINE",
"651 285 LINE",
"651 1139 LINE"
);
},
{
closed = 1;
nodes = (
"155 643 LINE",
"1004 643 LINE",
"1004 786 LINE",
"155 786 LINE"
);
}
);
width = 1200;
},
{
layerId = "F475B0A9-7A87-46A7-B4AD-E82CB5471E06";
paths = (
{
closed = 1;
nodes = (
"508 1139 LINE",
"508 285 LINE",
"651 285 LINE",
"651 1139 LINE"
);
},
{
closed = 1;
nodes = (
"155 643 LINE",
"1004 643 LINE",
"1004 786 LINE",
"155 786 LINE"
);
}
);
width = 1200;
}
);
unicode = 002B;
},
{
glyphname = Comma;
production = comma;
layers = (
{
background = {
paths = (
{
closed = 1;
nodes = (
"135 -138 LINE",
"547 -138 LINE",
"547 274 LINE",
"135 274 LINE"
);
},
{
closed = 1;
nodes = (
"487 214 LINE",
"487 -78 LINE",
"195 -78 LINE",
"195 214 LINE"
);
}
);
};
components = (
{
name = _Dot;
transform = "{0.7, 0, 0, 0.7, -119, -339}";
}
);
layerId = "CEA11641-8665-47E8-AF62-91D5E9FF7384";
paths = (
{
closed = 1;
nodes = (
"260 280 OFFCURVE",
"416 320 OFFCURVE",
"572 300 CURVE",
"474 166 OFFCURVE",
"436 31 OFFCURVE",
"338 -103 CURVE",
"280 31 OFFCURVE",
"162 166 OFFCURVE",
"104 300 CURVE"
);
},
{
closed = 1;
nodes = (
"107 141 OFFCURVE",
"232 -4 OFFCURVE",
"295 -148 CURVE SMOOTH",
"312 -187 OFFCURVE",
"356 -183 OFFCURVE",
"381 -148 CURVE SMOOTH",
"484 -3 OFFCURVE",
"529 140 OFFCURVE",
"632 285 CURVE SMOOTH",
"657 320 OFFCURVE",
"631 355 OFFCURVE",
"589 360 CURVE SMOOTH",
"422 380 OFFCURVE",
"254 340 OFFCURVE",
"87 360 CURVE SMOOTH",
"45 365 OFFCURVE",
"27 324 OFFCURVE",
"44 285 CURVE SMOOTH"
);
}
);
width = 676;
},
{
background = {
paths = (
{
closed = 1;
nodes = (
"135 -138 LINE",
"547 -138 LINE",
"547 274 LINE",
"135 274 LINE"
);
},
{
closed = 1;
nodes = (
"487 214 LINE",
"487 -78 LINE",
"195 -78 LINE",
"195 214 LINE"
);
}
);
};
components = (
{
name = _Dot;
transform = "{0.7, 0, 0, 0.7, -119, -339}";
}
);
layerId = "F475B0A9-7A87-46A7-B4AD-E82CB5471E06";
paths = (
{
closed = 1;
nodes = (
"260 280 OFFCURVE",
"416 320 OFFCURVE",
"572 300 CURVE",
"474 166 OFFCURVE",
"436 31 OFFCURVE",
"338 -103 CURVE",
"280 31 OFFCURVE",
"162 166 OFFCURVE",
"104 300 CURVE"
);
},
{
closed = 1;
nodes = (
"107 141 OFFCURVE",
"232 -4 OFFCURVE",
"295 -148 CURVE SMOOTH",
"312 -187 OFFCURVE",
"356 -183 OFFCURVE",
"381 -148 CURVE SMOOTH",
"484 -3 OFFCURVE",
"529 140 OFFCURVE",
"632 285 CURVE SMOOTH",
"657 320 OFFCURVE",
"631 355 OFFCURVE",
"589 360 CURVE SMOOTH",
"422 380 OFFCURVE",
"254 340 OFFCURVE",
"87 360 CURVE SMOOTH",
"45 365 OFFCURVE",
"27 324 OFFCURVE",
"44 285 CURVE SMOOTH"
);
}
);
width = 676;
}
);
unicode = 002C;
},
{
glyphname = HyphenMinus;
production = hyphen;
layers = (
{
anchors = (
{
name = U;
position = "{430, 1100}";
}
);
layerId = "CEA11641-8665-47E8-AF62-91D5E9FF7384";
paths = (
{
closed = 1;
nodes = (
"80 555 LINE",
"748 555 LINE",
"748 698 LINE",
"80 698 LINE"
);
}
);
width = 860;
},
{
anchors = (
{
name = U;
position = "{430, 1100}";
}
);
layerId = "F475B0A9-7A87-46A7-B4AD-E82CB5471E06";
paths = (
{
closed = 1;
nodes = (
"80 555 LINE",
"748 555 LINE",
"748 698 LINE",
"80 698 LINE"
);
}
);
width = 860;
}
);
unicode = 002D;
},
{
glyphname = FullStop;
production = period;
layers = (
{
background = {
paths = (
{
closed = 1;
nodes = (
"110 -138 LINE",
"522 -138 LINE",
"522 274 LINE",
"110 274 LINE"
);
},
{
closed = 1;
nodes = (
"462 214 LINE",
"462 -78 LINE",
"170 -78 LINE",
"170 214 LINE"
);
}
);
};
components = (
{
name = _Dot;
transform = "{0.7, 0, 0, 0.7, -144, -339}";
}
);
layerId = "CEA11641-8665-47E8-AF62-91D5E9FF7384";
paths = (
{
closed = 1;
nodes = (
"94 214 OFFCURVE",
"126 103 OFFCURVE",
"112 -7 CURVE SMOOTH",
"109 -31 OFFCURVE",
"127 -47 OFFCURVE",
"151 -50 CURVE SMOOTH",
"261 -64 OFFCURVE",
"372 -32 OFFCURVE",
"481 -46 CURVE SMOOTH",
"505 -49 OFFCURVE",
"521 -31 OFFCURVE",
"524 -7 CURVE SMOOTH",
"538 103 OFFCURVE",
"506 214 OFFCURVE",
"520 323 CURVE SMOOTH",
"523 347 OFFCURVE",
"505 363 OFFCURVE",
"481 366 CURVE SMOOTH",
"373 380 OFFCURVE",
"262 348 OFFCURVE",
"151 362 CURVE SMOOTH",
"127 365 OFFCURVE",
"111 347 OFFCURVE",
"108 323 CURVE SMOOTH"
);
},
{
closed = 1;
nodes = (
"267 284 OFFCURVE",
"365 324 OFFCURVE",
"462 304 CURVE",
"442 207 OFFCURVE",
"482 109 OFFCURVE",
"462 12 CURVE",
"365 32 OFFCURVE",
"267 -8 OFFCURVE",
"170 12 CURVE",
"190 109 OFFCURVE",
"150 207 OFFCURVE",
"170 304 CURVE"
);
}
);
width = 632;
},
{
background = {
paths = (
{
closed = 1;
nodes = (
"110 -138 LINE",
"522 -138 LINE",
"522 274 LINE",
"110 274 LINE"
);
},
{
closed = 1;
nodes = (
"462 214 LINE",
"462 -78 LINE",
"170 -78 LINE",
"170 214 LINE"
);
}
);
};
components = (
{
name = _Dot;
transform = "{0.7, 0, 0, 0.7, -144, -339}";
}
);
layerId = "F475B0A9-7A87-46A7-B4AD-E82CB5471E06";
paths = (
{
closed = 1;
nodes = (
"94 214 OFFCURVE",
"126 103 OFFCURVE",
"112 -7 CURVE SMOOTH",
"109 -31 OFFCURVE",
"127 -47 OFFCURVE",
"151 -50 CURVE SMOOTH",
"261 -64 OFFCURVE",
"372 -32 OFFCURVE",
"481 -46 CURVE SMOOTH",
"505 -49 OFFCURVE",
"521 -31 OFFCURVE",
"524 -7 CURVE SMOOTH",
"538 103 OFFCURVE",
"506 214 OFFCURVE",
"520 323 CURVE SMOOTH",
"523 347 OFFCURVE",
"505 363 OFFCURVE",
"481 366 CURVE SMOOTH",
"373 380 OFFCURVE",
"262 348 OFFCURVE",
"151 362 CURVE SMOOTH",
"127 365 OFFCURVE",
"111 347 OFFCURVE",
"108 323 CURVE SMOOTH"
);
},
{
closed = 1;
nodes = (
"267 284 OFFCURVE",
"365 324 OFFCURVE",
"462 304 CURVE",
"442 207 OFFCURVE",
"482 109 OFFCURVE",
"462 12 CURVE",
"365 32 OFFCURVE",
"267 -8 OFFCURVE",
"170 12 CURVE",
"190 109 OFFCURVE",
"150 207 OFFCURVE",
"170 304 CURVE"
);
}
);
width = 632;
}
);
unicode = 002E;
},
{
glyphname = Solidus;
production = slash;
layers = (
{
layerId = "CEA11641-8665-47E8-AF62-91D5E9FF7384";
paths = (
{
closed = 1;
nodes = (
"802 1515 LINE",
"10 -245 LINE",
"153 -245 LINE",
"945 1515 LINE"
);
}
);
width = 1000;
},
{
layerId = "F475B0A9-7A87-46A7-B4AD-E82CB5471E06";
paths = (
{
closed = 1;
nodes = (
"802 1515 LINE",
"10 -245 LINE",
"153 -245 LINE",
"945 1515 LINE"
);
}
);
width = 1000;
}
);
unicode = 002F;
},
{
glyphname = DigitZero;
production = zero;
layers = (
{
anchors = (
{
name = L;
position = "{605, -100}";
},
{
name = U;
position = "{605, 1530}";
}
);
layerId = "CEA11641-8665-47E8-AF62-91D5E9FF7384";
paths = (
{
closed = 1;
nodes = (
"872 681 CURVE SMOOTH",
"872 293 OFFCURVE",
"760 137 OFFCURVE",
"577 137 CURVE SMOOTH",
"388 137 OFFCURVE",
"281 290 OFFCURVE",
"281 710 CURVE SMOOTH",
"281 1099 OFFCURVE",
"392 1253 OFFCURVE",
"577 1253 CURVE SMOOTH",
"769 1253 OFFCURVE",
"872 1102 OFFCURVE"
);
},
{
closed = 1;
nodes = (
"1063 705 CURVE SMOOTH",
"1063 1226 OFFCURVE",
"863 1416 OFFCURVE",
"586 1416 CURVE SMOOTH",
"310 1416 OFFCURVE",
"90 1223 OFFCURVE",
"90 686 CURVE SMOOTH",
"90 147 OFFCURVE",
"291 -25 OFFCURVE",
"567 -25 CURVE SMOOTH",
"845 -25 OFFCURVE",
"1063 143 OFFCURVE"
);
}
);
width = 1200;
},
{
anchors = (
{
name = L;
position = "{605, -100}";
},
{
name = U;
position = "{605, 1530}";
}
);
layerId = "F475B0A9-7A87-46A7-B4AD-E82CB5471E06";
paths = (
{
closed = 1;
nodes = (
"872 681 CURVE SMOOTH",
"872 293 OFFCURVE",
"760 137 OFFCURVE",
"577 137 CURVE SMOOTH",
"388 137 OFFCURVE",
"281 290 OFFCURVE",
"281 710 CURVE SMOOTH",
"281 1099 OFFCURVE",
"392 1253 OFFCURVE",
"577 1253 CURVE SMOOTH",
"769 1253 OFFCURVE",
"872 1102 OFFCURVE"
);
},
{
closed = 1;
nodes = (
"1063 705 CURVE SMOOTH",
"1063 1226 OFFCURVE",
"863 1416 OFFCURVE",
"586 1416 CURVE SMOOTH",
"310 1416 OFFCURVE",
"90 1223 OFFCURVE",
"90 686 CURVE SMOOTH",
"90 147 OFFCURVE",
"291 -25 OFFCURVE",
"567 -25 CURVE SMOOTH",
"845 -25 OFFCURVE",
"1063 143 OFFCURVE"
);
}
);
width = 1200;
}
);
unicode = 0030;
},
{
glyphname = DigitOne;
production = one;
layers = (
{
anchors = (
{
name = L;
position = "{600, -100}";
},
{
name = U;
position = "{600, 1530}";
}
);
layerId = "CEA11641-8665-47E8-AF62-91D5E9FF7384";
paths = (
{
closed = 1;
nodes = (
"520 162 LINE",
"220 162 LINE",
"220 0 LINE",
"1002 0 LINE",
"1002 162 LINE",
"701 162 LINE",
"701 1412 LINE",
"539 1412 LINE",
"210 1210 LINE",
"234 1038 LINE",
"520 1202 LINE"
);
}
);
width = 1200;
},
{
anchors = (
{
name = L;
position = "{600, -100}";
},
{
name = U;
position = "{600, 1530}";
}
);
layerId = "F475B0A9-7A87-46A7-B4AD-E82CB5471E06";
paths = (
{
closed = 1;
nodes = (
"520 162 LINE",
"220 162 LINE",
"220 0 LINE",
"1002 0 LINE",
"1002 162 LINE",
"701 162 LINE",
"701 1412 LINE",
"539 1412 LINE",
"210 1210 LINE",
"234 1038 LINE",
"520 1202 LINE"
);
}
);
width = 1200;
}
);
unicode = 0031;
},
{
glyphname = DigitTwo;
production = two;
layers = (
{
anchors = (
{
name = L;
position = "{600, -100}";
},
{
name = U;
position = "{560, 1530}";
}
);
layerId = "CEA11641-8665-47E8-AF62-91D5E9FF7384";
paths = (
{
closed = 1;
nodes = (
"1036 172 LINE",
"960 158 OFFCURVE",
"809 157 OFFCURVE",
"621 157 CURVE SMOOTH",
"378 157 LINE",
"587 336 OFFCURVE",
"969 695 OFFCURVE",
"969 1016 CURVE SMOOTH",
"969 1262 OFFCURVE",
"769 1417 OFFCURVE",
"540 1417 CURVE SMOOTH",
"379 1417 OFFCURVE",
"202 1338 OFFCURVE",
"125 1231 CURVE",
"168 1068 LINE",
"253 1172 OFFCURVE",
"389 1245 OFFCURVE",
"506 1245 CURVE SMOOTH",
"643 1245 OFFCURVE",
"778 1176 OFFCURVE",
"778 997 CURVE SMOOTH",
"778 733 OFFCURVE",
"379 348 OFFCURVE",
"120 162 CURVE",
"120 0 LINE",
"1036 0 LINE"
);
}
);
width = 1200;
},
{
anchors = (
{
name = L;
position = "{600, -100}";
},
{
name = U;
position = "{560, 1530}";
}
);
layerId = "F475B0A9-7A87-46A7-B4AD-E82CB5471E06";
paths = (
{
closed = 1;
nodes = (
"1036 172 LINE",
"960 158 OFFCURVE",
"809 157 OFFCURVE",
"621 157 CURVE SMOOTH",
"378 157 LINE",
"587 336 OFFCURVE",
"969 695 OFFCURVE",
"969 1016 CURVE SMOOTH",
"969 1262 OFFCURVE",
"769 1417 OFFCURVE",
"540 1417 CURVE SMOOTH",
"379 1417 OFFCURVE",
"202 1338 OFFCURVE",
"125 1231 CURVE",
"168 1068 LINE",
"253 1172 OFFCURVE",
"389 1245 OFFCURVE",
"506 1245 CURVE SMOOTH",
"643 1245 OFFCURVE",
"778 1176 OFFCURVE",
"778 997 CURVE SMOOTH",
"778 733 OFFCURVE",
"379 348 OFFCURVE",
"120 162 CURVE",
"120 0 LINE",
"1036 0 LINE"
);
}
);
width = 1200;
}
);
unicode = 0032;
},
{
glyphname = DigitThree;
production = three;
layers = (
{
anchors = (
{
name = L;
position = "{600, -100}";
},
{
name = U;
position = "{600, 1530}";
}
);
layerId = "CEA11641-8665-47E8-AF62-91D5E9FF7384";
paths = (
{
closed = 1;
nodes = (
"396 829 LINE",
"396 667 LINE",
"463 667 LINE",
"688 667 OFFCURVE",
"859 560 OFFCURVE",
"859 404 CURVE SMOOTH",
"859 229 OFFCURVE",
"690 142 OFFCURVE",
"544 142 CURVE SMOOTH",
"372 142 OFFCURVE",
"238 220 OFFCURVE",
"134 338 CURVE",
"110 132 LINE",
"210 39 OFFCURVE",
"356 -25 OFFCURVE",
"525 -25 CURVE SMOOTH",
"801 -25 OFFCURVE",
"1045 161 OFFCURVE",
"1045 385 CURVE SMOOTH",
"1045 640 OFFCURVE",
"827 739 OFFCURVE",
"692 762 CURVE",
"827 790 OFFCURVE",
"997 912 OFFCURVE",
"997 1086 CURVE SMOOTH",
"997 1291 OFFCURVE",
"795 1416 OFFCURVE",
"558 1416 CURVE",
"399 1416 OFFCURVE",
"253 1350 OFFCURVE",
"177 1263 CURVE",
"210 1101 LINE",
"318 1211 OFFCURVE",
"421 1249 OFFCURVE",
"568 1249 CURVE SMOOTH",
"683 1249 OFFCURVE",
"816 1191 OFFCURVE",
"816 1063 CURVE SMOOTH",
"816 944 OFFCURVE",
"653 829 OFFCURVE",
"463 829 CURVE"
);
}
);
width = 1200;
},
{
anchors = (
{
name = L;
position = "{600, -100}";
},
{
name = U;
position = "{600, 1530}";
}
);
layerId = "F475B0A9-7A87-46A7-B4AD-E82CB5471E06";
paths = (
{
closed = 1;
nodes = (
"396 829 LINE",
"396 667 LINE",
"463 667 LINE",
"688 667 OFFCURVE",
"859 560 OFFCURVE",
"859 404 CURVE SMOOTH",
"859 229 OFFCURVE",
"690 142 OFFCURVE",
"544 142 CURVE SMOOTH",
"372 142 OFFCURVE",
"238 220 OFFCURVE",
"134 338 CURVE",
"110 132 LINE",
"210 39 OFFCURVE",
"356 -25 OFFCURVE",
"525 -25 CURVE SMOOTH",
"801 -25 OFFCURVE",
"1045 161 OFFCURVE",
"1045 385 CURVE SMOOTH",
"1045 640 OFFCURVE",
"827 739 OFFCURVE",
"692 762 CURVE",
"827 790 OFFCURVE",
"997 912 OFFCURVE",
"997 1086 CURVE SMOOTH",
"997 1291 OFFCURVE",
"795 1416 OFFCURVE",
"558 1416 CURVE",
"399 1416 OFFCURVE",
"253 1350 OFFCURVE",
"177 1263 CURVE",
"210 1101 LINE",
"318 1211 OFFCURVE",
"421 1249 OFFCURVE",
"568 1249 CURVE SMOOTH",
"683 1249 OFFCURVE",
"816 1191 OFFCURVE",
"816 1063 CURVE SMOOTH",
"816 944 OFFCURVE",
"653 829 OFFCURVE",
"463 829 CURVE"
);
}
);
width = 1200;
}
);
unicode = 0033;
},
{
glyphname = DigitFour;
production = four;
layers = (
{
anchors = (
{
name = L;
position = "{607, -100}";
},
{
name = U;
position = "{607, 1530}";
}
);
layerId = "CEA11641-8665-47E8-AF62-91D5E9FF7384";
paths = (
{
closed = 1;
nodes = (
"1077 377 LINE",
"1077 525 LINE",
"896 525 LINE",
"896 1412 LINE",
"715 1412 LINE",
"90 525 LINE",
"90 377 LINE",
"715 377 LINE",
"715 0 LINE",
"896 0 LINE",
"896 377 LINE"
);
},
{
closed = 1;
nodes = (
"715 1173 LINE",
"715 525 LINE",
"255 525 LINE"
);
}
);
width = 1200;
},
{
anchors = (
{
name = L;
position = "{607, -100}";
},
{
name = U;
position = "{607, 1530}";
}
);
layerId = "F475B0A9-7A87-46A7-B4AD-E82CB5471E06";
paths = (
{
closed = 1;
nodes = (
"1077 377 LINE",
"1077 525 LINE",
"896 525 LINE",
"896 1412 LINE",
"715 1412 LINE",
"90 525 LINE",
"90 377 LINE",
"715 377 LINE",
"715 0 LINE",
"896 0 LINE",
"896 377 LINE"
);
},
{
closed = 1;
nodes = (
"715 1173 LINE",
"715 525 LINE",
"255 525 LINE"
);
}
);
width = 1200;
}
);
unicode = 0034;
},
{
glyphname = DigitFive;
production = five;
layers = (
{
anchors = (
{
name = L;
position = "{600, -100}";
},
{
name = U;
position = "{600, 1530}";
}
);
layerId = "CEA11641-8665-47E8-AF62-91D5E9FF7384";
paths = (
{
closed = 1;
nodes = (
"192 652 LINE",
"310 698 OFFCURVE",
"391 714 OFFCURVE",
"493 714 CURVE SMOOTH",
"645 714 OFFCURVE",
"836 640 OFFCURVE",
"836 447 CURVE SMOOTH",
"836 255 OFFCURVE",
"702 147 OFFCURVE",
"512 147 CURVE SMOOTH",
"378 147 OFFCURVE",
"286 172 OFFCURVE",
"159 276 CURVE",
"130 75 LINE",
"249 1 OFFCURVE",
"352 -25 OFFCURVE",
"500 -25 CURVE SMOOTH",
"799 -25 OFFCURVE",
"1017 154 OFFCURVE",
"1017 452 CURVE SMOOTH",
"1017 707 OFFCURVE",
"800 886 OFFCURVE",
"526 886 CURVE SMOOTH",
"456 886 OFFCURVE",
"398 880 OFFCURVE",
"369 877 CURVE",
"369 1230 LINE",
"736 1230 LINE",
"816 1230 OFFCURVE",
"888 1226 OFFCURVE",
"960 1210 CURVE",
"960 1392 LINE",
"192 1392 LINE"
);
}
);
width = 1200;
},
{
anchors = (
{
name = L;
position = "{600, -100}";
},
{
name = U;
position = "{600, 1530}";
}
);
layerId = "F475B0A9-7A87-46A7-B4AD-E82CB5471E06";
paths = (
{
closed = 1;
nodes = (
"192 652 LINE",
"310 698 OFFCURVE",
"391 714 OFFCURVE",
"493 714 CURVE SMOOTH",
"645 714 OFFCURVE",
"836 640 OFFCURVE",
"836 447 CURVE SMOOTH",
"836 255 OFFCURVE",
"702 147 OFFCURVE",
"512 147 CURVE SMOOTH",
"378 147 OFFCURVE",
"286 172 OFFCURVE",
"159 276 CURVE",
"130 75 LINE",
"249 1 OFFCURVE",
"352 -25 OFFCURVE",
"500 -25 CURVE SMOOTH",
"799 -25 OFFCURVE",
"1017 154 OFFCURVE",
"1017 452 CURVE SMOOTH",
"1017 707 OFFCURVE",
"800 886 OFFCURVE",
"526 886 CURVE SMOOTH",
"456 886 OFFCURVE",
"398 880 OFFCURVE",
"369 877 CURVE",
"369 1230 LINE",
"736 1230 LINE",
"816 1230 OFFCURVE",
"888 1226 OFFCURVE",
"960 1210 CURVE",
"960 1392 LINE",
"192 1392 LINE"
);
}
);
width = 1200;
}
);
unicode = 0035;
},
{
glyphname = DigitSix;
production = six;
layers = (
{
anchors = (
{
name = L;
position = "{600, -100}";
},
{
name = U;
position = "{600, 1530}";
}
);
layerId = "CEA11641-8665-47E8-AF62-91D5E9FF7384";
paths = (
{
closed = 1;
nodes = (
"991 1330 LINE",
"891 1396 OFFCURVE",
"809 1416 OFFCURVE",
"697 1416 CURVE SMOOTH",
"244 1416 OFFCURVE",
"110 1000 OFFCURVE",
"110 648 CURVE SMOOTH",
"110 230 OFFCURVE",
"282 -25 OFFCURVE",
"577 -25 CURVE SMOOTH",
"870 -25 OFFCURVE",
"1069 157 OFFCURVE",
"1069 447 CURVE SMOOTH",
"1069 685 OFFCURVE",
"905 853 OFFCURVE",
"639 853 CURVE SMOOTH",
"457 853 OFFCURVE",
"318 743 OFFCURVE",
"210 595 CURVE",
"272 524 LINE",
"350 622 OFFCURVE",
"473 686 OFFCURVE",
"620 686 CURVE SMOOTH",
"791 686 OFFCURVE",
"883 582 OFFCURVE",
"883 414 CURVE SMOOTH",
"883 261 OFFCURVE",
"774 142 OFFCURVE",
"606 142 CURVE SMOOTH",
"395 142 OFFCURVE",
"296 374 OFFCURVE",
"296 614 CURVE SMOOTH",
"296 1079 OFFCURVE",
"461 1249 OFFCURVE",
"687 1249 CURVE SMOOTH",
"779 1249 OFFCURVE",
"867 1226 OFFCURVE",
"949 1144 CURVE"
);
}
);
width = 1200;
},
{
anchors = (
{
name = L;
position = "{600, -100}";
},
{
name = U;
position = "{600, 1530}";
}
);
layerId = "F475B0A9-7A87-46A7-B4AD-E82CB5471E06";
paths = (
{
closed = 1;
nodes = (
"991 1330 LINE",
"891 1396 OFFCURVE",
"809 1416 OFFCURVE",
"697 1416 CURVE SMOOTH",
"244 1416 OFFCURVE",
"110 1000 OFFCURVE",
"110 648 CURVE SMOOTH",
"110 230 OFFCURVE",
"282 -25 OFFCURVE",
"577 -25 CURVE SMOOTH",
"870 -25 OFFCURVE",
"1069 157 OFFCURVE",
"1069 447 CURVE SMOOTH",
"1069 685 OFFCURVE",
"905 853 OFFCURVE",
"639 853 CURVE SMOOTH",
"457 853 OFFCURVE",
"318 743 OFFCURVE",
"210 595 CURVE",
"272 524 LINE",
"350 622 OFFCURVE",
"473 686 OFFCURVE",
"620 686 CURVE SMOOTH",
"791 686 OFFCURVE",
"883 582 OFFCURVE",
"883 414 CURVE SMOOTH",
"883 261 OFFCURVE",
"774 142 OFFCURVE",
"606 142 CURVE SMOOTH",
"395 142 OFFCURVE",
"296 374 OFFCURVE",
"296 614 CURVE SMOOTH",
"296 1079 OFFCURVE",
"461 1249 OFFCURVE",
"687 1249 CURVE SMOOTH",
"779 1249 OFFCURVE",
"867 1226 OFFCURVE",
"949 1144 CURVE"
);
}
);
width = 1200;
}
);
unicode = 0036;
},
{
glyphname = DigitSeven;
production = seven;
layers = (
{
anchors = (
{
name = L;
position = "{600, -100}";
},
{
name = U;
position = "{600, 1530}";
}
);
layerId = "CEA11641-8665-47E8-AF62-91D5E9FF7384";
paths = (
{
closed = 1;
nodes = (
"443 0 LINE",
"567 438 OFFCURVE",
"762 854 OFFCURVE",
"1044 1240 CURVE",
"1044 1393 LINE",
"100 1393 LINE",
"100 1216 LINE",
"173 1232 OFFCURVE",
"283 1235 OFFCURVE",
"463 1235 CURVE SMOOTH",
"835 1235 LINE",
"588 870 OFFCURVE",
"423 540 OFFCURVE",
"267 0 CURVE"
);
}
);
width = 1200;
},
{
anchors = (
{
name = L;
position = "{600, -100}";
},
{
name = U;
position = "{600, 1530}";
}
);
layerId = "F475B0A9-7A87-46A7-B4AD-E82CB5471E06";
paths = (
{
closed = 1;
nodes = (
"443 0 LINE",
"567 438 OFFCURVE",
"762 854 OFFCURVE",
"1044 1240 CURVE",
"1044 1393 LINE",
"100 1393 LINE",
"100 1216 LINE",
"173 1232 OFFCURVE",
"283 1235 OFFCURVE",
"463 1235 CURVE SMOOTH",
"835 1235 LINE",
"588 870 OFFCURVE",
"423 540 OFFCURVE",
"267 0 CURVE"
);
}
);
width = 1200;
}
);
unicode = 0037;
},
{
glyphname = DigitEight;
production = eight;
layers = (
{
anchors = (
{
name = L;
position = "{600, -100}";
},
{
name = U;
position = "{600, 1530}";
}
);
layerId = "CEA11641-8665-47E8-AF62-91D5E9FF7384";
paths = (
{
closed = 1;
nodes = (
"577 -25 CURVE SMOOTH",
"822 -25 OFFCURVE",
"1063 127 OFFCURVE",
"1063 385 CURVE SMOOTH",
"1063 582 OFFCURVE",
"925 704 OFFCURVE",
"820 757 CURVE",
"894 804 OFFCURVE",
"1006 879 OFFCURVE",
"1006 1053 CURVE SMOOTH",
"1006 1287 OFFCURVE",
"806 1416 OFFCURVE",
"586 1416 CURVE SMOOTH",
"368 1416 OFFCURVE",
"147 1287 OFFCURVE",
"147 1053 CURVE SMOOTH",
"147 879 OFFCURVE",
"264 798 OFFCURVE",
"338 757 CURVE",
"215 691 OFFCURVE",
"90 582 OFFCURVE",
"90 385 CURVE SMOOTH",
"90 127 OFFCURVE",
"332 -25 OFFCURVE"
);
},
{
closed = 1;
nodes = (
"825 1053 CURVE SMOOTH",
"825 904 OFFCURVE",
"713 824 OFFCURVE",
"577 824 CURVE SMOOTH",
"440 824 OFFCURVE",
"329 904 OFFCURVE",
"329 1053 CURVE SMOOTH",
"329 1193 OFFCURVE",
"440 1263 OFFCURVE",
"577 1263 CURVE SMOOTH",
"713 1263 OFFCURVE",
"825 1193 OFFCURVE"
);
},
{
closed = 1;
nodes = (
"872 404 CURVE SMOOTH",
"872 237 OFFCURVE",
"746 137 OFFCURVE",
"577 137 CURVE SMOOTH",
"405 137 OFFCURVE",
"281 237 OFFCURVE",
"281 404 CURVE SMOOTH",
"281 564 OFFCURVE",
"405 676 OFFCURVE",
"577 676 CURVE SMOOTH",
"746 676 OFFCURVE",
"872 564 OFFCURVE"
);
}
);
width = 1200;
},
{
anchors = (
{
name = L;
position = "{600, -100}";
},
{
name = U;
position = "{600, 1530}";
}
);
layerId = "F475B0A9-7A87-46A7-B4AD-E82CB5471E06";
paths = (
{
closed = 1;
nodes = (
"577 -25 CURVE SMOOTH",
"822 -25 OFFCURVE",
"1063 127 OFFCURVE",
"1063 385 CURVE SMOOTH",
"1063 582 OFFCURVE",
"925 704 OFFCURVE",
"820 757 CURVE",
"894 804 OFFCURVE",
"1006 879 OFFCURVE",
"1006 1053 CURVE SMOOTH",
"1006 1287 OFFCURVE",
"806 1416 OFFCURVE",
"586 1416 CURVE SMOOTH",
"368 1416 OFFCURVE",
"147 1287 OFFCURVE",
"147 1053 CURVE SMOOTH",
"147 879 OFFCURVE",
"264 798 OFFCURVE",
"338 757 CURVE",
"215 691 OFFCURVE",
"90 582 OFFCURVE",
"90 385 CURVE SMOOTH",
"90 127 OFFCURVE",
"332 -25 OFFCURVE"
);
},
{
closed = 1;
nodes = (
"825 1053 CURVE SMOOTH",
"825 904 OFFCURVE",
"713 824 OFFCURVE",
"577 824 CURVE SMOOTH",
"440 824 OFFCURVE",
"329 904 OFFCURVE",
"329 1053 CURVE SMOOTH",
"329 1193 OFFCURVE",
"440 1263 OFFCURVE",
"577 1263 CURVE SMOOTH",
"713 1263 OFFCURVE",
"825 1193 OFFCURVE"
);
},
{
closed = 1;
nodes = (
"872 404 CURVE SMOOTH",
"872 237 OFFCURVE",
"746 137 OFFCURVE",
"577 137 CURVE SMOOTH",
"405 137 OFFCURVE",
"281 237 OFFCURVE",
"281 404 CURVE SMOOTH",
"281 564 OFFCURVE",
"405 676 OFFCURVE",
"577 676 CURVE SMOOTH",
"746 676 OFFCURVE",
"872 564 OFFCURVE"
);
}
);
width = 1200;
}
);
unicode = 0038;
},
{
glyphname = DigitNine;
production = nine;
layers = (
{
anchors = (
{
name = L;
position = "{600, -100}";
},
{
name = U;
position = "{600, 1530}";
}
);
layerId = "CEA11641-8665-47E8-AF62-91D5E9FF7384";
paths = (
{
closed = 1;
nodes = (
"189 61 LINE",
"288 -6 OFFCURVE",
"371 -25 OFFCURVE",
"483 -25 CURVE SMOOTH",
"936 -25 OFFCURVE",
"1068 391 OFFCURVE",
"1068 743 CURVE SMOOTH",
"1068 1142 OFFCURVE",
"889 1416 OFFCURVE",
"593 1416 CURVE SMOOTH",
"338 1416 OFFCURVE",
"112 1245 OFFCURVE",
"112 955 CURVE SMOOTH",
"112 736 OFFCURVE",
"273 558 OFFCURVE",
"538 558 CURVE SMOOTH",
"721 558 OFFCURVE",
"885 683 OFFCURVE",
"977 836 CURVE",
"910 916 LINE",
"839 807 OFFCURVE",
"709 724 OFFCURVE",
"561 724 CURVE SMOOTH",
"410 724 OFFCURVE",
"297 819 OFFCURVE",
"297 987 CURVE SMOOTH",
"297 1140 OFFCURVE",
"406 1249 OFFCURVE",
"574 1249 CURVE SMOOTH",
"804 1249 OFFCURVE",
"882 1015 OFFCURVE",
"882 774 CURVE SMOOTH",
"882 310 OFFCURVE",
"719 142 OFFCURVE",
"493 142 CURVE SMOOTH",
"401 142 OFFCURVE",
"313 165 OFFCURVE",
"231 247 CURVE"
);
}
);
width = 1200;
},
{
anchors = (
{
name = L;
position = "{600, -100}";
},
{
name = U;
position = "{600, 1530}";
}
);
layerId = "F475B0A9-7A87-46A7-B4AD-E82CB5471E06";
paths = (
{
closed = 1;
nodes = (
"189 61 LINE",
"288 -6 OFFCURVE",
"371 -25 OFFCURVE",
"483 -25 CURVE SMOOTH",
"936 -25 OFFCURVE",
"1068 391 OFFCURVE",
"1068 743 CURVE SMOOTH",
"1068 1142 OFFCURVE",
"889 1416 OFFCURVE",
"593 1416 CURVE SMOOTH",
"338 1416 OFFCURVE",
"112 1245 OFFCURVE",
"112 955 CURVE SMOOTH",
"112 736 OFFCURVE",
"273 558 OFFCURVE",
"538 558 CURVE SMOOTH",
"721 558 OFFCURVE",
"885 683 OFFCURVE",
"977 836 CURVE",
"910 916 LINE",
"839 807 OFFCURVE",
"709 724 OFFCURVE",
"561 724 CURVE SMOOTH",
"410 724 OFFCURVE",
"297 819 OFFCURVE",
"297 987 CURVE SMOOTH",
"297 1140 OFFCURVE",
"406 1249 OFFCURVE",
"574 1249 CURVE SMOOTH",
"804 1249 OFFCURVE",
"882 1015 OFFCURVE",
"882 774 CURVE SMOOTH",
"882 310 OFFCURVE",
"719 142 OFFCURVE",
"493 142 CURVE SMOOTH",
"401 142 OFFCURVE",
"313 165 OFFCURVE",
"231 247 CURVE"
);
}
);
width = 1200;
}
);
unicode = 0039;
},
{
glyphname = Colon;
production = colon;
layers = (
{
layerId = "CEA11641-8665-47E8-AF62-91D5E9FF7384";
paths = (
{
closed = 1;
nodes = (
"185 753 CURVE SMOOTH",
"185 682 OFFCURVE",
"243 624 OFFCURVE",
"314 624 CURVE SMOOTH",
"384 624 OFFCURVE",
"443 682 OFFCURVE",
"443 753 CURVE SMOOTH",
"443 823 OFFCURVE",
"384 881 OFFCURVE",
"314 881 CURVE SMOOTH",
"243 881 OFFCURVE",
"185 823 OFFCURVE"
);
},
{
closed = 1;
nodes = (
"185 104 CURVE SMOOTH",
"185 33 OFFCURVE",
"243 -25 OFFCURVE",
"314 -25 CURVE SMOOTH",
"384 -25 OFFCURVE",
"443 33 OFFCURVE",
"443 104 CURVE SMOOTH",
"443 174 OFFCURVE",
"384 233 OFFCURVE",
"314 233 CURVE SMOOTH",
"243 233 OFFCURVE",
"185 174 OFFCURVE"
);
}
);
width = 640;
},
{
layerId = "F475B0A9-7A87-46A7-B4AD-E82CB5471E06";
paths = (
{
closed = 1;
nodes = (
"185 753 CURVE SMOOTH",
"185 682 OFFCURVE",
"243 624 OFFCURVE",
"314 624 CURVE SMOOTH",
"384 624 OFFCURVE",
"443 682 OFFCURVE",
"443 753 CURVE SMOOTH",
"443 823 OFFCURVE",
"384 881 OFFCURVE",
"314 881 CURVE SMOOTH",
"243 881 OFFCURVE",
"185 823 OFFCURVE"
);
},
{
closed = 1;
nodes = (
"185 104 CURVE SMOOTH",
"185 33 OFFCURVE",
"243 -25 OFFCURVE",
"314 -25 CURVE SMOOTH",
"384 -25 OFFCURVE",
"443 33 OFFCURVE",
"443 104 CURVE SMOOTH",
"443 174 OFFCURVE",
"384 233 OFFCURVE",
"314 233 CURVE SMOOTH",
"243 233 OFFCURVE",
"185 174 OFFCURVE"
);
}
);
width = 640;
}
);
unicode = 003A;
},
{
glyphname = Semicolon;
production = semicolon;
layers = (
{
layerId = "CEA11641-8665-47E8-AF62-91D5E9FF7384";
paths = (
{
closed = 1;
nodes = (
"185 741 CURVE SMOOTH",
"185 671 OFFCURVE",
"243 612 OFFCURVE",
"314 612 CURVE SMOOTH",
"384 612 OFFCURVE",
"443 671 OFFCURVE",
"443 741 CURVE SMOOTH",
"443 812 OFFCURVE",
"384 870 OFFCURVE",
"314 870 CURVE SMOOTH",
"243 870 OFFCURVE",
"185 812 OFFCURVE"
);
},
{
closed = 1;
nodes = (
"185 35 LINE",
"319 35 LINE",
"319 -61 OFFCURVE",
"245 -177 OFFCURVE",
"190 -232 CURVE",
"285 -270 LINE",
"397 -165 OFFCURVE",
"452 -48 OFFCURVE",
"452 69 CURVE SMOOTH",
"452 165 OFFCURVE",
"390 226 OFFCURVE",
"314 226 CURVE SMOOTH",
"259 226 OFFCURVE",
"197 191 OFFCURVE",
"185 131 CURVE"
);
}
);
width = 650;
},
{
layerId = "F475B0A9-7A87-46A7-B4AD-E82CB5471E06";
paths = (
{
closed = 1;
nodes = (
"185 741 CURVE SMOOTH",
"185 671 OFFCURVE",
"243 612 OFFCURVE",
"314 612 CURVE SMOOTH",
"384 612 OFFCURVE",
"443 671 OFFCURVE",
"443 741 CURVE SMOOTH",
"443 812 OFFCURVE",
"384 870 OFFCURVE",
"314 870 CURVE SMOOTH",
"243 870 OFFCURVE",
"185 812 OFFCURVE"
);
},
{
closed = 1;
nodes = (
"185 35 LINE",
"319 35 LINE",
"319 -61 OFFCURVE",
"245 -177 OFFCURVE",
"190 -232 CURVE",
"285 -270 LINE",
"397 -165 OFFCURVE",
"452 -48 OFFCURVE",
"452 69 CURVE SMOOTH",
"452 165 OFFCURVE",
"390 226 OFFCURVE",
"314 226 CURVE SMOOTH",
"259 226 OFFCURVE",
"197 191 OFFCURVE",
"185 131 CURVE"
);
}
);
width = 650;
}
);
unicode = 003B;
},
{
glyphname = LTSgn;
production = less;
layers = (
{
layerId = "CEA11641-8665-47E8-AF62-91D5E9FF7384";
paths = (
{
closed = 1;
nodes = (
"1035 417 LINE",
"281 708 LINE",
"1035 999 LINE",
"1035 1170 LINE",
"100 789 LINE",
"100 627 LINE",
"1035 245 LINE"
);
}
);
width = 1200;
},
{
layerId = "F475B0A9-7A87-46A7-B4AD-E82CB5471E06";
paths = (
{
closed = 1;
nodes = (
"1035 417 LINE",
"281 708 LINE",
"1035 999 LINE",
"1035 1170 LINE",
"100 789 LINE",
"100 627 LINE",
"1035 245 LINE"
);
}
);
width = 1200;
}
);
unicode = 003C;
},
{
glyphname = EqSgn;
production = equal;
layers = (
{
layerId = "CEA11641-8665-47E8-AF62-91D5E9FF7384";
paths = (
{
closed = 1;
nodes = (
"120 480 LINE",
"1036 480 LINE",
"1036 623 LINE",
"120 623 LINE"
);
},
{
closed = 1;
nodes = (
"120 814 LINE",
"1036 814 LINE",
"1036 957 LINE",
"120 957 LINE"
);
}
);
width = 1200;
},
{
layerId = "F475B0A9-7A87-46A7-B4AD-E82CB5471E06";
paths = (
{
closed = 1;
nodes = (
"120 480 LINE",
"1036 480 LINE",
"1036 623 LINE",
"120 623 LINE"
);
},
{
closed = 1;
nodes = (
"120 814 LINE",
"1036 814 LINE",
"1036 957 LINE",
"120 957 LINE"
);
}
);
width = 1200;
}
);
unicode = 003D;
},
{
glyphname = GTSgn;
production = greater;
layers = (
{
layerId = "CEA11641-8665-47E8-AF62-91D5E9FF7384";
paths = (
{
closed = 1;
nodes = (
"120 999 LINE",
"874 708 LINE",
"120 417 LINE",
"120 245 LINE",
"1055 627 LINE",
"1055 789 LINE",
"120 1170 LINE"
);
}
);
width = 1200;
},
{
layerId = "F475B0A9-7A87-46A7-B4AD-E82CB5471E06";
paths = (
{
closed = 1;
nodes = (
"120 999 LINE",
"874 708 LINE",
"120 417 LINE",
"120 245 LINE",
"1055 627 LINE",
"1055 789 LINE",
"120 1170 LINE"
);
}
);
width = 1200;
}
);
unicode = 003E;
},
{
glyphname = QstnMrk;
production = question;
layers = (
{
layerId = "CEA11641-8665-47E8-AF62-91D5E9FF7384";
paths = (
{
closed = 1;
nodes = (
"445 1468 CURVE SMOOTH",
"326 1468 OFFCURVE",
"203 1423 OFFCURVE",
"140 1363 CURVE",
"183 1192 LINE",
"255 1268 OFFCURVE",
"342 1301 OFFCURVE",
"419 1301 CURVE SMOOTH",
"559 1301 OFFCURVE",
"603 1229 OFFCURVE",
"603 1172 CURVE SMOOTH",
"603 1105 OFFCURVE",
"552 1041 OFFCURVE",
"469 934 CURVE SMOOTH",
"385 826 OFFCURVE",
"345 695 OFFCURVE",
"345 419 CURVE",
"522 419 LINE",
"522 687 OFFCURVE",
"542 768 OFFCURVE",
"641 883 CURVE SMOOTH",
"725 980 OFFCURVE",
"798 1064 OFFCURVE",
"798 1182 CURVE SMOOTH",
"798 1355 OFFCURVE",
"671 1468 OFFCURVE"
);
},
{
closed = 1;
nodes = (
"307 104 CURVE SMOOTH",
"307 33 OFFCURVE",
"365 -25 OFFCURVE",
"436 -25 CURVE SMOOTH",
"506 -25 OFFCURVE",
"565 33 OFFCURVE",
"565 104 CURVE SMOOTH",
"565 174 OFFCURVE",
"506 233 OFFCURVE",
"436 233 CURVE SMOOTH",
"365 233 OFFCURVE",
"307 174 OFFCURVE"
);
}
);
width = 1050;
},
{
layerId = "F475B0A9-7A87-46A7-B4AD-E82CB5471E06";
paths = (
{
closed = 1;
nodes = (
"445 1468 CURVE SMOOTH",
"326 1468 OFFCURVE",
"203 1423 OFFCURVE",
"140 1363 CURVE",
"183 1192 LINE",
"255 1268 OFFCURVE",
"342 1301 OFFCURVE",
"419 1301 CURVE SMOOTH",
"559 1301 OFFCURVE",
"603 1229 OFFCURVE",
"603 1172 CURVE SMOOTH",
"603 1105 OFFCURVE",
"552 1041 OFFCURVE",
"469 934 CURVE SMOOTH",
"385 826 OFFCURVE",
"345 695 OFFCURVE",
"345 419 CURVE",
"522 419 LINE",
"522 687 OFFCURVE",
"542 768 OFFCURVE",
"641 883 CURVE SMOOTH",
"725 980 OFFCURVE",
"798 1064 OFFCURVE",
"798 1182 CURVE SMOOTH",
"798 1355 OFFCURVE",
"671 1468 OFFCURVE"
);
},
{
closed = 1;
nodes = (
"307 104 CURVE SMOOTH",
"307 33 OFFCURVE",
"365 -25 OFFCURVE",
"436 -25 CURVE SMOOTH",
"506 -25 OFFCURVE",
"565 33 OFFCURVE",
"565 104 CURVE SMOOTH",
"565 174 OFFCURVE",
"506 233 OFFCURVE",
"436 233 CURVE SMOOTH",
"365 233 OFFCURVE",
"307 174 OFFCURVE"
);
}
);
width = 1050;
}
);
unicode = 003F;
},
{
glyphname = AtSgn;
production = at;
layers = (
{
layerId = "CEA11641-8665-47E8-AF62-91D5E9FF7384";
paths = (
{
closed = 1;
nodes = (
"1536 657 CURVE SMOOTH",
"1536 1064 OFFCURVE",
"1251 1330 OFFCURVE",
"844 1330 CURVE SMOOTH",
"448 1330 OFFCURVE",
"95 1063 OFFCURVE",
"95 538 CURVE SMOOTH",
"95 35 OFFCURVE",
"447 -235 OFFCURVE",
"820 -235 CURVE SMOOTH",
"949 -235 OFFCURVE",
"1101 -190 OFFCURVE",
"1197 -123 CURVE",
"1097 -20 LINE",
"1014 -78 OFFCURVE",
"923 -101 OFFCURVE",
"834 -101 CURVE SMOOTH",
"503 -101 OFFCURVE",
"233 155 OFFCURVE",
"233 566 CURVE SMOOTH",
"233 946 OFFCURVE",
"521 1201 OFFCURVE",
"834 1201 CURVE SMOOTH",
"1209 1201 OFFCURVE",
"1402 945 OFFCURVE",
"1402 628 CURVE SMOOTH",
"1402 401 OFFCURVE",
"1290 290 OFFCURVE",
"1225 290 CURVE SMOOTH",
"1169 290 OFFCURVE",
"1125 380 OFFCURVE",
"1125 590 CURVE SMOOTH",
"1125 924 LINE",
"1042 958 OFFCURVE",
"921 981 OFFCURVE",
"844 981 CURVE SMOOTH",
"687 981 OFFCURVE",
"589 916 OFFCURVE",
"510 786 CURVE SMOOTH",
"465 710 OFFCURVE",
"438 612 OFFCURVE",
"438 495 CURVE SMOOTH",
"438 270 OFFCURVE",
"578 164 OFFCURVE",
"706 164 CURVE SMOOTH",
"817 164 OFFCURVE",
"947 338 OFFCURVE",
"997 457 CURVE",
"1006 296 OFFCURVE",
"1080 161 OFFCURVE",
"1197 161 CURVE SMOOTH",
"1364 161 OFFCURVE",
"1536 340 OFFCURVE"
);
},
{
closed = 1;
nodes = (
"815 853 CURVE SMOOTH",
"886 853 OFFCURVE",
"951 834 OFFCURVE",
"982 819 CURVE",
"982 676 LINE",
"952 544 OFFCURVE",
"804 294 OFFCURVE",
"718 294 CURVE SMOOTH",
"649 294 OFFCURVE",
"582 369 OFFCURVE",
"582 538 CURVE SMOOTH",
"582 611 OFFCURVE",
"597 687 OFFCURVE",
"624 733 CURVE SMOOTH",
"678 825 OFFCURVE",
"750 853 OFFCURVE"
);
}
);
width = 1702;
},
{
layerId = "F475B0A9-7A87-46A7-B4AD-E82CB5471E06";
paths = (
{
closed = 1;
nodes = (
"1536 657 CURVE SMOOTH",
"1536 1064 OFFCURVE",
"1251 1330 OFFCURVE",
"844 1330 CURVE SMOOTH",
"448 1330 OFFCURVE",
"95 1063 OFFCURVE",
"95 538 CURVE SMOOTH",
"95 35 OFFCURVE",
"447 -235 OFFCURVE",
"820 -235 CURVE SMOOTH",
"949 -235 OFFCURVE",
"1101 -190 OFFCURVE",
"1197 -123 CURVE",
"1097 -20 LINE",
"1014 -78 OFFCURVE",
"923 -101 OFFCURVE",
"834 -101 CURVE SMOOTH",
"503 -101 OFFCURVE",
"233 155 OFFCURVE",
"233 566 CURVE SMOOTH",
"233 946 OFFCURVE",
"521 1201 OFFCURVE",
"834 1201 CURVE SMOOTH",
"1209 1201 OFFCURVE",
"1402 945 OFFCURVE",
"1402 628 CURVE SMOOTH",
"1402 401 OFFCURVE",
"1290 290 OFFCURVE",
"1225 290 CURVE SMOOTH",
"1169 290 OFFCURVE",
"1125 380 OFFCURVE",
"1125 590 CURVE SMOOTH",
"1125 924 LINE",
"1042 958 OFFCURVE",
"921 981 OFFCURVE",
"844 981 CURVE SMOOTH",
"687 981 OFFCURVE",
"589 916 OFFCURVE",
"510 786 CURVE SMOOTH",
"465 710 OFFCURVE",
"438 612 OFFCURVE",
"438 495 CURVE SMOOTH",
"438 270 OFFCURVE",
"578 164 OFFCURVE",
"706 164 CURVE SMOOTH",
"817 164 OFFCURVE",
"947 338 OFFCURVE",
"997 457 CURVE",
"1006 296 OFFCURVE",
"1080 161 OFFCURVE",
"1197 161 CURVE SMOOTH",
"1364 161 OFFCURVE",
"1536 340 OFFCURVE"
);
},
{
closed = 1;
nodes = (
"815 853 CURVE SMOOTH",
"886 853 OFFCURVE",
"951 834 OFFCURVE",
"982 819 CURVE",
"982 676 LINE",
"952 544 OFFCURVE",
"804 294 OFFCURVE",
"718 294 CURVE SMOOTH",
"649 294 OFFCURVE",
"582 369 OFFCURVE",
"582 538 CURVE SMOOTH",
"582 611 OFFCURVE",
"597 687 OFFCURVE",
"624 733 CURVE SMOOTH",
"678 825 OFFCURVE",
"750 853 OFFCURVE"
);
}
);
width = 1702;
}
);
unicode = 0040;
},
{
glyphname = LtnCapA;
production = A;
layers = (
{
anchors = (
{
name = H;
position = "{1230, 0}";
},
{
name = L;
position = "{687, -100}";
},
{
name = O;
position = "{1450, 0}";
},
{
name = U;
position = "{687, 1530}";
}
);
layerId = "CEA11641-8665-47E8-AF62-91D5E9FF7384";
paths = (
{
closed = 1;
nodes = (
"236 0 LINE",
"363 367 LINE",
"950 367 LINE",
"1080 0 LINE",
"1275 0 LINE",
"1242 76 OFFCURVE",
"1206 161 OFFCURVE",
"1142 339 CURVE SMOOTH",
"760 1393 LINE",
"555 1393 LINE",
"174 339 LINE SMOOTH",
"109 160 OFFCURVE",
"74 77 OFFCURVE",
"40 0 CURVE"
);
},
{
closed = 1;
nodes = (
"899 515 LINE",
"415 515 LINE",
"655 1207 LINE"
);
}
);
width = 1395;
},
{
anchors = (
{
name = H;
position = "{1230, 0}";
},
{
name = L;
position = "{687, -100}";
},
{
name = O;
position = "{1450, 0}";
},
{
name = U;
position = "{687, 1530}";
}
);
layerId = "F475B0A9-7A87-46A7-B4AD-E82CB5471E06";
paths = (
{
closed = 1;
nodes = (
"236 0 LINE",
"363 367 LINE",
"950 367 LINE",
"1080 0 LINE",
"1275 0 LINE",
"1242 76 OFFCURVE",
"1206 161 OFFCURVE",
"1142 339 CURVE SMOOTH",
"760 1393 LINE",
"555 1393 LINE",
"174 339 LINE SMOOTH",
"109 160 OFFCURVE",
"74 77 OFFCURVE",
"40 0 CURVE"
);
},
{
closed = 1;
nodes = (
"899 515 LINE",
"415 515 LINE",
"655 1207 LINE"
);
}
);
width = 1395;
}
);
unicode = 0041;
},
{
glyphname = LtnCapB;
production = B;
layers = (
{
anchors = (
{
name = L;
position = "{615, -100}";
},
{
name = U;
position = "{615, 1530}";
}
);
layerId = "CEA11641-8665-47E8-AF62-91D5E9FF7384";
paths = (
{
closed = 1;
nodes = (
"356 1249 LINE",
"396 1251 OFFCURVE",
"496 1254 OFFCURVE",
"570 1254 CURVE SMOOTH",
"762 1254 OFFCURVE",
"837 1182 OFFCURVE",
"837 1039 CURVE SMOOTH",
"837 907 OFFCURVE",
"746 815 OFFCURVE",
"542 815 CURVE SMOOTH",
"356 815 LINE"
);
},
{
closed = 1;
nodes = (
"174 434 LINE",
"174 245 OFFCURVE",
"174 76 OFFCURVE",
"160 0 CURVE",
"211 -5 OFFCURVE",
"391 -10 OFFCURVE",
"585 -10 CURVE SMOOTH",
"950 -10 OFFCURVE",
"1095 168 OFFCURVE",
"1095 400 CURVE SMOOTH",
"1095 638 OFFCURVE",
"937 724 OFFCURVE",
"790 763 CURVE",
"919 812 OFFCURVE",
"1023 908 OFFCURVE",
"1023 1068 CURVE SMOOTH",
"1023 1317 OFFCURVE",
"863 1402 OFFCURVE",
"580 1402 CURVE SMOOTH",
"419 1402 OFFCURVE",
"244 1398 OFFCURVE",
"160 1392 CURVE",
"174 1316 OFFCURVE",
"174 1141 OFFCURVE",
"174 954 CURVE SMOOTH"
);
},
{
closed = 1;
nodes = (
"356 667 LINE",
"580 667 LINE SMOOTH",
"802 667 OFFCURVE",
"909 576 OFFCURVE",
"909 400 CURVE SMOOTH",
"909 202 OFFCURVE",
"752 143 OFFCURVE",
"589 143 CURVE SMOOTH",
"482 143 OFFCURVE",
"391 146 OFFCURVE",
"356 147 CURVE"
);
}
);
width = 1285;
},
{
anchors = (
{
name = L;
position = "{615, -100}";
},
{
name = U;
position = "{615, 1530}";
}
);
layerId = "F475B0A9-7A87-46A7-B4AD-E82CB5471E06";
paths = (
{
closed = 1;
nodes = (
"356 1249 LINE",
"396 1251 OFFCURVE",
"496 1254 OFFCURVE",
"570 1254 CURVE SMOOTH",
"762 1254 OFFCURVE",
"837 1182 OFFCURVE",
"837 1039 CURVE SMOOTH",
"837 907 OFFCURVE",
"746 815 OFFCURVE",
"542 815 CURVE SMOOTH",
"356 815 LINE"
);
},
{
closed = 1;
nodes = (
"174 434 LINE",
"174 245 OFFCURVE",
"174 76 OFFCURVE",
"160 0 CURVE",
"211 -5 OFFCURVE",
"391 -10 OFFCURVE",
"585 -10 CURVE SMOOTH",
"950 -10 OFFCURVE",
"1095 168 OFFCURVE",
"1095 400 CURVE SMOOTH",
"1095 638 OFFCURVE",
"937 724 OFFCURVE",
"790 763 CURVE",
"919 812 OFFCURVE",
"1023 908 OFFCURVE",
"1023 1068 CURVE SMOOTH",
"1023 1317 OFFCURVE",
"863 1402 OFFCURVE",
"580 1402 CURVE SMOOTH",
"419 1402 OFFCURVE",
"244 1398 OFFCURVE",
"160 1392 CURVE",
"174 1316 OFFCURVE",
"174 1141 OFFCURVE",
"174 954 CURVE SMOOTH"
);
},
{
closed = 1;
nodes = (
"356 667 LINE",
"580 667 LINE SMOOTH",
"802 667 OFFCURVE",
"909 576 OFFCURVE",
"909 400 CURVE SMOOTH",
"909 202 OFFCURVE",
"752 143 OFFCURVE",
"589 143 CURVE SMOOTH",
"482 143 OFFCURVE",
"391 146 OFFCURVE",
"356 147 CURVE"
);
}
);
width = 1285;
}
);
unicode = 0042;
},
{
glyphname = LtnCapC;
production = C;
layers = (
{
anchors = (
{
name = H;
position = "{750, 0}";
},
{
name = L;
position = "{750, -100}";
},
{
name = U;
position = "{750, 1530}";
}
);
layerId = "CEA11641-8665-47E8-AF62-91D5E9FF7384";
paths = (
{
closed = 1;
nodes = (
"1140 318 LINE",
"1033 212 OFFCURVE",
"874 142 OFFCURVE",
"729 142 CURVE SMOOTH",
"471 142 OFFCURVE",
"281 358 OFFCURVE",
"281 700 CURVE SMOOTH",
"281 1066 OFFCURVE",
"473 1253 OFFCURVE",
"739 1253 CURVE SMOOTH",
"854 1253 OFFCURVE",
"987 1218 OFFCURVE",
"1106 1110 CURVE",
"1163 1282 LINE",
"1027 1384 OFFCURVE",
"875 1416 OFFCURVE",
"739 1416 CURVE SMOOTH",
"403 1416 OFFCURVE",
"95 1168 OFFCURVE",
"95 676 CURVE SMOOTH",
"95 247 OFFCURVE",
"334 -25 OFFCURVE",
"720 -25 CURVE SMOOTH",
"865 -25 OFFCURVE",
"1067 29 OFFCURVE",
"1178 132 CURVE"
);
}
);
width = 1355;
},
{
anchors = (
{
name = H;
position = "{750, 0}";
},
{
name = L;
position = "{750, -100}";
},
{
name = U;
position = "{750, 1530}";
}
);
layerId = "F475B0A9-7A87-46A7-B4AD-E82CB5471E06";
paths = (
{
closed = 1;
nodes = (
"1140 318 LINE",
"1033 212 OFFCURVE",
"874 142 OFFCURVE",
"729 142 CURVE SMOOTH",
"471 142 OFFCURVE",
"281 358 OFFCURVE",
"281 700 CURVE SMOOTH",
"281 1066 OFFCURVE",
"473 1253 OFFCURVE",
"739 1253 CURVE SMOOTH",
"854 1253 OFFCURVE",
"987 1218 OFFCURVE",
"1106 1110 CURVE",
"1163 1282 LINE",
"1027 1384 OFFCURVE",
"875 1416 OFFCURVE",
"739 1416 CURVE SMOOTH",
"403 1416 OFFCURVE",
"95 1168 OFFCURVE",
"95 676 CURVE SMOOTH",
"95 247 OFFCURVE",
"334 -25 OFFCURVE",
"720 -25 CURVE SMOOTH",
"865 -25 OFFCURVE",
"1067 29 OFFCURVE",
"1178 132 CURVE"
);
}
);
width = 1355;
}
);
unicode = 0043;
},
{
glyphname = LtnCapD;
production = D;
layers = (
{
anchors = (
{
name = L;
position = "{715, -100}";
},
{
name = U;
position = "{715, 1530}";
}
);
layerId = "CEA11641-8665-47E8-AF62-91D5E9FF7384";
paths = (
{
closed = 1;
nodes = (
"174 434 LINE",
"173 245 OFFCURVE",
"174 76 OFFCURVE",
"160 0 CURVE",
"160 0 OFFCURVE",
"453 -10 OFFCURVE",
"575 -10 CURVE SMOOTH",
"855 -10 OFFCURVE",
"1262 138 OFFCURVE",
"1262 706 CURVE SMOOTH",
"1262 1329 OFFCURVE",
"798 1402 OFFCURVE",
"594 1402 CURVE SMOOTH",
"465 1402 OFFCURVE",
"241 1398 OFFCURVE",
"160 1392 CURVE",
"174 1316 OFFCURVE",
"174 1141 OFFCURVE",
"174 954 CURVE SMOOTH"
);
},
{
closed = 1;
nodes = (
"356 1245 LINE",
"403 1246 OFFCURVE",
"507 1249 OFFCURVE",
"570 1249 CURVE SMOOTH",
"845 1249 OFFCURVE",
"1076 1113 OFFCURVE",
"1076 686 CURVE SMOOTH",
"1076 293 OFFCURVE",
"821 147 OFFCURVE",
"565 147 CURVE SMOOTH",
"475 147 OFFCURVE",
"400 153 OFFCURVE",
"356 157 CURVE"
);
}
);
width = 1435;
},
{
anchors = (
{
name = L;
position = "{715, -100}";
},
{
name = U;
position = "{715, 1530}";
}
);
layerId = "F475B0A9-7A87-46A7-B4AD-E82CB5471E06";
paths = (
{
closed = 1;
nodes = (
"174 434 LINE",
"173 245 OFFCURVE",
"174 76 OFFCURVE",
"160 0 CURVE",
"160 0 OFFCURVE",
"453 -10 OFFCURVE",
"575 -10 CURVE SMOOTH",
"855 -10 OFFCURVE",
"1262 138 OFFCURVE",
"1262 706 CURVE SMOOTH",
"1262 1329 OFFCURVE",
"798 1402 OFFCURVE",
"594 1402 CURVE SMOOTH",
"465 1402 OFFCURVE",
"241 1398 OFFCURVE",
"160 1392 CURVE",
"174 1316 OFFCURVE",
"174 1141 OFFCURVE",
"174 954 CURVE SMOOTH"
);
},
{
closed = 1;
nodes = (
"356 1245 LINE",
"403 1246 OFFCURVE",
"507 1249 OFFCURVE",
"570 1249 CURVE SMOOTH",
"845 1249 OFFCURVE",
"1076 1113 OFFCURVE",
"1076 686 CURVE SMOOTH",
"1076 293 OFFCURVE",
"821 147 OFFCURVE",
"565 147 CURVE SMOOTH",
"475 147 OFFCURVE",
"400 153 OFFCURVE",
"356 157 CURVE"
);
}
);
width = 1435;
}
);
unicode = 0044;
},
{
glyphname = LtnCapE;
production = E;
layers = (
{
anchors = (
{
name = H;
position = "{600, 0}";
},
{
name = L;
position = "{600, -100}";
},
{
name = O;
position = "{917, 0}";
},
{
name = R;
position = "{1160, 1200}";
},
{
name = U;
position = "{600, 1530}";
}
);
layerId = "CEA11641-8665-47E8-AF62-91D5E9FF7384";
paths = (
{
closed = 1;
nodes = (
"356 806 LINE",
"356 1235 LINE",
"971 1235 LINE",
"971 1393 LINE",
"160 1393 LINE",
"174 1317 OFFCURVE",
"174 1166 OFFCURVE",
"174 978 CURVE SMOOTH",
"174 415 LINE SMOOTH",
"174 227 OFFCURVE",
"174 76 OFFCURVE",
"160 0 CURVE",
"1000 0 LINE",
"1000 172 LINE",
"923 158 OFFCURVE",
"795 157 OFFCURVE",
"607 157 CURVE SMOOTH",
"356 157 LINE",
"356 653 LINE",
"899 653 LINE",
"899 806 LINE"
);
}
);
width = 1160;
},
{
anchors = (
{
name = H;
position = "{600, 0}";
},
{
name = L;
position = "{600, -100}";
},
{
name = O;
position = "{917, 0}";
},
{
name = R;
position = "{1160, 1200}";
},
{
name = U;
position = "{600, 1530}";
}
);
layerId = "F475B0A9-7A87-46A7-B4AD-E82CB5471E06";
paths = (
{
closed = 1;
nodes = (
"356 806 LINE",
"356 1235 LINE",
"971 1235 LINE",
"971 1393 LINE",
"160 1393 LINE",
"174 1317 OFFCURVE",
"174 1166 OFFCURVE",
"174 978 CURVE SMOOTH",
"174 415 LINE SMOOTH",
"174 227 OFFCURVE",
"174 76 OFFCURVE",
"160 0 CURVE",
"1000 0 LINE",
"1000 172 LINE",
"923 158 OFFCURVE",
"795 157 OFFCURVE",
"607 157 CURVE SMOOTH",
"356 157 LINE",
"356 653 LINE",
"899 653 LINE",
"899 806 LINE"
);
}
);
width = 1160;
}
);
unicode = 0045;
},
{
glyphname = LtnCapF;
production = F;
layers = (
{
anchors = (
{
name = L;
position = "{595, -100}";
},
{
name = U;
position = "{595, 1530}";
}
);
layerId = "CEA11641-8665-47E8-AF62-91D5E9FF7384";
paths = (
{
closed = 1;
nodes = (
"356 797 LINE",
"356 1235 LINE",
"990 1235 LINE",
"990 1393 LINE",
"160 1393 LINE",
"174 1317 OFFCURVE",
"174 1161 OFFCURVE",
"174 973 CURVE SMOOTH",
"174 415 LINE SMOOTH",
"174 227 OFFCURVE",
"174 76 OFFCURVE",
"160 0 CURVE",
"370 0 LINE",
"356 74 OFFCURVE",
"356 226 OFFCURVE",
"356 415 CURVE SMOOTH",
"356 644 LINE",
"909 644 LINE",
"909 797 LINE"
);
}
);
width = 1150;
},
{
anchors = (
{
name = L;
position = "{595, -100}";
},
{
name = U;
position = "{595, 1530}";
}
);
layerId = "F475B0A9-7A87-46A7-B4AD-E82CB5471E06";
paths = (
{
closed = 1;
nodes = (
"356 797 LINE",
"356 1235 LINE",
"990 1235 LINE",
"990 1393 LINE",
"160 1393 LINE",
"174 1317 OFFCURVE",
"174 1161 OFFCURVE",
"174 973 CURVE SMOOTH",
"174 415 LINE SMOOTH",
"174 227 OFFCURVE",
"174 76 OFFCURVE",
"160 0 CURVE",
"370 0 LINE",
"356 74 OFFCURVE",
"356 226 OFFCURVE",
"356 415 CURVE SMOOTH",
"356 644 LINE",
"909 644 LINE",
"909 797 LINE"
);
}
);
width = 1150;
}
);
unicode = 0046;
},
{
glyphname = LtnCapG;
production = G;
layers = (
{
anchors = (
{
name = H;
position = "{745, 0}";
},
{
name = L;
position = "{745, -100}";
},
{
name = U;
position = "{745, 1530}";
}
);
layerId = "CEA11641-8665-47E8-AF62-91D5E9FF7384";
paths = (
{
closed = 1;
nodes = (
"1221 710 LINE",
"706 710 LINE",
"706 552 LINE",
"1039 552 LINE",
"1039 233 LINE",
"923 162 OFFCURVE",
"840 142 OFFCURVE",
"727 142 CURVE SMOOTH",
"454 142 OFFCURVE",
"281 359 OFFCURVE",
"281 710 CURVE SMOOTH",
"281 1043 OFFCURVE",
"462 1253 OFFCURVE",
"753 1253 CURVE SMOOTH",
"880 1253 OFFCURVE",
"1002 1226 OFFCURVE",
"1144 1110 CURVE",
"1206 1282 LINE",
"1039 1394 OFFCURVE",
"908 1416 OFFCURVE",
"753 1416 CURVE SMOOTH",
"388 1416 OFFCURVE",
"95 1143 OFFCURVE",
"95 686 CURVE SMOOTH",
"95 229 OFFCURVE",
"354 -25 OFFCURVE",
"715 -25 CURVE SMOOTH",
"880 -25 OFFCURVE",
"1025 9 OFFCURVE",
"1221 147 CURVE"
);
}
);
width = 1420;
},
{
anchors = (
{
name = H;
position = "{745, 0}";
},
{
name = L;
position = "{745, -100}";
},
{
name = U;
position = "{745, 1530}";
}
);
layerId = "F475B0A9-7A87-46A7-B4AD-E82CB5471E06";
paths = (
{
closed = 1;
nodes = (
"1221 710 LINE",
"706 710 LINE",
"706 552 LINE",
"1039 552 LINE",
"1039 233 LINE",
"923 162 OFFCURVE",
"840 142 OFFCURVE",
"727 142 CURVE SMOOTH",
"454 142 OFFCURVE",
"281 359 OFFCURVE",
"281 710 CURVE SMOOTH",
"281 1043 OFFCURVE",
"462 1253 OFFCURVE",
"753 1253 CURVE SMOOTH",
"880 1253 OFFCURVE",
"1002 1226 OFFCURVE",
"1144 1110 CURVE",
"1206 1282 LINE",
"1039 1394 OFFCURVE",
"908 1416 OFFCURVE",
"753 1416 CURVE SMOOTH",
"388 1416 OFFCURVE",
"95 1143 OFFCURVE",
"95 686 CURVE SMOOTH",
"95 229 OFFCURVE",
"354 -25 OFFCURVE",
"715 -25 CURVE SMOOTH",
"880 -25 OFFCURVE",
"1025 9 OFFCURVE",
"1221 147 CURVE"
);
}
);
width = 1420;
}
);
unicode = 0047;
},
{
glyphname = LtnCapH;
production = H;
layers = (
{
anchors = (
{
name = H;
position = "{285, 0}";
},
{
name = L;
position = "{725, -100}";
},
{
name = U;
position = "{725, 1530}";
}
);
layerId = "CEA11641-8665-47E8-AF62-91D5E9FF7384";
paths = (
{
closed = 1;
nodes = (
"1238 0 LINE",
"1224 76 OFFCURVE",
"1224 227 OFFCURVE",
"1224 415 CURVE SMOOTH",
"1224 978 LINE SMOOTH",
"1224 1166 OFFCURVE",
"1224 1317 OFFCURVE",
"1238 1393 CURVE",
"1042 1393 LINE",
"1042 797 LINE",
"356 797 LINE",
"356 1393 LINE",
"160 1393 LINE",
"174 1317 OFFCURVE",
"174 1166 OFFCURVE",
"174 978 CURVE SMOOTH",
"174 415 LINE SMOOTH",
"174 227 OFFCURVE",
"174 76 OFFCURVE",
"160 0 CURVE",
"356 0 LINE",
"356 644 LINE",
"1042 644 LINE",
"1042 0 LINE"
);
}
);
width = 1475;
},
{
anchors = (
{
name = H;
position = "{285, 0}";
},
{
name = L;
position = "{725, -100}";
},
{
name = U;
position = "{725, 1530}";
}
);
layerId = "F475B0A9-7A87-46A7-B4AD-E82CB5471E06";
paths = (
{
closed = 1;
nodes = (
"1238 0 LINE",
"1224 76 OFFCURVE",
"1224 227 OFFCURVE",
"1224 415 CURVE SMOOTH",
"1224 978 LINE SMOOTH",
"1224 1166 OFFCURVE",
"1224 1317 OFFCURVE",
"1238 1393 CURVE",
"1042 1393 LINE",
"1042 797 LINE",
"356 797 LINE",
"356 1393 LINE",
"160 1393 LINE",
"174 1317 OFFCURVE",
"174 1166 OFFCURVE",
"174 978 CURVE SMOOTH",
"174 415 LINE SMOOTH",
"174 227 OFFCURVE",
"174 76 OFFCURVE",
"160 0 CURVE",
"356 0 LINE",
"356 644 LINE",
"1042 644 LINE",
"1042 0 LINE"
);
}
);
width = 1475;
}
);
unicode = 0048;
},
{
glyphname = LtnCapI;
production = I;
layers = (
{
anchors = (
{
name = H;
position = "{477, 0}";
},
{
name = L;
position = "{477, -100}";
},
{
name = O;
position = "{673, 0}";
},
{
name = R;
position = "{975, 1200}";
},
{
name = U;
position = "{477, 1530}";
}
);
layerId = "CEA11641-8665-47E8-AF62-91D5E9FF7384";
paths = (
{
closed = 1;
nodes = (
"140 1393 LINE",
"140 1255 LINE",
"369 1255 LINE",
"369 138 LINE",
"140 138 LINE",
"140 0 LINE",
"784 0 LINE",
"784 138 LINE",
"550 138 LINE",
"550 1255 LINE",
"784 1255 LINE",
"784 1393 LINE"
);
}
);
width = 975;
},
{
anchors = (
{
name = H;
position = "{477, 0}";
},
{
name = L;
position = "{477, -100}";
},
{
name = O;
position = "{673, 0}";
},
{
name = R;
position = "{975, 1200}";
},
{
name = U;
position = "{477, 1530}";
}
);
layerId = "F475B0A9-7A87-46A7-B4AD-E82CB5471E06";
paths = (
{
closed = 1;
nodes = (
"140 1393 LINE",
"140 1255 LINE",
"369 1255 LINE",
"369 138 LINE",
"140 138 LINE",
"140 0 LINE",
"784 0 LINE",
"784 138 LINE",
"550 138 LINE",
"550 1255 LINE",
"784 1255 LINE",
"784 1393 LINE"
);
}
);
width = 975;
}
);
unicode = 0049;
},
{
glyphname = LtnCapJ;
production = J;
layers = (
{
anchors = (
{
name = L;
position = "{410, -100}";
},
{
name = U;
position = "{675, 1530}";
}
);
layerId = "CEA11641-8665-47E8-AF62-91D5E9FF7384";
paths = (
{
closed = 1;
nodes = (
"550 1392 LINE",
"563 1291 OFFCURVE",
"564 1120 OFFCURVE",
"564 934 CURVE",
"564 462 LINE SMOOTH",
"564 243 OFFCURVE",
"466 147 OFFCURVE",
"326 147 CURVE SMOOTH",
"238 147 OFFCURVE",
"142 188 OFFCURVE",
"78 261 CURVE",
"35 85 LINE",
"103 7 OFFCURVE",
"240 -25 OFFCURVE",
"331 -25 CURVE SMOOTH",
"576 -25 OFFCURVE",
"746 112 OFFCURVE",
"746 509 CURVE SMOOTH",
"746 1392 LINE"
);
}
);
width = 965;
},
{
anchors = (
{
name = L;
position = "{410, -100}";
},
{
name = U;
position = "{675, 1530}";
}
);
layerId = "F475B0A9-7A87-46A7-B4AD-E82CB5471E06";
paths = (
{
closed = 1;
nodes = (
"550 1392 LINE",
"563 1291 OFFCURVE",
"564 1120 OFFCURVE",
"564 934 CURVE",
"564 462 LINE SMOOTH",
"564 243 OFFCURVE",
"466 147 OFFCURVE",
"326 147 CURVE SMOOTH",
"238 147 OFFCURVE",
"142 188 OFFCURVE",
"78 261 CURVE",
"35 85 LINE",
"103 7 OFFCURVE",
"240 -25 OFFCURVE",
"331 -25 CURVE SMOOTH",
"576 -25 OFFCURVE",
"746 112 OFFCURVE",
"746 509 CURVE SMOOTH",
"746 1392 LINE"
);
}
);
width = 965;
}
);
unicode = 004A;
},
{
glyphname = LtnCapK;
production = K;
layers = (
{
anchors = (
{
name = H;
position = "{270, 0}";
},
{
name = L;
position = "{695, -100}";
},
{
name = U;
position = "{650, 1530}";
}
);
layerId = "CEA11641-8665-47E8-AF62-91D5E9FF7384";
paths = (
{
closed = 1;
nodes = (
"890 1393 LINE",
"289 671 LINE",
"413 711 LINE",
"513 706 LINE",
"1119 1393 LINE"
);
},
{
closed = 1;
nodes = (
"341 701 LINE",
"947 0 LINE",
"1181 0 LINE",
"470 820 LINE"
);
},
{
closed = 1;
nodes = (
"356 1393 LINE",
"160 1393 LINE",
"174 1317 OFFCURVE",
"174 1166 OFFCURVE",
"174 978 CURVE SMOOTH",
"174 415 LINE SMOOTH",
"174 227 OFFCURVE",
"174 76 OFFCURVE",
"160 0 CURVE",
"356 0 LINE"
);
}
);
width = 1310;
},
{
anchors = (
{
name = H;
position = "{270, 0}";
},
{
name = L;
position = "{695, -100}";
},
{
name = U;
position = "{650, 1530}";
}
);
layerId = "F475B0A9-7A87-46A7-B4AD-E82CB5471E06";
paths = (
{
closed = 1;
nodes = (
"890 1393 LINE",
"289 671 LINE",
"413 711 LINE",
"513 706 LINE",
"1119 1393 LINE"
);
},
{
closed = 1;
nodes = (
"341 701 LINE",
"947 0 LINE",
"1181 0 LINE",
"470 820 LINE"
);
},
{
closed = 1;
nodes = (
"356 1393 LINE",
"160 1393 LINE",
"174 1317 OFFCURVE",
"174 1166 OFFCURVE",
"174 978 CURVE SMOOTH",
"174 415 LINE SMOOTH",
"174 227 OFFCURVE",
"174 76 OFFCURVE",
"160 0 CURVE",
"356 0 LINE"
);
}
);
width = 1310;
}
);
unicode = 004B;
},
{
glyphname = LtnCapL;
production = L;
layers = (
{
anchors = (
{
name = H;
position = "{592, 0}";
},
{
name = L;
position = "{592, -100}";
},
{
name = R;
position = "{540, 1200}";
},
{
name = U;
position = "{592, 1530}";
}
);
layerId = "CEA11641-8665-47E8-AF62-91D5E9FF7384";
paths = (
{
closed = 1;
nodes = (
"356 157 LINE",
"356 1393 LINE",
"160 1393 LINE",
"174 1317 OFFCURVE",
"174 1166 OFFCURVE",
"174 978 CURVE SMOOTH",
"174 415 LINE SMOOTH",
"174 227 OFFCURVE",
"174 76 OFFCURVE",
"160 0 CURVE",
"985 0 LINE",
"985 172 LINE",
"909 158 OFFCURVE",
"757 157 OFFCURVE",
"569 157 CURVE SMOOTH"
);
}
);
width = 1080;
},
{
anchors = (
{
name = H;
position = "{592, 0}";
},
{
name = L;
position = "{592, -100}";
},
{
name = R;
position = "{540, 1200}";
},
{
name = U;
position = "{592, 1530}";
}
);
layerId = "F475B0A9-7A87-46A7-B4AD-E82CB5471E06";
paths = (
{
closed = 1;
nodes = (
"356 157 LINE",
"356 1393 LINE",
"160 1393 LINE",
"174 1317 OFFCURVE",
"174 1166 OFFCURVE",
"174 978 CURVE SMOOTH",
"174 415 LINE SMOOTH",
"174 227 OFFCURVE",
"174 76 OFFCURVE",
"160 0 CURVE",
"985 0 LINE",
"985 172 LINE",
"909 158 OFFCURVE",
"757 157 OFFCURVE",
"569 157 CURVE SMOOTH"
);
}
);
width = 1080;
}
);
unicode = 004C;
},
{
glyphname = LtnCapM;
production = M;
layers = (
{
anchors = (
{
name = L;
position = "{885, -100}";
},
{
name = U;
position = "{885, 1530}";
}
);
layerId = "CEA11641-8665-47E8-AF62-91D5E9FF7384";
paths = (
{
closed = 1;
nodes = (
"852 196 LINE",
"441 1393 LINE",
"279 1393 LINE",
"761 0 LINE",
"947 0 LINE",
"1426 1393 LINE",
"1267 1393 LINE"
);
},
{
closed = 1;
nodes = (
"227 1393 LINE",
"227 1393 OFFCURVE",
"185 189 OFFCURVE",
"160 0 CURVE",
"336 0 LINE",
"367 1150 LINE",
"394 1393 LINE"
);
},
{
closed = 1;
nodes = (
"1543 0 LINE",
"1516 189 OFFCURVE",
"1477 1393 OFFCURVE",
"1477 1393 CURVE",
"1310 1393 LINE",
"1340 1150 LINE",
"1367 0 LINE"
);
}
);
width = 1795;
},
{
anchors = (
{
name = L;
position = "{885, -100}";
},
{
name = U;
position = "{885, 1530}";
}
);
layerId = "F475B0A9-7A87-46A7-B4AD-E82CB5471E06";
paths = (
{
closed = 1;
nodes = (
"852 196 LINE",
"441 1393 LINE",
"279 1393 LINE",
"761 0 LINE",
"947 0 LINE",
"1426 1393 LINE",
"1267 1393 LINE"
);
},
{
closed = 1;
nodes = (
"227 1393 LINE",
"227 1393 OFFCURVE",
"185 189 OFFCURVE",
"160 0 CURVE",
"336 0 LINE",
"367 1150 LINE",
"394 1393 LINE"
);
},
{
closed = 1;
nodes = (
"1543 0 LINE",
"1516 189 OFFCURVE",
"1477 1393 OFFCURVE",
"1477 1393 CURVE",
"1310 1393 LINE",
"1340 1150 LINE",
"1367 0 LINE"
);
}
);
width = 1795;
}
);
unicode = 004D;
},
{
glyphname = LtnCapN;
production = N;
layers = (
{
anchors = (
{
name = H;
position = "{1230, 0}";
},
{
name = L;
position = "{737, -100}";
},
{
name = U;
position = "{737, 1530}";
}
);
layerId = "CEA11641-8665-47E8-AF62-91D5E9FF7384";
paths = (
{
closed = 1;
nodes = (
"198 1293 LINE",
"1090 0 LINE",
"1224 95 LINE",
"332 1393 LINE"
);
},
{
closed = 1;
nodes = (
"1090 0 LINE",
"1248 0 LINE",
"1248 978 LINE SMOOTH",
"1248 1166 OFFCURVE",
"1249 1317 OFFCURVE",
"1262 1393 CURVE",
"1090 1393 LINE"
);
},
{
closed = 1;
nodes = (
"332 1393 LINE",
"160 1393 LINE",
"174 1317 OFFCURVE",
"174 1166 OFFCURVE",
"174 978 CURVE SMOOTH",
"174 415 LINE SMOOTH",
"174 227 OFFCURVE",
"174 76 OFFCURVE",
"160 0 CURVE",
"332 0 LINE"
);
}
);
width = 1500;
},
{
anchors = (
{
name = H;
position = "{1230, 0}";
},
{
name = L;
position = "{737, -100}";
},
{
name = U;
position = "{737, 1530}";
}
);
layerId = "F475B0A9-7A87-46A7-B4AD-E82CB5471E06";
paths = (
{
closed = 1;
nodes = (
"198 1293 LINE",
"1090 0 LINE",
"1224 95 LINE",
"332 1393 LINE"
);
},
{
closed = 1;
nodes = (
"1090 0 LINE",
"1248 0 LINE",
"1248 978 LINE SMOOTH",
"1248 1166 OFFCURVE",
"1249 1317 OFFCURVE",
"1262 1393 CURVE",
"1090 1393 LINE"
);
},
{
closed = 1;
nodes = (
"332 1393 LINE",
"160 1393 LINE",
"174 1317 OFFCURVE",
"174 1166 OFFCURVE",
"174 978 CURVE SMOOTH",
"174 415 LINE SMOOTH",
"174 227 OFFCURVE",
"174 76 OFFCURVE",
"160 0 CURVE",
"332 0 LINE"
);
}
);
width = 1500;
}
);
unicode = 004E;
},
{
glyphname = LtnCapO;
production = O;
layers = (
{
anchors = (
{
name = H;
position = "{717, 0}";
},
{
name = L;
position = "{717, -100}";
},
{
name = O;
position = "{956, 0}";
},
{
name = R;
position = "{1460, 1200}";
},
{
name = U;
position = "{717, 1530}";
}
);
layerId = "CEA11641-8665-47E8-AF62-91D5E9FF7384";
paths = (
{
closed = 1;
nodes = (
"1097 681 CURVE SMOOTH",
"1097 342 OFFCURVE",
"925 142 OFFCURVE",
"691 142 CURVE SMOOTH",
"443 142 OFFCURVE",
"281 361 OFFCURVE",
"281 710 CURVE SMOOTH",
"281 1040 OFFCURVE",
"450 1249 OFFCURVE",
"691 1249 CURVE SMOOTH",
"934 1249 OFFCURVE",
"1097 1033 OFFCURVE"
);
},
{
closed = 1;
nodes = (
"1283 705 CURVE SMOOTH",
"1283 1162 OFFCURVE",
"1004 1416 OFFCURVE",
"701 1416 CURVE SMOOTH",
"393 1416 OFFCURVE",
"95 1143 OFFCURVE",
"95 686 CURVE SMOOTH",
"95 229 OFFCURVE",
"375 -25 OFFCURVE",
"682 -25 CURVE SMOOTH",
"986 -25 OFFCURVE",
"1283 247 OFFCURVE"
);
}
);
width = 1460;
},
{
anchors = (
{
name = H;
position = "{717, 0}";
},
{
name = L;
position = "{717, -100}";
},
{
name = O;
position = "{956, 0}";
},
{
name = R;
position = "{1460, 1200}";
},
{
name = U;
position = "{717, 1530}";
}
);
layerId = "F475B0A9-7A87-46A7-B4AD-E82CB5471E06";
paths = (
{
closed = 1;
nodes = (
"1097 681 CURVE SMOOTH",
"1097 342 OFFCURVE",
"925 142 OFFCURVE",
"691 142 CURVE SMOOTH",
"443 142 OFFCURVE",
"281 361 OFFCURVE",
"281 710 CURVE SMOOTH",
"281 1040 OFFCURVE",
"450 1249 OFFCURVE",
"691 1249 CURVE SMOOTH",
"934 1249 OFFCURVE",
"1097 1033 OFFCURVE"
);
},
{
closed = 1;
nodes = (
"1283 705 CURVE SMOOTH",
"1283 1162 OFFCURVE",
"1004 1416 OFFCURVE",
"701 1416 CURVE SMOOTH",
"393 1416 OFFCURVE",
"95 1143 OFFCURVE",
"95 686 CURVE SMOOTH",
"95 229 OFFCURVE",
"375 -25 OFFCURVE",
"682 -25 CURVE SMOOTH",
"986 -25 OFFCURVE",
"1283 247 OFFCURVE"
);
}
);
width = 1460;
}
);
unicode = 004F;
},
{
glyphname = LtnCapP;
production = P;
layers = (
{
anchors = (
{
name = L;
position = "{637, -100}";
},
{
name = U;
position = "{637, 1530}";
}
);
layerId = "CEA11641-8665-47E8-AF62-91D5E9FF7384";
paths = (
{
closed = 1;
nodes = (
"356 539 LINE",
"418 532 OFFCURVE",
"496 529 OFFCURVE",
"565 529 CURVE SMOOTH",
"879 529 OFFCURVE",
"1071 702 OFFCURVE",
"1071 983 CURVE SMOOTH",
"1071 1261 OFFCURVE",
"874 1402 OFFCURVE",
"565 1402 CURVE SMOOTH",
"362 1402 OFFCURVE",
"160 1393 OFFCURVE",
"160 1393 CURVE",
"174 1317 OFFCURVE",
"174 1141 OFFCURVE",
"174 954 CURVE",
"174 415 LINE SMOOTH",
"174 227 OFFCURVE",
"174 76 OFFCURVE",
"160 0 CURVE",
"370 0 LINE",
"357 74 OFFCURVE",
"356 226 OFFCURVE",
"356 415 CURVE SMOOTH"
);
},
{
closed = 1;
nodes = (
"356 1245 LINE",
"420 1248 OFFCURVE",
"466 1250 OFFCURVE",
"556 1250 CURVE SMOOTH",
"810 1250 OFFCURVE",
"890 1116 OFFCURVE",
"890 964 CURVE SMOOTH",
"890 810 OFFCURVE",
"818 677 OFFCURVE",
"551 677 CURVE SMOOTH",
"480 677 OFFCURVE",
"416 679 OFFCURVE",
"356 687 CURVE"
);
}
);
width = 1195;
},
{
anchors = (
{
name = L;
position = "{637, -100}";
},
{
name = U;
position = "{637, 1530}";
}
);
layerId = "F475B0A9-7A87-46A7-B4AD-E82CB5471E06";
paths = (
{
closed = 1;
nodes = (
"356 539 LINE",
"418 532 OFFCURVE",
"496 529 OFFCURVE",
"565 529 CURVE SMOOTH",
"879 529 OFFCURVE",
"1071 702 OFFCURVE",
"1071 983 CURVE SMOOTH",
"1071 1261 OFFCURVE",
"874 1402 OFFCURVE",
"565 1402 CURVE SMOOTH",
"362 1402 OFFCURVE",
"160 1393 OFFCURVE",
"160 1393 CURVE",
"174 1317 OFFCURVE",
"174 1141 OFFCURVE",
"174 954 CURVE",
"174 415 LINE SMOOTH",
"174 227 OFFCURVE",
"174 76 OFFCURVE",
"160 0 CURVE",
"370 0 LINE",
"357 74 OFFCURVE",
"356 226 OFFCURVE",
"356 415 CURVE SMOOTH"
);
},
{
closed = 1;
nodes = (
"356 1245 LINE",
"420 1248 OFFCURVE",
"466 1250 OFFCURVE",
"556 1250 CURVE SMOOTH",
"810 1250 OFFCURVE",
"890 1116 OFFCURVE",
"890 964 CURVE SMOOTH",
"890 810 OFFCURVE",
"818 677 OFFCURVE",
"551 677 CURVE SMOOTH",
"480 677 OFFCURVE",
"416 679 OFFCURVE",
"356 687 CURVE"
);
}
);
width = 1195;
}
);
unicode = 0050;
},
{
glyphname = LtnCapQ;
production = Q;
layers = (
{
anchors = (
{
name = L;
position = "{717, -270}";
},
{
name = U;
position = "{717, 1530}";
}
);
layerId = "CEA11641-8665-47E8-AF62-91D5E9FF7384";
paths = (
{
closed = 1;
nodes = (
"1283 697 CURVE SMOOTH",
"1283 1154 OFFCURVE",
"1009 1408 OFFCURVE",
"701 1408 CURVE SMOOTH",
"393 1408 OFFCURVE",
"95 1135 OFFCURVE",
"95 678 CURVE SMOOTH",
"95 221 OFFCURVE",
"370 -33 OFFCURVE",
"677 -33 CURVE SMOOTH",
"736 -33 OFFCURVE",
"785 -26 OFFCURVE",
"839 -9 CURVE",
"905 -9 OFFCURVE",
"1184 -190 OFFCURVE",
"1264 -190 CURVE SMOOTH",
"1315 -190 OFFCURVE",
"1370 -86 OFFCURVE",
"1392 -52 CURVE",
"1265 -35 OFFCURVE",
"1154 18 OFFCURVE",
"1035 91 CURVE",
"1203 216 OFFCURVE",
"1283 448 OFFCURVE"
);
},
{
closed = 1;
nodes = (
"1097 673 CURVE SMOOTH",
"1097 335 OFFCURVE",
"925 134 OFFCURVE",
"691 134 CURVE SMOOTH",
"443 134 OFFCURVE",
"281 354 OFFCURVE",
"281 702 CURVE SMOOTH",
"281 1032 OFFCURVE",
"450 1241 OFFCURVE",
"691 1241 CURVE SMOOTH",
"934 1241 OFFCURVE",
"1097 1025 OFFCURVE"
);
}
);
width = 1475;
},
{
anchors = (
{
name = L;
position = "{717, -270}";
},
{
name = U;
position = "{717, 1530}";
}
);
layerId = "F475B0A9-7A87-46A7-B4AD-E82CB5471E06";
paths = (
{
closed = 1;
nodes = (
"1283 697 CURVE SMOOTH",
"1283 1154 OFFCURVE",
"1009 1408 OFFCURVE",
"701 1408 CURVE SMOOTH",
"393 1408 OFFCURVE",
"95 1135 OFFCURVE",
"95 678 CURVE SMOOTH",
"95 221 OFFCURVE",
"370 -33 OFFCURVE",
"677 -33 CURVE SMOOTH",
"736 -33 OFFCURVE",
"785 -26 OFFCURVE",
"839 -9 CURVE",
"905 -9 OFFCURVE",
"1184 -190 OFFCURVE",
"1264 -190 CURVE SMOOTH",
"1315 -190 OFFCURVE",
"1370 -86 OFFCURVE",
"1392 -52 CURVE",
"1265 -35 OFFCURVE",
"1154 18 OFFCURVE",
"1035 91 CURVE",
"1203 216 OFFCURVE",
"1283 448 OFFCURVE"
);
},
{
closed = 1;
nodes = (
"1097 673 CURVE SMOOTH",
"1097 335 OFFCURVE",
"925 134 OFFCURVE",
"691 134 CURVE SMOOTH",
"443 134 OFFCURVE",
"281 354 OFFCURVE",
"281 702 CURVE SMOOTH",
"281 1032 OFFCURVE",
"450 1241 OFFCURVE",
"691 1241 CURVE SMOOTH",
"934 1241 OFFCURVE",
"1097 1025 OFFCURVE"
);
}
);
width = 1475;
}
);
unicode = 0051;
},
{
glyphname = LtnCapR;
production = R;
layers = (
{
anchors = (
{
name = H;
position = "{650, 0}";
},
{
name = L;
position = "{610, -100}";
},
{
name = U;
position = "{610, 1530}";
}
);
layerId = "CEA11641-8665-47E8-AF62-91D5E9FF7384";
paths = (
{
closed = 1;
nodes = (
"356 596 LINE",
"599 596 LINE",
"775 596 OFFCURVE",
"1047 709 OFFCURVE",
"1047 1011 CURVE SMOOTH",
"1047 1287 OFFCURVE",
"843 1402 OFFCURVE",
"546 1402 CURVE SMOOTH",
"323 1402 OFFCURVE",
"160 1393 OFFCURVE",
"160 1393 CURVE",
"174 1317 OFFCURVE",
"174 1141 OFFCURVE",
"174 954 CURVE SMOOTH",
"174 415 LINE",
"174 227 OFFCURVE",
"174 76 OFFCURVE",
"160 0 CURVE",
"370 0 LINE",
"357 74 OFFCURVE",
"356 227 OFFCURVE",
"356 415 CURVE"
);
},
{
closed = 1;
nodes = (
"356 1245 LINE",
"406 1247 OFFCURVE",
"470 1250 OFFCURVE",
"537 1250 CURVE SMOOTH",
"771 1250 OFFCURVE",
"866 1160 OFFCURVE",
"866 997 CURVE SMOOTH",
"866 839 OFFCURVE",
"751 744 OFFCURVE",
"537 744 CURVE",
"356 744 LINE"
);
},
{
closed = 1;
nodes = (
"543 606 LINE",
"952 0 LINE",
"1195 0 LINE",
"1131 70 OFFCURVE",
"689 677 OFFCURVE",
"689 677 CURVE"
);
}
);
width = 1305;
},
{
anchors = (
{
name = H;
position = "{650, 0}";
},
{
name = L;
position = "{610, -100}";
},
{
name = U;
position = "{610, 1530}";
}
);
layerId = "F475B0A9-7A87-46A7-B4AD-E82CB5471E06";
paths = (
{
closed = 1;
nodes = (
"356 596 LINE",
"599 596 LINE",
"775 596 OFFCURVE",
"1047 709 OFFCURVE",
"1047 1011 CURVE SMOOTH",
"1047 1287 OFFCURVE",
"843 1402 OFFCURVE",
"546 1402 CURVE SMOOTH",
"323 1402 OFFCURVE",
"160 1393 OFFCURVE",
"160 1393 CURVE",
"174 1317 OFFCURVE",
"174 1141 OFFCURVE",
"174 954 CURVE SMOOTH",
"174 415 LINE",
"174 227 OFFCURVE",
"174 76 OFFCURVE",
"160 0 CURVE",
"370 0 LINE",
"357 74 OFFCURVE",
"356 227 OFFCURVE",
"356 415 CURVE"
);
},
{
closed = 1;
nodes = (
"356 1245 LINE",
"406 1247 OFFCURVE",
"470 1250 OFFCURVE",
"537 1250 CURVE SMOOTH",
"771 1250 OFFCURVE",
"866 1160 OFFCURVE",
"866 997 CURVE SMOOTH",
"866 839 OFFCURVE",
"751 744 OFFCURVE",
"537 744 CURVE",
"356 744 LINE"
);
},
{
closed = 1;
nodes = (
"543 606 LINE",
"952 0 LINE",
"1195 0 LINE",
"1131 70 OFFCURVE",
"689 677 OFFCURVE",
"689 677 CURVE"
);
}
);
width = 1305;
}
);
unicode = 0052;
},
{
glyphname = LtnCapS;
production = S;
layers = (
{
anchors = (
{
name = H;
position = "{580, 0}";
},
{
name = L;
position = "{580, -100}";
},
{
name = U;
position = "{580, 1530}";
}
);
layerId = "CEA11641-8665-47E8-AF62-91D5E9FF7384";
paths = (
{
closed = 1;
nodes = (
"958 1330 LINE",
"834 1390 OFFCURVE",
"728 1416 OFFCURVE",
"582 1416 CURVE SMOOTH",
"265 1416 OFFCURVE",
"133 1191 OFFCURVE",
"133 1029 CURVE SMOOTH",
"133 867 OFFCURVE",
"198 741 OFFCURVE",
"496 652 CURVE SMOOTH",
"793 563 OFFCURVE",
"839 485 OFFCURVE",
"839 385 CURVE SMOOTH",
"839 231 OFFCURVE",
"697 142 OFFCURVE",
"543 142 CURVE SMOOTH",
"402 142 OFFCURVE",
"264 190 OFFCURVE",
"138 299 CURVE",
"95 104 LINE",
"192 28 OFFCURVE",
"359 -25 OFFCURVE",
"543 -25 CURVE SMOOTH",
"804 -25 OFFCURVE",
"1020 149 OFFCURVE",
"1020 404 CURVE SMOOTH",
"1020 610 OFFCURVE",
"882 726 OFFCURVE",
"629 800 CURVE SMOOTH",
"357 879 OFFCURVE",
"314 939 OFFCURVE",
"314 1043 CURVE SMOOTH",
"314 1148 OFFCURVE",
"419 1249 OFFCURVE",
"572 1249 CURVE SMOOTH",
"694 1249 OFFCURVE",
"784 1219 OFFCURVE",
"920 1144 CURVE"
);
}
);
width = 1175;
},
{
anchors = (
{
name = H;
position = "{580, 0}";
},
{
name = L;
position = "{580, -100}";
},
{
name = U;
position = "{580, 1530}";
}
);
layerId = "F475B0A9-7A87-46A7-B4AD-E82CB5471E06";
paths = (
{
closed = 1;
nodes = (
"958 1330 LINE",
"834 1390 OFFCURVE",
"728 1416 OFFCURVE",
"582 1416 CURVE SMOOTH",
"265 1416 OFFCURVE",
"133 1191 OFFCURVE",
"133 1029 CURVE SMOOTH",
"133 867 OFFCURVE",
"198 741 OFFCURVE",
"496 652 CURVE SMOOTH",
"793 563 OFFCURVE",
"839 485 OFFCURVE",
"839 385 CURVE SMOOTH",
"839 231 OFFCURVE",
"697 142 OFFCURVE",
"543 142 CURVE SMOOTH",
"402 142 OFFCURVE",
"264 190 OFFCURVE",
"138 299 CURVE",
"95 104 LINE",
"192 28 OFFCURVE",
"359 -25 OFFCURVE",
"543 -25 CURVE SMOOTH",
"804 -25 OFFCURVE",
"1020 149 OFFCURVE",
"1020 404 CURVE SMOOTH",
"1020 610 OFFCURVE",
"882 726 OFFCURVE",
"629 800 CURVE SMOOTH",
"357 879 OFFCURVE",
"314 939 OFFCURVE",
"314 1043 CURVE SMOOTH",
"314 1148 OFFCURVE",
"419 1249 OFFCURVE",
"572 1249 CURVE SMOOTH",
"694 1249 OFFCURVE",
"784 1219 OFFCURVE",
"920 1144 CURVE"
);
}
);
width = 1175;
}
);
unicode = 0053;
},
{
glyphname = LtnCapT;
production = T;
layers = (
{
anchors = (
{
name = H;
position = "{622, 0}";
},
{
name = L;
position = "{622, -100}";
},
{
name = U;
position = "{622, 1530}";
}
);
layerId = "CEA11641-8665-47E8-AF62-91D5E9FF7384";
paths = (
{
closed = 1;
nodes = (
"45 1393 LINE",
"45 1216 LINE",
"121 1233 OFFCURVE",
"194 1235 OFFCURVE",
"279 1235 CURVE SMOOTH",
"503 1235 LINE",
"503 415 LINE SMOOTH",
"503 227 OFFCURVE",
"500 76 OFFCURVE",
"484 0 CURVE",
"703 0 LINE",
"687 76 OFFCURVE",
"684 227 OFFCURVE",
"684 415 CURVE SMOOTH",
"684 1235 LINE",
"913 1235 LINE SMOOTH",
"999 1235 OFFCURVE",
"1071 1233 OFFCURVE",
"1147 1216 CURVE",
"1147 1393 LINE"
);
}
);
width = 1265;
},
{
anchors = (
{
name = H;
position = "{622, 0}";
},
{
name = L;
position = "{622, -100}";
},
{
name = U;
position = "{622, 1530}";
}
);
layerId = "F475B0A9-7A87-46A7-B4AD-E82CB5471E06";
paths = (
{
closed = 1;
nodes = (
"45 1393 LINE",
"45 1216 LINE",
"121 1233 OFFCURVE",
"194 1235 OFFCURVE",
"279 1235 CURVE SMOOTH",
"503 1235 LINE",
"503 415 LINE SMOOTH",
"503 227 OFFCURVE",
"500 76 OFFCURVE",
"484 0 CURVE",
"703 0 LINE",
"687 76 OFFCURVE",
"684 227 OFFCURVE",
"684 415 CURVE SMOOTH",
"684 1235 LINE",
"913 1235 LINE SMOOTH",
"999 1235 OFFCURVE",
"1071 1233 OFFCURVE",
"1147 1216 CURVE",
"1147 1393 LINE"
);
}
);
width = 1265;
}
);
unicode = 0054;
},
{
glyphname = LtnCapU;
production = U;
layers = (
{
anchors = (
{
name = H;
position = "{707, 0}";
},
{
name = L;
position = "{707, -100}";
},
{
name = O;
position = "{925, 0}";
},
{
name = R;
position = "{1400, 1200}";
},
{
name = U;
position = "{707, 1530}";
}
);
layerId = "CEA11641-8665-47E8-AF62-91D5E9FF7384";
paths = (
{
closed = 1;
nodes = (
"1009 1392 LINE",
"1009 533 LINE SMOOTH",
"1009 284 OFFCURVE",
"931 128 OFFCURVE",
"685 128 CURVE SMOOTH",
"434 128 OFFCURVE",
"356 284 OFFCURVE",
"356 533 CURVE SMOOTH",
"356 1392 LINE",
"160 1392 LINE",
"173 1315 OFFCURVE",
"174 1165 OFFCURVE",
"174 977 CURVE SMOOTH",
"174 490 LINE",
"174 180 OFFCURVE",
"336 -25 OFFCURVE",
"685 -25 CURVE SMOOTH",
"1029 -25 OFFCURVE",
"1190 180 OFFCURVE",
"1190 490 CURVE",
"1190 977 LINE SMOOTH",
"1190 1174 OFFCURVE",
"1192 1315 OFFCURVE",
"1205 1392 CURVE"
);
}
);
width = 1440;
},
{
anchors = (
{
name = H;
position = "{707, 0}";
},
{
name = L;
position = "{707, -100}";
},
{
name = O;
position = "{925, 0}";
},
{
name = R;
position = "{1400, 1200}";
},
{
name = U;
position = "{707, 1530}";
}
);
layerId = "F475B0A9-7A87-46A7-B4AD-E82CB5471E06";
paths = (
{
closed = 1;
nodes = (
"1009 1392 LINE",
"1009 533 LINE SMOOTH",
"1009 284 OFFCURVE",
"931 128 OFFCURVE",
"685 128 CURVE SMOOTH",
"434 128 OFFCURVE",
"356 284 OFFCURVE",
"356 533 CURVE SMOOTH",
"356 1392 LINE",
"160 1392 LINE",
"173 1315 OFFCURVE",
"174 1165 OFFCURVE",
"174 977 CURVE SMOOTH",
"174 490 LINE",
"174 180 OFFCURVE",
"336 -25 OFFCURVE",
"685 -25 CURVE SMOOTH",
"1029 -25 OFFCURVE",
"1190 180 OFFCURVE",
"1190 490 CURVE",
"1190 977 LINE SMOOTH",
"1190 1174 OFFCURVE",
"1192 1315 OFFCURVE",
"1205 1392 CURVE"
);
}
);
width = 1440;
}
);
unicode = 0055;
},
{
glyphname = LtnCapV;
production = V;
layers = (
{
anchors = (
{
name = H;
position = "{680, 0}";
},
{
name = L;
position = "{672, -100}";
},
{
name = O;
position = "{880, 0}";
},
{
name = U;
position = "{672, 1530}";
}
);
layerId = "CEA11641-8665-47E8-AF62-91D5E9FF7384";
paths = (
{
closed = 1;
nodes = (
"1046 1393 LINE",
"643 186 LINE",
"240 1393 LINE",
"35 1393 LINE",
"66 1315 OFFCURVE",
"98 1229 OFFCURVE",
"164 1045 CURVE SMOOTH",
"536 0 LINE",
"751 0 LINE",
"1118 1045 LINE SMOOTH",
"1183 1230 OFFCURVE",
"1217 1315 OFFCURVE",
"1251 1393 CURVE"
);
}
);
width = 1365;
},
{
anchors = (
{
name = H;
position = "{680, 0}";
},
{
name = L;
position = "{672, -100}";
},
{
name = O;
position = "{880, 0}";
},
{
name = U;
position = "{672, 1530}";
}
);
layerId = "F475B0A9-7A87-46A7-B4AD-E82CB5471E06";
paths = (
{
closed = 1;
nodes = (
"1046 1393 LINE",
"643 186 LINE",
"240 1393 LINE",
"35 1393 LINE",
"66 1315 OFFCURVE",
"98 1229 OFFCURVE",
"164 1045 CURVE SMOOTH",
"536 0 LINE",
"751 0 LINE",
"1118 1045 LINE SMOOTH",
"1183 1230 OFFCURVE",
"1217 1315 OFFCURVE",
"1251 1393 CURVE"
);
}
);
width = 1365;
}
);
unicode = 0056;
},
{
glyphname = LtnCapW;
production = W;
layers = (
{
anchors = (
{
name = L;
position = "{1027, -100}";
},
{
name = U;
position = "{1027, 1530}";
}
);
layerId = "CEA11641-8665-47E8-AF62-91D5E9FF7384";
paths = (
{
closed = 1;
nodes = (
"1414 0 LINE",
"1523 0 LINE",
"1814 1045 LINE SMOOTH",
"1866 1230 OFFCURVE",
"1894 1315 OFFCURVE",
"1924 1393 CURVE",
"1714 1393 LINE",
"1404 124 LINE"
);
},
{
closed = 1;
nodes = (
"1070 1393 LINE",
"894 1393 LINE",
"946 1245 LINE",
"1309 0 LINE",
"1414 0 LINE",
"1433 124 LINE"
);
},
{
closed = 1;
nodes = (
"555 0 LINE",
"655 0 LINE",
"1018 1245 LINE",
"1070 1393 LINE",
"894 1393 LINE",
"536 124 LINE"
);
},
{
closed = 1;
nodes = (
"250 1393 LINE",
"40 1393 LINE",
"70 1317 OFFCURVE",
"99 1227 OFFCURVE",
"150 1045 CURVE SMOOTH",
"441 0 LINE",
"555 0 LINE",
"565 124 LINE"
);
}
);
width = 2080;
},
{
anchors = (
{
name = L;
position = "{1027, -100}";
},
{
name = U;
position = "{1027, 1530}";
}
);
layerId = "F475B0A9-7A87-46A7-B4AD-E82CB5471E06";
paths = (
{
closed = 1;
nodes = (
"1414 0 LINE",
"1523 0 LINE",
"1814 1045 LINE SMOOTH",
"1866 1230 OFFCURVE",
"1894 1315 OFFCURVE",
"1924 1393 CURVE",
"1714 1393 LINE",
"1404 124 LINE"
);
},
{
closed = 1;
nodes = (
"1070 1393 LINE",
"894 1393 LINE",
"946 1245 LINE",
"1309 0 LINE",
"1414 0 LINE",
"1433 124 LINE"
);
},
{
closed = 1;
nodes = (
"555 0 LINE",
"655 0 LINE",
"1018 1245 LINE",
"1070 1393 LINE",
"894 1393 LINE",
"536 124 LINE"
);
},
{
closed = 1;
nodes = (
"250 1393 LINE",
"40 1393 LINE",
"70 1317 OFFCURVE",
"99 1227 OFFCURVE",
"150 1045 CURVE SMOOTH",
"441 0 LINE",
"555 0 LINE",
"565 124 LINE"
);
}
);
width = 2080;
}
);
unicode = 0057;
},
{
glyphname = LtnCapX;
production = X;
layers = (
{
anchors = (
{
name = L;
position = "{650, -100}";
},
{
name = U;
position = "{650, 1530}";
}
);
layerId = "CEA11641-8665-47E8-AF62-91D5E9FF7384";
paths = (
{
closed = 1;
nodes = (
"514 745 LINE",
"255 324 LINE SMOOTH",
"132 126 OFFCURVE",
"100 82 OFFCURVE",
"40 0 CURVE",
"259 0 LINE",
"614 586 LINE",
"984 0 LINE",
"1204 0 LINE",
"1146 78 OFFCURVE",
"1113 121 OFFCURVE",
"987 321 CURVE SMOOTH",
"728 732 LINE",
"929 1059 LINE SMOOTH",
"1048 1253 OFFCURVE",
"1097 1319 OFFCURVE",
"1156 1393 CURVE",
"932 1393 LINE",
"628 891 LINE",
"312 1393 LINE",
"88 1393 LINE",
"149 1313 OFFCURVE",
"194 1255 OFFCURVE",
"317 1059 CURVE"
);
}
);
width = 1325;
},
{
anchors = (
{
name = L;
position = "{650, -100}";
},
{
name = U;
position = "{650, 1530}";
}
);
layerId = "F475B0A9-7A87-46A7-B4AD-E82CB5471E06";
paths = (
{
closed = 1;
nodes = (
"514 745 LINE",
"255 324 LINE SMOOTH",
"132 126 OFFCURVE",
"100 82 OFFCURVE",
"40 0 CURVE",
"259 0 LINE",
"614 586 LINE",
"984 0 LINE",
"1204 0 LINE",
"1146 78 OFFCURVE",
"1113 121 OFFCURVE",
"987 321 CURVE SMOOTH",
"728 732 LINE",
"929 1059 LINE SMOOTH",
"1048 1253 OFFCURVE",
"1097 1319 OFFCURVE",
"1156 1393 CURVE",
"932 1393 LINE",
"628 891 LINE",
"312 1393 LINE",
"88 1393 LINE",
"149 1313 OFFCURVE",
"194 1255 OFFCURVE",
"317 1059 CURVE"
);
}
);
width = 1325;
}
);
unicode = 0058;
},
{
glyphname = LtnCapY;
production = Y;
layers = (
{
anchors = (
{
name = L;
position = "{650, -100}";
},
{
name = U;
position = "{650, 1530}";
}
);
layerId = "CEA11641-8665-47E8-AF62-91D5E9FF7384";
paths = (
{
closed = 1;
nodes = (
"35 1393 LINE",
"142 1251 OFFCURVE",
"205 1142 OFFCURVE",
"278 1016 CURVE SMOOTH",
"531 583 LINE",
"531 415 LINE SMOOTH",
"531 227 OFFCURVE",
"531 76 OFFCURVE",
"517 0 CURVE",
"727 0 LINE",
"712 76 OFFCURVE",
"712 227 OFFCURVE",
"712 415 CURVE SMOOTH",
"712 575 LINE",
"970 1016 LINE SMOOTH",
"1042 1140 OFFCURVE",
"1096 1232 OFFCURVE",
"1208 1393 CURVE",
"989 1393 LINE",
"631 762 LINE",
"254 1393 LINE"
);
}
);
width = 1320;
},
{
anchors = (
{
name = L;
position = "{650, -100}";
},
{
name = U;
position = "{650, 1530}";
}
);
layerId = "F475B0A9-7A87-46A7-B4AD-E82CB5471E06";
paths = (
{
closed = 1;
nodes = (
"35 1393 LINE",
"142 1251 OFFCURVE",
"205 1142 OFFCURVE",
"278 1016 CURVE SMOOTH",
"531 583 LINE",
"531 415 LINE SMOOTH",
"531 227 OFFCURVE",
"531 76 OFFCURVE",
"517 0 CURVE",
"727 0 LINE",
"712 76 OFFCURVE",
"712 227 OFFCURVE",
"712 415 CURVE SMOOTH",
"712 575 LINE",
"970 1016 LINE SMOOTH",
"1042 1140 OFFCURVE",
"1096 1232 OFFCURVE",
"1208 1393 CURVE",
"989 1393 LINE",
"631 762 LINE",
"254 1393 LINE"
);
}
);
width = 1320;
}
);
unicode = 0059;
},
{
glyphname = LtnCapZ;
production = Z;
layers = (
{
anchors = (
{
name = L;
position = "{605, -100}";
},
{
name = U;
position = "{605, 1530}";
}
);
layerId = "CEA11641-8665-47E8-AF62-91D5E9FF7384";
paths = (
{
closed = 1;
nodes = (
"1058 1393 LINE",
"132 1393 LINE",
"132 1216 LINE",
"209 1233 OFFCURVE",
"321 1235 OFFCURVE",
"509 1235 CURVE SMOOTH",
"833 1235 LINE",
"75 119 LINE",
"75 0 LINE",
"1086 0 LINE",
"1086 176 LINE",
"1010 163 OFFCURVE",
"858 157 OFFCURVE",
"671 157 CURVE SMOOTH",
"299 157 LINE",
"1058 1269 LINE"
);
}
);
width = 1230;
},
{
anchors = (
{
name = L;
position = "{605, -100}";
},
{
name = U;
position = "{605, 1530}";
}
);
layerId = "F475B0A9-7A87-46A7-B4AD-E82CB5471E06";
paths = (
{
closed = 1;
nodes = (
"1058 1393 LINE",
"132 1393 LINE",
"132 1216 LINE",
"209 1233 OFFCURVE",
"321 1235 OFFCURVE",
"509 1235 CURVE SMOOTH",
"833 1235 LINE",
"75 119 LINE",
"75 0 LINE",
"1086 0 LINE",
"1086 176 LINE",
"1010 163 OFFCURVE",
"858 157 OFFCURVE",
"671 157 CURVE SMOOTH",
"299 157 LINE",
"1058 1269 LINE"
);
}
);
width = 1230;
}
);
unicode = 005A;
},
{
glyphname = LftSqrBrac;
production = bracketleft;
layers = (
{
layerId = "CEA11641-8665-47E8-AF62-91D5E9FF7384";
paths = (
{
closed = 1;
nodes = (
"620 -410 LINE",
"620 -267 LINE",
"376 -267 LINE",
"376 1364 LINE",
"620 1364 LINE",
"620 1508 LINE",
"200 1508 LINE",
"200 -410 LINE"
);
}
);
width = 790;
},
{
layerId = "F475B0A9-7A87-46A7-B4AD-E82CB5471E06";
paths = (
{
closed = 1;
nodes = (
"620 -410 LINE",
"620 -267 LINE",
"376 -267 LINE",
"376 1364 LINE",
"620 1364 LINE",
"620 1508 LINE",
"200 1508 LINE",
"200 -410 LINE"
);
}
);
width = 790;
}
);
unicode = 005B;
},
{
glyphname = ReverseSolidus;
production = backslash;
layers = (
{
layerId = "CEA11641-8665-47E8-AF62-91D5E9FF7384";
paths = (
{
closed = 1;
nodes = (
"210 1492 LINE",
"663 -115 LINE",
"801 -86 LINE",
"353 1521 LINE"
);
}
);
width = 1025;
},
{
layerId = "F475B0A9-7A87-46A7-B4AD-E82CB5471E06";
paths = (
{
closed = 1;
nodes = (
"210 1492 LINE",
"663 -115 LINE",
"801 -86 LINE",
"353 1521 LINE"
);
}
);
width = 1025;
}
);
unicode = 005C;
},
{
glyphname = RtSqrBrac;
production = bracketright;
layers = (
{
layerId = "CEA11641-8665-47E8-AF62-91D5E9FF7384";
paths = (
{
closed = 1;
nodes = (
"570 -410 LINE",
"570 1508 LINE",
"150 1508 LINE",
"150 1364 LINE",
"393 1364 LINE",
"393 -267 LINE",
"150 -267 LINE",
"150 -410 LINE"
);
}
);
width = 790;
},
{
layerId = "F475B0A9-7A87-46A7-B4AD-E82CB5471E06";
paths = (
{
closed = 1;
nodes = (
"570 -410 LINE",
"570 1508 LINE",
"150 1508 LINE",
"150 1364 LINE",
"393 1364 LINE",
"393 -267 LINE",
"150 -267 LINE",
"150 -410 LINE"
);
}
);
width = 790;
}
);
unicode = 005D;
},
{
glyphname = CircumAccent;
production = asciicircum;
layers = (
{
anchors = (
{
name = U;
position = "{425, 1635}";
}
);
layerId = "CEA11641-8665-47E8-AF62-91D5E9FF7384";
paths = (
{
closed = 1;
nodes = (
"1634 1128 LINE",
"1388 1459 LINE",
"1241 1459 LINE",
"995 1128 LINE",
"1112 1128 LINE",
"1316 1322 LINE",
"1517 1128 LINE"
);
}
);
width = 850;
},
{
anchors = (
{
name = U;
position = "{425, 1635}";
}
);
layerId = "F475B0A9-7A87-46A7-B4AD-E82CB5471E06";
paths = (
{
closed = 1;
nodes = (
"1634 1128 LINE",
"1388 1459 LINE",
"1241 1459 LINE",
"995 1128 LINE",
"1112 1128 LINE",
"1316 1322 LINE",
"1517 1128 LINE"
);
}
);
width = 850;
}
);
unicode = 005E;
},
{
glyphname = LowLine;
production = underscore;
layers = (
{
layerId = "CEA11641-8665-47E8-AF62-91D5E9FF7384";
paths = (
{
closed = 1;
nodes = (
"0 -320 LINE",
"1215 -320 LINE",
"1215 -177 LINE",
"0 -177 LINE"
);
}
);
width = 1274;
},
{
layerId = "F475B0A9-7A87-46A7-B4AD-E82CB5471E06";
paths = (
{
closed = 1;
nodes = (
"0 -320 LINE",
"1215 -320 LINE",
"1215 -177 LINE",
"0 -177 LINE"
);
}
);
width = 1274;
}
);
unicode = 005F;
},
{
glyphname = GraveAccent;
production = grave;
layers = (
{
anchors = (
{
name = U;
position = "{390, 1635}";
}
);
layerId = "CEA11641-8665-47E8-AF62-91D5E9FF7384";
paths = (
{
closed = 1;
nodes = (
"1393 1128 LINE",
"1132 1431 LINE SMOOTH",
"1104 1465 OFFCURVE",
"1085 1484 OFFCURVE",
"1030 1484 CURVE SMOOTH",
"964 1484 OFFCURVE",
"940 1437 OFFCURVE",
"940 1396 CURVE SMOOTH",
"940 1361 OFFCURVE",
"957 1336 OFFCURVE",
"985 1318 CURVE SMOOTH",
"1282 1128 LINE"
);
}
);
width = 580;
},
{
anchors = (
{
name = U;
position = "{390, 1635}";
}
);
layerId = "F475B0A9-7A87-46A7-B4AD-E82CB5471E06";
paths = (
{
closed = 1;
nodes = (
"1393 1128 LINE",
"1132 1431 LINE SMOOTH",
"1104 1465 OFFCURVE",
"1085 1484 OFFCURVE",
"1030 1484 CURVE SMOOTH",
"964 1484 OFFCURVE",
"940 1437 OFFCURVE",
"940 1396 CURVE SMOOTH",
"940 1361 OFFCURVE",
"957 1336 OFFCURVE",
"985 1318 CURVE SMOOTH",
"1282 1128 LINE"
);
}
);
width = 580;
}
);
unicode = 0060;
},
{
glyphname = LtnSmA;
production = a;
layers = (
{
anchors = (
{
name = H;
position = "{980, 0}";
},
{
name = L;
position = "{595, -100}";
},
{
name = O;
position = "{1180, 0}";
},
{
name = R;
position = "{1150, 1000}";
},
{
name = U;
position = "{595, 1100}";
}
);
layerId = "CEA11641-8665-47E8-AF62-91D5E9FF7384";
paths = (
{
closed = 1;
nodes = (
"1011 -1 LINE",
"974 106 OFFCURVE",
"949 264 OFFCURVE",
"949 504 CURVE SMOOTH",
"949 948 LINE",
"853 973 OFFCURVE",
"743 991 OFFCURVE",
"620 991 CURVE SMOOTH",
"263 991 OFFCURVE",
"105 693 OFFCURVE",
"105 390 CURVE SMOOTH",
"105 120 OFFCURVE",
"231 -25 OFFCURVE",
"391 -25 CURVE SMOOTH",
"591 -25 OFFCURVE",
"726 193 OFFCURVE",
"801 390 CURVE",
"801 314 LINE SMOOTH",
"801 230 OFFCURVE",
"817 59 OFFCURVE",
"844 -1 CURVE"
);
},
{
closed = 1;
nodes = (
"773 700 LINE",
"773 565 OFFCURVE",
"588 137 OFFCURVE",
"420 137 CURVE SMOOTH",
"344 137 OFFCURVE",
"281 242 OFFCURVE",
"281 390 CURVE SMOOTH",
"281 620 OFFCURVE",
"357 838 OFFCURVE",
"606 838 CURVE SMOOTH",
"701 838 OFFCURVE",
"741 828 OFFCURVE",
"773 821 CURVE"
);
}
);
width = 1150;
},
{
anchors = (
{
name = H;
position = "{980, 0}";
},
{
name = L;
position = "{595, -100}";
},
{
name = O;
position = "{1180, 0}";
},
{
name = R;
position = "{1150, 1000}";
},
{
name = U;
position = "{595, 1100}";
}
);
layerId = "F475B0A9-7A87-46A7-B4AD-E82CB5471E06";
paths = (
{
closed = 1;
nodes = (
"1011 -1 LINE",
"974 106 OFFCURVE",
"949 264 OFFCURVE",
"949 504 CURVE SMOOTH",
"949 948 LINE",
"853 973 OFFCURVE",
"743 991 OFFCURVE",
"620 991 CURVE SMOOTH",
"263 991 OFFCURVE",
"105 693 OFFCURVE",
"105 390 CURVE SMOOTH",
"105 120 OFFCURVE",
"231 -25 OFFCURVE",
"391 -25 CURVE SMOOTH",
"591 -25 OFFCURVE",
"726 193 OFFCURVE",
"801 390 CURVE",
"801 314 LINE SMOOTH",
"801 230 OFFCURVE",
"817 59 OFFCURVE",
"844 -1 CURVE"
);
},
{
closed = 1;
nodes = (
"773 700 LINE",
"773 565 OFFCURVE",
"588 137 OFFCURVE",
"420 137 CURVE SMOOTH",
"344 137 OFFCURVE",
"281 242 OFFCURVE",
"281 390 CURVE SMOOTH",
"281 620 OFFCURVE",
"357 838 OFFCURVE",
"606 838 CURVE SMOOTH",
"701 838 OFFCURVE",
"741 828 OFFCURVE",
"773 821 CURVE"
);
}
);
width = 1150;
}
);
unicode = 0061;
},
{
glyphname = LtnSmB;
production = b;
layers = (
{
anchors = (
{
name = H;
position = "{590, 0}";
},
{
name = L;
position = "{590, -100}";
},
{
name = R;
position = "{1155, 1000}";
},
{
name = U;
position = "{590, 1635}";
}
);
layerId = "CEA11641-8665-47E8-AF62-91D5E9FF7384";
paths = (
{
closed = 1;
nodes = (
"130 1525 LINE",
"144 1418 OFFCURVE",
"144 1213 OFFCURVE",
"144 1077 CURVE SMOOTH",
"144 892 OFFCURVE",
"144 216 OFFCURVE",
"144 61 CURVE",
"265 24 OFFCURVE",
"400 -25 OFFCURVE",
"555 -25 CURVE SMOOTH",
"836 -25 OFFCURVE",
"1017 187 OFFCURVE",
"1017 514 CURVE SMOOTH",
"1017 793 OFFCURVE",
"881 991 OFFCURVE",
"688 991 CURVE SMOOTH",
"528 991 OFFCURVE",
"410 902 OFFCURVE",
"321 786 CURVE",
"321 873 OFFCURVE",
"321 1525 OFFCURVE",
"321 1525 CURVE"
);
},
{
closed = 1;
nodes = (
"321 557 LINE",
"386 715 OFFCURVE",
"513 824 OFFCURVE",
"631 824 CURVE SMOOTH",
"768 824 OFFCURVE",
"846 692 OFFCURVE",
"846 481 CURVE SMOOTH",
"846 266 OFFCURVE",
"723 123 OFFCURVE",
"555 123 CURVE SMOOTH",
"472 123 OFFCURVE",
"414 136 OFFCURVE",
"321 175 CURVE"
);
}
);
width = 1155;
},
{
anchors = (
{
name = H;
position = "{590, 0}";
},
{
name = L;
position = "{590, -100}";
},
{
name = R;
position = "{1155, 1000}";
},
{
name = U;
position = "{590, 1635}";
}
);
layerId = "F475B0A9-7A87-46A7-B4AD-E82CB5471E06";
paths = (
{
closed = 1;
nodes = (
"130 1525 LINE",
"144 1418 OFFCURVE",
"144 1213 OFFCURVE",
"144 1077 CURVE SMOOTH",
"144 892 OFFCURVE",
"144 216 OFFCURVE",
"144 61 CURVE",
"265 24 OFFCURVE",
"400 -25 OFFCURVE",
"555 -25 CURVE SMOOTH",
"836 -25 OFFCURVE",
"1017 187 OFFCURVE",
"1017 514 CURVE SMOOTH",
"1017 793 OFFCURVE",
"881 991 OFFCURVE",
"688 991 CURVE SMOOTH",
"528 991 OFFCURVE",
"410 902 OFFCURVE",
"321 786 CURVE",
"321 873 OFFCURVE",
"321 1525 OFFCURVE",
"321 1525 CURVE"
);
},
{
closed = 1;
nodes = (
"321 557 LINE",
"386 715 OFFCURVE",
"513 824 OFFCURVE",
"631 824 CURVE SMOOTH",
"768 824 OFFCURVE",
"846 692 OFFCURVE",
"846 481 CURVE SMOOTH",
"846 266 OFFCURVE",
"723 123 OFFCURVE",
"555 123 CURVE SMOOTH",
"472 123 OFFCURVE",
"414 136 OFFCURVE",
"321 175 CURVE"
);
}
);
width = 1155;
}
);
unicode = 0062;
},
{
glyphname = LtnSmC;
production = c;
layers = (
{
anchors = (
{
name = H;
position = "{580, 0}";
},
{
name = L;
position = "{580, -100}";
},
{
name = R;
position = "{1020, 1000}";
},
{
name = U;
position = "{570, 1100}";
}
);
layerId = "CEA11641-8665-47E8-AF62-91D5E9FF7384";
paths = (
{
closed = 1;
nodes = (
"868 247 LINE",
"785 173 OFFCURVE",
"691 132 OFFCURVE",
"577 132 CURVE SMOOTH",
"392 132 OFFCURVE",
"276 271 OFFCURVE",
"276 476 CURVE SMOOTH",
"276 701 OFFCURVE",
"407 834 OFFCURVE",
"577 834 CURVE SMOOTH",
"675 834 OFFCURVE",
"758 801 OFFCURVE",
"844 738 CURVE",
"877 910 LINE",
"808 958 OFFCURVE",
"718 991 OFFCURVE",
"591 991 CURVE SMOOTH",
"288 991 OFFCURVE",
"95 754 OFFCURVE",
"95 466 CURVE SMOOTH",
"95 162 OFFCURVE",
"302 -25 OFFCURVE",
"558 -25 CURVE SMOOTH",
"701 -25 OFFCURVE",
"790 7 OFFCURVE",
"887 80 CURVE"
);
}
);
width = 1020;
},
{
anchors = (
{
name = H;
position = "{580, 0}";
},
{
name = L;
position = "{580, -100}";
},
{
name = R;
position = "{1020, 1000}";
},
{
name = U;
position = "{570, 1100}";
}
);
layerId = "F475B0A9-7A87-46A7-B4AD-E82CB5471E06";
paths = (
{
closed = 1;
nodes = (
"868 247 LINE",
"785 173 OFFCURVE",
"691 132 OFFCURVE",
"577 132 CURVE SMOOTH",
"392 132 OFFCURVE",
"276 271 OFFCURVE",
"276 476 CURVE SMOOTH",
"276 701 OFFCURVE",
"407 834 OFFCURVE",
"577 834 CURVE SMOOTH",
"675 834 OFFCURVE",
"758 801 OFFCURVE",
"844 738 CURVE",
"877 910 LINE",
"808 958 OFFCURVE",
"718 991 OFFCURVE",
"591 991 CURVE SMOOTH",
"288 991 OFFCURVE",
"95 754 OFFCURVE",
"95 466 CURVE SMOOTH",
"95 162 OFFCURVE",
"302 -25 OFFCURVE",
"558 -25 CURVE SMOOTH",
"701 -25 OFFCURVE",
"790 7 OFFCURVE",
"887 80 CURVE"
);
}
);
width = 1020;
}
);
unicode = 0063;
},
{
glyphname = LtnSmD;
production = d;
layers = (
{
anchors = (
{
name = H;
position = "{605, 0}";
},
{
name = L;
position = "{605, -100}";
},
{
name = R;
position = "{1190, 1000}";
},
{
name = U;
position = "{605, 1635}";
}
);
layerId = "CEA11641-8665-47E8-AF62-91D5E9FF7384";
paths = (
{
closed = 1;
nodes = (
"987 1525 LINE",
"787 1525 LINE",
"805 1445 OFFCURVE",
"811 1330 OFFCURVE",
"811 1177 CURVE",
"811 910 LINE",
"737 952 OFFCURVE",
"639 991 OFFCURVE",
"558 991 CURVE SMOOTH",
"302 991 OFFCURVE",
"105 775 OFFCURVE",
"105 438 CURVE SMOOTH",
"105 158 OFFCURVE",
"254 -25 OFFCURVE",
"487 -25 CURVE SMOOTH",
"627 -25 OFFCURVE",
"744 47 OFFCURVE",
"835 175 CURVE",
"851 105 OFFCURVE",
"873 31 OFFCURVE",
"887 -1 CURVE",
"1059 -1 LINE",
"1018 106 OFFCURVE",
"987 264 OFFCURVE",
"987 504 CURVE"
);
},
{
closed = 1;
nodes = (
"811 380 LINE",
"758 255 OFFCURVE",
"636 128 OFFCURVE",
"520 128 CURVE SMOOTH",
"354 128 OFFCURVE",
"281 245 OFFCURVE",
"281 466 CURVE SMOOTH",
"281 692 OFFCURVE",
"414 829 OFFCURVE",
"558 829 CURVE SMOOTH",
"655 829 OFFCURVE",
"717 808 OFFCURVE",
"811 757 CURVE"
);
}
);
width = 1190;
},
{
anchors = (
{
name = H;
position = "{605, 0}";
},
{
name = L;
position = "{605, -100}";
},
{
name = R;
position = "{1190, 1000}";
},
{
name = U;
position = "{605, 1635}";
}
);
layerId = "F475B0A9-7A87-46A7-B4AD-E82CB5471E06";
paths = (
{
closed = 1;
nodes = (
"987 1525 LINE",
"787 1525 LINE",
"805 1445 OFFCURVE",
"811 1330 OFFCURVE",
"811 1177 CURVE",
"811 910 LINE",
"737 952 OFFCURVE",
"639 991 OFFCURVE",
"558 991 CURVE SMOOTH",
"302 991 OFFCURVE",
"105 775 OFFCURVE",
"105 438 CURVE SMOOTH",
"105 158 OFFCURVE",
"254 -25 OFFCURVE",
"487 -25 CURVE SMOOTH",
"627 -25 OFFCURVE",
"744 47 OFFCURVE",
"835 175 CURVE",
"851 105 OFFCURVE",
"873 31 OFFCURVE",
"887 -1 CURVE",
"1059 -1 LINE",
"1018 106 OFFCURVE",
"987 264 OFFCURVE",
"987 504 CURVE"
);
},
{
closed = 1;
nodes = (
"811 380 LINE",
"758 255 OFFCURVE",
"636 128 OFFCURVE",
"520 128 CURVE SMOOTH",
"354 128 OFFCURVE",
"281 245 OFFCURVE",
"281 466 CURVE SMOOTH",
"281 692 OFFCURVE",
"414 829 OFFCURVE",
"558 829 CURVE SMOOTH",
"655 829 OFFCURVE",
"717 808 OFFCURVE",
"811 757 CURVE"
);
}
);
width = 1190;
}
);
unicode = 0064;
},
{
glyphname = LtnSmE;
production = e;
layers = (
{
anchors = (
{
name = H;
position = "{545, 0}";
},
{
name = L;
position = "{569, -100}";
},
{
name = O;
position = "{900, 0}";
},
{
name = R;
position = "{1095, 1000}";
},
{
name = U;
position = "{569, 1100}";
}
);
layerId = "CEA11641-8665-47E8-AF62-91D5E9FF7384";
paths = (
{
closed = 1;
nodes = (
"948 462 LINE",
"949 479 OFFCURVE",
"949 519 OFFCURVE",
"949 536 CURVE SMOOTH",
"949 751 OFFCURVE",
"868 991 OFFCURVE",
"553 991 CURVE SMOOTH",
"271 991 OFFCURVE",
"95 787 OFFCURVE",
"95 471 CURVE SMOOTH",
"95 147 OFFCURVE",
"310 -25 OFFCURVE",
"553 -25 CURVE SMOOTH",
"700 -25 OFFCURVE",
"818 1 OFFCURVE",
"954 70 CURVE",
"935 228 LINE",
"818 157 OFFCURVE",
"700 132 OFFCURVE",
"577 132 CURVE SMOOTH",
"399 132 OFFCURVE",
"271 245 OFFCURVE",
"271 481 CURVE SMOOTH",
"271 733 OFFCURVE",
"372 848 OFFCURVE",
"539 848 CURVE SMOOTH",
"677 848 OFFCURVE",
"777 759 OFFCURVE",
"777 595 CURVE",
"238 595 LINE",
"238 462 LINE"
);
}
);
width = 1095;
},
{
anchors = (
{
name = H;
position = "{545, 0}";
},
{
name = L;
position = "{569, -100}";
},
{
name = O;
position = "{900, 0}";
},
{
name = R;
position = "{1095, 1000}";
},
{
name = U;
position = "{569, 1100}";
}
);
layerId = "F475B0A9-7A87-46A7-B4AD-E82CB5471E06";
paths = (
{
closed = 1;
nodes = (
"948 462 LINE",
"949 479 OFFCURVE",
"949 519 OFFCURVE",
"949 536 CURVE SMOOTH",
"949 751 OFFCURVE",
"868 991 OFFCURVE",
"553 991 CURVE SMOOTH",
"271 991 OFFCURVE",
"95 787 OFFCURVE",
"95 471 CURVE SMOOTH",
"95 147 OFFCURVE",
"310 -25 OFFCURVE",
"553 -25 CURVE SMOOTH",
"700 -25 OFFCURVE",
"818 1 OFFCURVE",
"954 70 CURVE",
"935 228 LINE",
"818 157 OFFCURVE",
"700 132 OFFCURVE",
"577 132 CURVE SMOOTH",
"399 132 OFFCURVE",
"271 245 OFFCURVE",
"271 481 CURVE SMOOTH",
"271 733 OFFCURVE",
"372 848 OFFCURVE",
"539 848 CURVE SMOOTH",
"677 848 OFFCURVE",
"777 759 OFFCURVE",
"777 595 CURVE",
"238 595 LINE",
"238 462 LINE"
);
}
);
width = 1095;
}
);
unicode = 0065;
},
{
glyphname = LtnSmF;
production = f;
layers = (
{
anchors = (
{
name = H;
position = "{370, 0}";
},
{
name = L;
position = "{335, -100}";
},
{
name = U;
position = "{560, 1635}";
}
);
layerId = "CEA11641-8665-47E8-AF62-91D5E9FF7384";
paths = (
{
closed = 1;
nodes = (
"40 811 LINE",
"231 811 LINE",
"231 0 LINE",
"436 0 LINE",
"415 100 OFFCURVE",
"407 286 OFFCURVE",
"407 471 CURVE SMOOTH",
"407 811 LINE",
"665 811 LINE",
"665 949 LINE",
"407 949 LINE",
"407 1154 LINE SMOOTH",
"407 1317 OFFCURVE",
"461 1383 OFFCURVE",
"560 1383 CURVE SMOOTH",
"615 1383 OFFCURVE",
"679 1361 OFFCURVE",
"727 1326 CURVE",
"770 1479 LINE",
"711 1521 OFFCURVE",
"634 1545 OFFCURVE",
"560 1545 CURVE SMOOTH",
"354 1545 OFFCURVE",
"231 1402 OFFCURVE",
"231 1116 CURVE SMOOTH",
"231 949 LINE",
"40 949 LINE"
);
}
);
width = 750;
},
{
anchors = (
{
name = H;
position = "{370, 0}";
},
{
name = L;
position = "{335, -100}";
},
{
name = U;
position = "{560, 1635}";
}
);
layerId = "F475B0A9-7A87-46A7-B4AD-E82CB5471E06";
paths = (
{
closed = 1;
nodes = (
"40 811 LINE",
"231 811 LINE",
"231 0 LINE",
"436 0 LINE",
"415 100 OFFCURVE",
"407 286 OFFCURVE",
"407 471 CURVE SMOOTH",
"407 811 LINE",
"665 811 LINE",
"665 949 LINE",
"407 949 LINE",
"407 1154 LINE SMOOTH",
"407 1317 OFFCURVE",
"461 1383 OFFCURVE",
"560 1383 CURVE SMOOTH",
"615 1383 OFFCURVE",
"679 1361 OFFCURVE",
"727 1326 CURVE",
"770 1479 LINE",
"711 1521 OFFCURVE",
"634 1545 OFFCURVE",
"560 1545 CURVE SMOOTH",
"354 1545 OFFCURVE",
"231 1402 OFFCURVE",
"231 1116 CURVE SMOOTH",
"231 949 LINE",
"40 949 LINE"
);
}
);
width = 750;
}
);
unicode = 0066;
},
{
glyphname = LtnSmG;
production = g;
layers = (
{
anchors = (
{
name = L;
position = "{555, -500}";
},
{
name = R;
position = "{1125, 1000}";
},
{
name = U;
position = "{595, 1100}";
}
);
layerId = "CEA11641-8665-47E8-AF62-91D5E9FF7384";
paths = (
{
closed = 1;
nodes = (
"949 899 LINE",
"845 933 OFFCURVE",
"717 971 OFFCURVE",
"601 971 CURVE SMOOTH",
"253 971 OFFCURVE",
"105 686 OFFCURVE",
"105 393 CURVE SMOOTH",
"105 90 OFFCURVE",
"268 -26 OFFCURVE",
"444 -26 CURVE SMOOTH",
"549 -26 OFFCURVE",
"674 39 OFFCURVE",
"773 164 CURVE",
"773 -31 LINE SMOOTH",
"773 -252 OFFCURVE",
"614 -317 OFFCURVE",
"515 -317 CURVE SMOOTH",
"421 -317 OFFCURVE",
"328 -273 OFFCURVE",
"239 -208 CURVE",
"177 -356 LINE",
"278 -424 OFFCURVE",
"404 -470 OFFCURVE",
"525 -470 CURVE SMOOTH",
"737 -470 OFFCURVE",
"949 -334 OFFCURVE",
"949 2 CURVE SMOOTH"
);
},
{
closed = 1;
nodes = (
"773 355 LINE",
"690 215 OFFCURVE",
"559 136 OFFCURVE",
"463 136 CURVE SMOOTH",
"360 136 OFFCURVE",
"281 205 OFFCURVE",
"281 441 CURVE SMOOTH",
"281 621 OFFCURVE",
"364 808 OFFCURVE",
"572 808 CURVE SMOOTH",
"631 808 OFFCURVE",
"713 793 OFFCURVE",
"773 770 CURVE"
);
}
);
width = 1125;
},
{
anchors = (
{
name = L;
position = "{555, -500}";
},
{
name = R;
position = "{1125, 1000}";
},
{
name = U;
position = "{595, 1100}";
}
);
layerId = "F475B0A9-7A87-46A7-B4AD-E82CB5471E06";
paths = (
{
closed = 1;
nodes = (
"949 899 LINE",
"845 933 OFFCURVE",
"717 971 OFFCURVE",
"601 971 CURVE SMOOTH",
"253 971 OFFCURVE",
"105 686 OFFCURVE",
"105 393 CURVE SMOOTH",
"105 90 OFFCURVE",
"268 -26 OFFCURVE",
"444 -26 CURVE SMOOTH",
"549 -26 OFFCURVE",
"674 39 OFFCURVE",
"773 164 CURVE",
"773 -31 LINE SMOOTH",
"773 -252 OFFCURVE",
"614 -317 OFFCURVE",
"515 -317 CURVE SMOOTH",
"421 -317 OFFCURVE",
"328 -273 OFFCURVE",
"239 -208 CURVE",
"177 -356 LINE",
"278 -424 OFFCURVE",
"404 -470 OFFCURVE",
"525 -470 CURVE SMOOTH",
"737 -470 OFFCURVE",
"949 -334 OFFCURVE",
"949 2 CURVE SMOOTH"
);
},
{
closed = 1;
nodes = (
"773 355 LINE",
"690 215 OFFCURVE",
"559 136 OFFCURVE",
"463 136 CURVE SMOOTH",
"360 136 OFFCURVE",
"281 205 OFFCURVE",
"281 441 CURVE SMOOTH",
"281 621 OFFCURVE",
"364 808 OFFCURVE",
"572 808 CURVE SMOOTH",
"631 808 OFFCURVE",
"713 793 OFFCURVE",
"773 770 CURVE"
);
}
);
width = 1125;
}
);
unicode = 0067;
},
{
glyphname = LtnSmH;
production = h;
layers = (
{
anchors = (
{
name = H;
position = "{250, 0}";
},
{
name = L;
position = "{585, -100}";
},
{
name = U;
position = "{585, 1635}";
}
);
layerId = "CEA11641-8665-47E8-AF62-91D5E9FF7384";
paths = (
{
closed = 1;
nodes = (
"998 0 LINE",
"998 0 OFFCURVE",
"998 438 OFFCURVE",
"998 596 CURVE SMOOTH",
"998 859 OFFCURVE",
"887 992 OFFCURVE",
"683 992 CURVE SMOOTH",
"550 992 OFFCURVE",
"414 924 OFFCURVE",
"321 792 CURVE",
"321 837 OFFCURVE",
"321 1526 OFFCURVE",
"321 1526 CURVE",
"130 1526 LINE",
"144 1444 OFFCURVE",
"144 1283 OFFCURVE",
"144 1078 CURVE SMOOTH",
"144 892 OFFCURVE",
"144 0 OFFCURVE",
"144 0 CURVE",
"321 0 LINE",
"321 553 LINE",
"363 683 OFFCURVE",
"493 825 OFFCURVE",
"631 825 CURVE SMOOTH",
"759 825 OFFCURVE",
"822 763 OFFCURVE",
"822 525 CURVE SMOOTH",
"822 394 OFFCURVE",
"822 0 OFFCURVE",
"822 0 CURVE"
);
}
);
width = 1175;
},
{
anchors = (
{
name = H;
position = "{250, 0}";
},
{
name = L;
position = "{585, -100}";
},
{
name = U;
position = "{585, 1635}";
}
);
layerId = "F475B0A9-7A87-46A7-B4AD-E82CB5471E06";
paths = (
{
closed = 1;
nodes = (
"998 0 LINE",
"998 0 OFFCURVE",
"998 438 OFFCURVE",
"998 596 CURVE SMOOTH",
"998 859 OFFCURVE",
"887 992 OFFCURVE",
"683 992 CURVE SMOOTH",
"550 992 OFFCURVE",
"414 924 OFFCURVE",
"321 792 CURVE",
"321 837 OFFCURVE",
"321 1526 OFFCURVE",
"321 1526 CURVE",
"130 1526 LINE",
"144 1444 OFFCURVE",
"144 1283 OFFCURVE",
"144 1078 CURVE SMOOTH",
"144 892 OFFCURVE",
"144 0 OFFCURVE",
"144 0 CURVE",
"321 0 LINE",
"321 553 LINE",
"363 683 OFFCURVE",
"493 825 OFFCURVE",
"631 825 CURVE SMOOTH",
"759 825 OFFCURVE",
"822 763 OFFCURVE",
"822 525 CURVE SMOOTH",
"822 394 OFFCURVE",
"822 0 OFFCURVE",
"822 0 CURVE"
);
}
);
width = 1175;
}
);
unicode = 0068;
},
{
glyphname = LtnSmI;
production = i;
layers = (
{
anchors = (
{
name = H;
position = "{282, 0}";
},
{
name = L;
position = "{285, -100}";
},
{
name = O;
position = "{500, 0}";
},
{
name = R;
position = "{555, 1000}";
},
{
name = U;
position = "{282, 1100}";
}
);
layerId = "CEA11641-8665-47E8-AF62-91D5E9FF7384";
paths = (
{
closed = 1;
nodes = (
"365 973 LINE",
"174 973 LINE",
"186 873 OFFCURVE",
"188 692 OFFCURVE",
"188 506 CURVE SMOOTH",
"188 321 OFFCURVE",
"188 0 OFFCURVE",
"188 0 CURVE",
"384 0 LINE",
"372 102 OFFCURVE",
"365 330 OFFCURVE",
"365 453 CURVE SMOOTH"
);
},
{
closed = 1;
nodes = (
"155 1283 CURVE SMOOTH",
"155 1213 OFFCURVE",
"204 1154 OFFCURVE",
"274 1154 CURVE SMOOTH",
"346 1154 OFFCURVE",
"398 1213 OFFCURVE",
"398 1283 CURVE SMOOTH",
"398 1354 OFFCURVE",
"346 1412 OFFCURVE",
"274 1412 CURVE SMOOTH",
"204 1412 OFFCURVE",
"155 1354 OFFCURVE"
);
}
);
width = 565;
},
{
anchors = (
{
name = H;
position = "{282, 0}";
},
{
name = L;
position = "{285, -100}";
},
{
name = O;
position = "{500, 0}";
},
{
name = R;
position = "{555, 1000}";
},
{
name = U;
position = "{282, 1100}";
}
);
layerId = "F475B0A9-7A87-46A7-B4AD-E82CB5471E06";
paths = (
{
closed = 1;
nodes = (
"365 973 LINE",
"174 973 LINE",
"186 873 OFFCURVE",
"188 692 OFFCURVE",
"188 506 CURVE SMOOTH",
"188 321 OFFCURVE",
"188 0 OFFCURVE",
"188 0 CURVE",
"384 0 LINE",
"372 102 OFFCURVE",
"365 330 OFFCURVE",
"365 453 CURVE SMOOTH"
);
},
{
closed = 1;
nodes = (
"155 1283 CURVE SMOOTH",
"155 1213 OFFCURVE",
"204 1154 OFFCURVE",
"274 1154 CURVE SMOOTH",
"346 1154 OFFCURVE",
"398 1213 OFFCURVE",
"398 1283 CURVE SMOOTH",
"398 1354 OFFCURVE",
"346 1412 OFFCURVE",
"274 1412 CURVE SMOOTH",
"204 1412 OFFCURVE",
"155 1354 OFFCURVE"
);
}
);
width = 565;
}
);
unicode = 0069;
},
{
glyphname = LtnSmJ;
production = j;
layers = (
{
anchors = (
{
name = L;
position = "{125, -500}";
},
{
name = U;
position = "{313, 1100}";
}
);
layerId = "CEA11641-8665-47E8-AF62-91D5E9FF7384";
paths = (
{
closed = 1;
nodes = (
"378 951 LINE",
"187 951 LINE",
"199 851 OFFCURVE",
"201 670 OFFCURVE",
"201 484 CURVE",
"201 -45 LINE",
"201 -233 OFFCURVE",
"131 -308 OFFCURVE",
"29 -308 CURVE SMOOTH",
"-24 -308 OFFCURVE",
"-115 -282 OFFCURVE",
"-157 -251 CURVE",
"-190 -408 LINE",
"-133 -447 OFFCURVE",
"-34 -470 OFFCURVE",
"20 -470 CURVE SMOOTH",
"237 -470 OFFCURVE",
"378 -354 OFFCURVE",
"378 2 CURVE SMOOTH"
);
},
{
closed = 1;
nodes = (
"168 1262 CURVE SMOOTH",
"168 1191 OFFCURVE",
"216 1133 OFFCURVE",
"287 1133 CURVE SMOOTH",
"359 1133 OFFCURVE",
"411 1191 OFFCURVE",
"411 1262 CURVE SMOOTH",
"411 1332 OFFCURVE",
"359 1390 OFFCURVE",
"287 1390 CURVE SMOOTH",
"216 1390 OFFCURVE",
"168 1332 OFFCURVE"
);
}
);
width = 595;
},
{
anchors = (
{
name = L;
position = "{125, -500}";
},
{
name = U;
position = "{313, 1100}";
}
);
layerId = "F475B0A9-7A87-46A7-B4AD-E82CB5471E06";
paths = (
{
closed = 1;
nodes = (
"378 951 LINE",
"187 951 LINE",
"199 851 OFFCURVE",
"201 670 OFFCURVE",
"201 484 CURVE",
"201 -45 LINE",
"201 -233 OFFCURVE",
"131 -308 OFFCURVE",
"29 -308 CURVE SMOOTH",
"-24 -308 OFFCURVE",
"-115 -282 OFFCURVE",
"-157 -251 CURVE",
"-190 -408 LINE",
"-133 -447 OFFCURVE",
"-34 -470 OFFCURVE",
"20 -470 CURVE SMOOTH",
"237 -470 OFFCURVE",
"378 -354 OFFCURVE",
"378 2 CURVE SMOOTH"
);
},
{
closed = 1;
nodes = (
"168 1262 CURVE SMOOTH",
"168 1191 OFFCURVE",
"216 1133 OFFCURVE",
"287 1133 CURVE SMOOTH",
"359 1133 OFFCURVE",
"411 1191 OFFCURVE",
"411 1262 CURVE SMOOTH",
"411 1332 OFFCURVE",
"359 1390 OFFCURVE",
"287 1390 CURVE SMOOTH",
"216 1390 OFFCURVE",
"168 1332 OFFCURVE"
);
}
);
width = 595;
}
);
unicode = 006A;
},
{
glyphname = LtnSmK;
production = k;
layers = (
{
anchors = (
{
name = H;
position = "{880, 0}";
},
{
name = L;
position = "{572, -100}";
},
{
name = R;
position = "{1035, 1000}";
},
{
name = U;
position = "{572, 1635}";
}
);
layerId = "CEA11641-8665-47E8-AF62-91D5E9FF7384";
paths = (
{
closed = 1;
nodes = (
"321 0 LINE",
"321 1526 LINE",
"130 1526 LINE",
"144 1444 OFFCURVE",
"144 1283 OFFCURVE",
"144 1078 CURVE SMOOTH",
"144 891 OFFCURVE",
"144 0 OFFCURVE",
"144 0 CURVE"
);
},
{
closed = 1;
nodes = (
"707 973 LINE",
"273 525 LINE",
"422 500 LINE",
"946 973 LINE"
);
},
{
closed = 1;
nodes = (
"297 525 LINE",
"741 0 LINE",
"974 0 LINE",
"397 630 LINE"
);
}
);
width = 1035;
},
{
anchors = (
{
name = H;
position = "{880, 0}";
},
{
name = L;
position = "{572, -100}";
},
{
name = R;
position = "{1035, 1000}";
},
{
name = U;
position = "{572, 1635}";
}
);
layerId = "F475B0A9-7A87-46A7-B4AD-E82CB5471E06";
paths = (
{
closed = 1;
nodes = (
"321 0 LINE",
"321 1526 LINE",
"130 1526 LINE",
"144 1444 OFFCURVE",
"144 1283 OFFCURVE",
"144 1078 CURVE SMOOTH",
"144 891 OFFCURVE",
"144 0 OFFCURVE",
"144 0 CURVE"
);
},
{
closed = 1;
nodes = (
"707 973 LINE",
"273 525 LINE",
"422 500 LINE",
"946 973 LINE"
);
},
{
closed = 1;
nodes = (
"297 525 LINE",
"741 0 LINE",
"974 0 LINE",
"397 630 LINE"
);
}
);
width = 1035;
}
);
unicode = 006B;
},
{
glyphname = LtnSmL;
production = l;
layers = (
{
anchors = (
{
name = H;
position = "{290, 0}";
},
{
name = L;
position = "{290, -100}";
},
{
name = R;
position = "{550, 1000}";
},
{
name = U;
position = "{282, 1635}";
}
);
layerId = "CEA11641-8665-47E8-AF62-91D5E9FF7384";
paths = (
{
closed = 1;
nodes = (
"366 1526 LINE",
"170 1526 LINE",
"182 1417 OFFCURVE",
"189 1263 OFFCURVE",
"189 1078 CURVE",
"189 0 LINE",
"385 0 LINE",
"372 104 OFFCURVE",
"366 330 OFFCURVE",
"366 453 CURVE SMOOTH"
);
}
);
width = 565;
},
{
anchors = (
{
name = H;
position = "{290, 0}";
},
{
name = L;
position = "{290, -100}";
},
{
name = R;
position = "{550, 1000}";
},
{
name = U;
position = "{282, 1635}";
}
);
layerId = "F475B0A9-7A87-46A7-B4AD-E82CB5471E06";
paths = (
{
closed = 1;
nodes = (
"366 1526 LINE",
"170 1526 LINE",
"182 1417 OFFCURVE",
"189 1263 OFFCURVE",
"189 1078 CURVE",
"189 0 LINE",
"385 0 LINE",
"372 104 OFFCURVE",
"366 330 OFFCURVE",
"366 453 CURVE SMOOTH"
);
}
);
width = 565;
}
);
unicode = 006C;
},
{
glyphname = LtnSmM;
production = m;
layers = (
{
anchors = (
{
name = H;
position = "{865, 0}";
},
{
name = L;
position = "{865, -100}";
},
{
name = U;
position = "{865, 1100}";
}
);
layerId = "CEA11641-8665-47E8-AF62-91D5E9FF7384";
paths = (
{
closed = 1;
nodes = (
"907 630 LINE",
"963 749 OFFCURVE",
"1057 825 OFFCURVE",
"1151 825 CURVE SMOOTH",
"1257 825 OFFCURVE",
"1289 771 OFFCURVE",
"1289 525 CURVE SMOOTH",
"1289 0 LINE",
"1465 0 LINE",
"1465 630 LINE SMOOTH",
"1465 865 OFFCURVE",
"1401 992 OFFCURVE",
"1208 992 CURVE SMOOTH",
"1108 992 OFFCURVE",
"1004 961 OFFCURVE",
"884 832 CURVE",
"853 916 OFFCURVE",
"775 992 OFFCURVE",
"650 992 CURVE SMOOTH",
"540 992 OFFCURVE",
"444 960 OFFCURVE",
"327 825 CURVE",
"321 871 OFFCURVE",
"311 933 OFFCURVE",
"297 973 CURVE",
"125 973 LINE",
"145 907 OFFCURVE",
"173 774 OFFCURVE",
"173 587 CURVE SMOOTH",
"173 0 LINE",
"349 0 LINE",
"349 630 LINE",
"400 744 OFFCURVE",
"499 825 OFFCURVE",
"592 825 CURVE SMOOTH",
"699 825 OFFCURVE",
"731 780 OFFCURVE",
"731 544 CURVE SMOOTH",
"731 0 LINE",
"907 0 LINE"
);
}
);
width = 1685;
},
{
anchors = (
{
name = H;
position = "{865, 0}";
},
{
name = L;
position = "{865, -100}";
},
{
name = U;
position = "{865, 1100}";
}
);
layerId = "F475B0A9-7A87-46A7-B4AD-E82CB5471E06";
paths = (
{
closed = 1;
nodes = (
"907 630 LINE",
"963 749 OFFCURVE",
"1057 825 OFFCURVE",
"1151 825 CURVE SMOOTH",
"1257 825 OFFCURVE",
"1289 771 OFFCURVE",
"1289 525 CURVE SMOOTH",
"1289 0 LINE",
"1465 0 LINE",
"1465 630 LINE SMOOTH",
"1465 865 OFFCURVE",
"1401 992 OFFCURVE",
"1208 992 CURVE SMOOTH",
"1108 992 OFFCURVE",
"1004 961 OFFCURVE",
"884 832 CURVE",
"853 916 OFFCURVE",
"775 992 OFFCURVE",
"650 992 CURVE SMOOTH",
"540 992 OFFCURVE",
"444 960 OFFCURVE",
"327 825 CURVE",
"321 871 OFFCURVE",
"311 933 OFFCURVE",
"297 973 CURVE",
"125 973 LINE",
"145 907 OFFCURVE",
"173 774 OFFCURVE",
"173 587 CURVE SMOOTH",
"173 0 LINE",
"349 0 LINE",
"349 630 LINE",
"400 744 OFFCURVE",
"499 825 OFFCURVE",
"592 825 CURVE SMOOTH",
"699 825 OFFCURVE",
"731 780 OFFCURVE",
"731 544 CURVE SMOOTH",
"731 0 LINE",
"907 0 LINE"
);
}
);
width = 1685;
}
);
unicode = 006D;
},
{
glyphname = LtnSmN;
production = n;
layers = (
{
anchors = (
{
name = H;
position = "{600, 0}";
},
{
name = L;
position = "{600, -100}";
},
{
name = U;
position = "{600, 1100}";
}
);
layerId = "CEA11641-8665-47E8-AF62-91D5E9FF7384";
paths = (
{
closed = 1;
nodes = (
"1007 0 LINE",
"1007 0 OFFCURVE",
"1007 438 OFFCURVE",
"1007 596 CURVE SMOOTH",
"1007 859 OFFCURVE",
"895 992 OFFCURVE",
"692 992 CURVE SMOOTH",
"557 992 OFFCURVE",
"436 932 OFFCURVE",
"315 787 CURVE",
"308 833 OFFCURVE",
"291 933 OFFCURVE",
"277 973 CURVE",
"105 973 LINE",
"126 907 OFFCURVE",
"153 774 OFFCURVE",
"153 587 CURVE SMOOTH",
"153 401 OFFCURVE",
"153 0 OFFCURVE",
"153 0 CURVE",
"329 0 LINE",
"329 553 LINE",
"371 683 OFFCURVE",
"502 825 OFFCURVE",
"639 825 CURVE SMOOTH",
"768 825 OFFCURVE",
"830 763 OFFCURVE",
"830 525 CURVE SMOOTH",
"830 394 OFFCURVE",
"830 0 OFFCURVE",
"830 0 CURVE"
);
}
);
width = 1185;
},
{
anchors = (
{
name = H;
position = "{600, 0}";
},
{
name = L;
position = "{600, -100}";
},
{
name = U;
position = "{600, 1100}";
}
);
layerId = "F475B0A9-7A87-46A7-B4AD-E82CB5471E06";
paths = (
{
closed = 1;
nodes = (
"1007 0 LINE",
"1007 0 OFFCURVE",
"1007 438 OFFCURVE",
"1007 596 CURVE SMOOTH",
"1007 859 OFFCURVE",
"895 992 OFFCURVE",
"692 992 CURVE SMOOTH",
"557 992 OFFCURVE",
"436 932 OFFCURVE",
"315 787 CURVE",
"308 833 OFFCURVE",
"291 933 OFFCURVE",
"277 973 CURVE",
"105 973 LINE",
"126 907 OFFCURVE",
"153 774 OFFCURVE",
"153 587 CURVE SMOOTH",
"153 401 OFFCURVE",
"153 0 OFFCURVE",
"153 0 CURVE",
"329 0 LINE",
"329 553 LINE",
"371 683 OFFCURVE",
"502 825 OFFCURVE",
"639 825 CURVE SMOOTH",
"768 825 OFFCURVE",
"830 763 OFFCURVE",
"830 525 CURVE SMOOTH",
"830 394 OFFCURVE",
"830 0 OFFCURVE",
"830 0 CURVE"
);
}
);
width = 1185;
}
);
unicode = 006E;
},
{
glyphname = LtnSmO;
production = o;
layers = (
{
anchors = (
{
name = H;
position = "{570, 0}";
},
{
name = L;
position = "{570, -100}";
},
{
name = O;
position = "{790, 0}";
},
{
name = R;
position = "{1140, 1000}";
},
{
name = U;
position = "{570, 1100}";
}
);
layerId = "CEA11641-8665-47E8-AF62-91D5E9FF7384";
paths = (
{
closed = 1;
nodes = (
"95 481 CURVE SMOOTH",
"95 152 OFFCURVE",
"277 -25 OFFCURVE",
"539 -25 CURVE SMOOTH",
"790 -25 OFFCURVE",
"1001 152 OFFCURVE",
"1001 481 CURVE SMOOTH",
"1001 809 OFFCURVE",
"820 991 OFFCURVE",
"558 991 CURVE SMOOTH",
"307 991 OFFCURVE",
"95 809 OFFCURVE"
);
},
{
closed = 1;
nodes = (
"271 481 CURVE SMOOTH",
"271 704 OFFCURVE",
"394 838 OFFCURVE",
"548 838 CURVE SMOOTH",
"712 838 OFFCURVE",
"825 704 OFFCURVE",
"825 481 CURVE SMOOTH",
"825 258 OFFCURVE",
"702 128 OFFCURVE",
"548 128 CURVE SMOOTH",
"384 128 OFFCURVE",
"271 258 OFFCURVE"
);
}
);
width = 1140;
},
{
anchors = (
{
name = H;
position = "{570, 0}";
},
{
name = L;
position = "{570, -100}";
},
{
name = O;
position = "{790, 0}";
},
{
name = R;
position = "{1140, 1000}";
},
{
name = U;
position = "{570, 1100}";
}
);
layerId = "F475B0A9-7A87-46A7-B4AD-E82CB5471E06";
paths = (
{
closed = 1;
nodes = (
"95 481 CURVE SMOOTH",
"95 152 OFFCURVE",
"277 -25 OFFCURVE",
"539 -25 CURVE SMOOTH",
"790 -25 OFFCURVE",
"1001 152 OFFCURVE",
"1001 481 CURVE SMOOTH",
"1001 809 OFFCURVE",
"820 991 OFFCURVE",
"558 991 CURVE SMOOTH",
"307 991 OFFCURVE",
"95 809 OFFCURVE"
);
},
{
closed = 1;
nodes = (
"271 481 CURVE SMOOTH",
"271 704 OFFCURVE",
"394 838 OFFCURVE",
"548 838 CURVE SMOOTH",
"712 838 OFFCURVE",
"825 704 OFFCURVE",
"825 481 CURVE SMOOTH",
"825 258 OFFCURVE",
"702 128 OFFCURVE",
"548 128 CURVE SMOOTH",
"384 128 OFFCURVE",
"271 258 OFFCURVE"
);
}
);
width = 1140;
}
);
unicode = 006F;
},
{
glyphname = LtnSmP;
production = p;
layers = (
{
anchors = (
{
name = H;
position = "{265, -435}";
},
{
name = L;
position = "{590, -500}";
},
{
name = R;
position = "{1170, 1000}";
},
{
name = U;
position = "{590, 1100}";
}
);
layerId = "CEA11641-8665-47E8-AF62-91D5E9FF7384";
paths = (
{
closed = 1;
nodes = (
"105 951 LINE",
"148 843 OFFCURVE",
"153 678 OFFCURVE",
"153 440 CURVE SMOOTH",
"153 255 OFFCURVE",
"153 -490 OFFCURVE",
"153 -490 CURVE",
"353 -490 LINE",
"337 -409 OFFCURVE",
"329 -318 OFFCURVE",
"329 -166 CURVE",
"329 59 LINE",
"420 -5 OFFCURVE",
"494 -46 OFFCURVE",
"596 -46 CURVE SMOOTH",
"836 -46 OFFCURVE",
"1030 162 OFFCURVE",
"1030 488 CURVE SMOOTH",
"1030 767 OFFCURVE",
"885 970 OFFCURVE",
"668 970 CURVE SMOOTH",
"527 970 OFFCURVE",
"405 888 OFFCURVE",
"315 769 CURVE",
"306 857 OFFCURVE",
"291 918 OFFCURVE",
"277 951 CURVE"
);
},
{
closed = 1;
nodes = (
"329 526 LINE",
"400 710 OFFCURVE",
"525 807 OFFCURVE",
"634 807 CURVE SMOOTH",
"772 807 OFFCURVE",
"854 671 OFFCURVE",
"854 459 CURVE SMOOTH",
"854 244 OFFCURVE",
"731 111 OFFCURVE",
"596 111 CURVE SMOOTH",
"509 111 OFFCURVE",
"460 134 OFFCURVE",
"329 226 CURVE"
);
}
);
width = 1170;
},
{
anchors = (
{
name = H;
position = "{265, -435}";
},
{
name = L;
position = "{590, -500}";
},
{
name = R;
position = "{1170, 1000}";
},
{
name = U;
position = "{590, 1100}";
}
);
layerId = "F475B0A9-7A87-46A7-B4AD-E82CB5471E06";
paths = (
{
closed = 1;
nodes = (
"105 951 LINE",
"148 843 OFFCURVE",
"153 678 OFFCURVE",
"153 440 CURVE SMOOTH",
"153 255 OFFCURVE",
"153 -490 OFFCURVE",
"153 -490 CURVE",
"353 -490 LINE",
"337 -409 OFFCURVE",
"329 -318 OFFCURVE",
"329 -166 CURVE",
"329 59 LINE",
"420 -5 OFFCURVE",
"494 -46 OFFCURVE",
"596 -46 CURVE SMOOTH",
"836 -46 OFFCURVE",
"1030 162 OFFCURVE",
"1030 488 CURVE SMOOTH",
"1030 767 OFFCURVE",
"885 970 OFFCURVE",
"668 970 CURVE SMOOTH",
"527 970 OFFCURVE",
"405 888 OFFCURVE",
"315 769 CURVE",
"306 857 OFFCURVE",
"291 918 OFFCURVE",
"277 951 CURVE"
);
},
{
closed = 1;
nodes = (
"329 526 LINE",
"400 710 OFFCURVE",
"525 807 OFFCURVE",
"634 807 CURVE SMOOTH",
"772 807 OFFCURVE",
"854 671 OFFCURVE",
"854 459 CURVE SMOOTH",
"854 244 OFFCURVE",
"731 111 OFFCURVE",
"596 111 CURVE SMOOTH",
"509 111 OFFCURVE",
"460 134 OFFCURVE",
"329 226 CURVE"
);
}
);
width = 1170;
}
);
unicode = 0070;
},
{
glyphname = LtnSmQ;
production = q;
layers = (
{
anchors = (
{
name = L;
position = "{555, -500}";
},
{
name = R;
position = "{1130, 1000}";
},
{
name = U;
position = "{555, 1100}";
}
);
layerId = "CEA11641-8665-47E8-AF62-91D5E9FF7384";
paths = (
{
closed = 1;
nodes = (
"763 -490 LINE",
"964 -490 LINE",
"947 -409 OFFCURVE",
"940 -318 OFFCURVE",
"940 -166 CURVE SMOOTH",
"940 -47 OFFCURVE",
"940 898 OFFCURVE",
"940 898 CURVE",
"837 932 OFFCURVE",
"717 970 OFFCURVE",
"601 970 CURVE SMOOTH",
"253 970 OFFCURVE",
"105 685 OFFCURVE",
"105 392 CURVE SMOOTH",
"105 89 OFFCURVE",
"311 -46 OFFCURVE",
"487 -46 CURVE SMOOTH",
"575 -46 OFFCURVE",
"664 -4 OFFCURVE",
"763 111 CURVE"
);
},
{
closed = 1;
nodes = (
"763 326 LINE",
"685 186 OFFCURVE",
"589 116 OFFCURVE",
"501 116 CURVE SMOOTH",
"398 116 OFFCURVE",
"281 204 OFFCURVE",
"281 440 CURVE SMOOTH",
"281 620 OFFCURVE",
"364 807 OFFCURVE",
"572 807 CURVE SMOOTH",
"631 807 OFFCURVE",
"706 791 OFFCURVE",
"763 769 CURVE"
);
}
);
width = 1130;
},
{
anchors = (
{
name = L;
position = "{555, -500}";
},
{
name = R;
position = "{1130, 1000}";
},
{
name = U;
position = "{555, 1100}";
}
);
layerId = "F475B0A9-7A87-46A7-B4AD-E82CB5471E06";
paths = (
{
closed = 1;
nodes = (
"763 -490 LINE",
"964 -490 LINE",
"947 -409 OFFCURVE",
"940 -318 OFFCURVE",
"940 -166 CURVE SMOOTH",
"940 -47 OFFCURVE",
"940 898 OFFCURVE",
"940 898 CURVE",
"837 932 OFFCURVE",
"717 970 OFFCURVE",
"601 970 CURVE SMOOTH",
"253 970 OFFCURVE",
"105 685 OFFCURVE",
"105 392 CURVE SMOOTH",
"105 89 OFFCURVE",
"311 -46 OFFCURVE",
"487 -46 CURVE SMOOTH",
"575 -46 OFFCURVE",
"664 -4 OFFCURVE",
"763 111 CURVE"
);
},
{
closed = 1;
nodes = (
"763 326 LINE",
"685 186 OFFCURVE",
"589 116 OFFCURVE",
"501 116 CURVE SMOOTH",
"398 116 OFFCURVE",
"281 204 OFFCURVE",
"281 440 CURVE SMOOTH",
"281 620 OFFCURVE",
"364 807 OFFCURVE",
"572 807 CURVE SMOOTH",
"631 807 OFFCURVE",
"706 791 OFFCURVE",
"763 769 CURVE"
);
}
);
width = 1130;
}
);
unicode = 0071;
},
{
glyphname = LtnSmR;
production = r;
layers = (
{
anchors = (
{
name = H;
position = "{270, 0}";
},
{
name = L;
position = "{255, -100}";
},
{
name = U;
position = "{455, 1100}";
}
);
layerId = "CEA11641-8665-47E8-AF62-91D5E9FF7384";
paths = (
{
closed = 1;
nodes = (
"329 0 LINE",
"329 553 LINE",
"371 683 OFFCURVE",
"502 820 OFFCURVE",
"582 820 CURVE SMOOTH",
"657 820 OFFCURVE",
"692 735 OFFCURVE",
"692 639 CURVE",
"844 673 LINE",
"844 840 OFFCURVE",
"784 992 OFFCURVE",
"625 992 CURVE SMOOTH",
"538 992 OFFCURVE",
"407 920 OFFCURVE",
"315 787 CURVE",
"308 833 OFFCURVE",
"291 933 OFFCURVE",
"277 973 CURVE",
"105 973 LINE",
"126 907 OFFCURVE",
"153 774 OFFCURVE",
"153 587 CURVE SMOOTH",
"153 0 LINE"
);
}
);
width = 890;
},
{
anchors = (
{
name = H;
position = "{270, 0}";
},
{
name = L;
position = "{255, -100}";
},
{
name = U;
position = "{455, 1100}";
}
);
layerId = "F475B0A9-7A87-46A7-B4AD-E82CB5471E06";
paths = (
{
closed = 1;
nodes = (
"329 0 LINE",
"329 553 LINE",
"371 683 OFFCURVE",
"502 820 OFFCURVE",
"582 820 CURVE SMOOTH",
"657 820 OFFCURVE",
"692 735 OFFCURVE",
"692 639 CURVE",
"844 673 LINE",
"844 840 OFFCURVE",
"784 992 OFFCURVE",
"625 992 CURVE SMOOTH",
"538 992 OFFCURVE",
"407 920 OFFCURVE",
"315 787 CURVE",
"308 833 OFFCURVE",
"291 933 OFFCURVE",
"277 973 CURVE",
"105 973 LINE",
"126 907 OFFCURVE",
"153 774 OFFCURVE",
"153 587 CURVE SMOOTH",
"153 0 LINE"
);
}
);
width = 890;
}
);
unicode = 0072;
},
{
glyphname = LtnSmS;
production = s;
layers = (
{
anchors = (
{
name = H;
position = "{495, 0}";
},
{
name = L;
position = "{495, -100}";
},
{
name = U;
position = "{495, 1100}";
}
);
layerId = "CEA11641-8665-47E8-AF62-91D5E9FF7384";
paths = (
{
closed = 1;
nodes = (
"802 915 LINE",
"736 951 OFFCURVE",
"635 991 OFFCURVE",
"496 991 CURVE SMOOTH",
"206 991 OFFCURVE",
"129 793 OFFCURVE",
"129 705 CURVE SMOOTH",
"129 587 OFFCURVE",
"179 489 OFFCURVE",
"411 433 CURVE SMOOTH",
"624 380 OFFCURVE",
"673 328 OFFCURVE",
"673 256 CURVE SMOOTH",
"673 191 OFFCURVE",
"594 128 OFFCURVE",
"482 128 CURVE SMOOTH",
"381 128 OFFCURVE",
"244 179 OFFCURVE",
"158 256 CURVE",
"110 85 LINE",
"185 26 OFFCURVE",
"323 -25 OFFCURVE",
"477 -25 CURVE SMOOTH",
"682 -25 OFFCURVE",
"845 109 OFFCURVE",
"845 280 CURVE SMOOTH",
"845 458 OFFCURVE",
"702 532 OFFCURVE",
"530 571 CURVE SMOOTH",
"329 617 OFFCURVE",
"301 648 OFFCURVE",
"301 714 CURVE SMOOTH",
"301 772 OFFCURVE",
"347 838 OFFCURVE",
"487 838 CURVE SMOOTH",
"605 838 OFFCURVE",
"704 785 OFFCURVE",
"768 748 CURVE"
);
}
);
width = 965;
},
{
anchors = (
{
name = H;
position = "{495, 0}";
},
{
name = L;
position = "{495, -100}";
},
{
name = U;
position = "{495, 1100}";
}
);
layerId = "F475B0A9-7A87-46A7-B4AD-E82CB5471E06";
paths = (
{
closed = 1;
nodes = (
"802 915 LINE",
"736 951 OFFCURVE",
"635 991 OFFCURVE",
"496 991 CURVE SMOOTH",
"206 991 OFFCURVE",
"129 793 OFFCURVE",
"129 705 CURVE SMOOTH",
"129 587 OFFCURVE",
"179 489 OFFCURVE",
"411 433 CURVE SMOOTH",
"624 380 OFFCURVE",
"673 328 OFFCURVE",
"673 256 CURVE SMOOTH",
"673 191 OFFCURVE",
"594 128 OFFCURVE",
"482 128 CURVE SMOOTH",
"381 128 OFFCURVE",
"244 179 OFFCURVE",
"158 256 CURVE",
"110 85 LINE",
"185 26 OFFCURVE",
"323 -25 OFFCURVE",
"477 -25 CURVE SMOOTH",
"682 -25 OFFCURVE",
"845 109 OFFCURVE",
"845 280 CURVE SMOOTH",
"845 458 OFFCURVE",
"702 532 OFFCURVE",
"530 571 CURVE SMOOTH",
"329 617 OFFCURVE",
"301 648 OFFCURVE",
"301 714 CURVE SMOOTH",
"301 772 OFFCURVE",
"347 838 OFFCURVE",
"487 838 CURVE SMOOTH",
"605 838 OFFCURVE",
"704 785 OFFCURVE",
"768 748 CURVE"
);
}
);
width = 965;
}
);
unicode = 0073;
},
{
glyphname = LtnSmT;
production = t;
layers = (
{
anchors = (
{
name = H;
position = "{475, 0}";
},
{
name = L;
position = "{475, -100}";
},
{
name = R;
position = "{835, 1000}";
},
{
name = U;
position = "{325, 1360}";
}
);
layerId = "CEA11641-8665-47E8-AF62-91D5E9FF7384";
paths = (
{
closed = 1;
nodes = (
"726 204 LINE",
"642 157 OFFCURVE",
"574 132 OFFCURVE",
"519 132 CURVE SMOOTH",
"434 132 OFFCURVE",
"397 174 OFFCURVE",
"397 371 CURVE SMOOTH",
"397 503 OFFCURVE",
"397 1258 OFFCURVE",
"397 1258 CURVE",
"221 1258 LINE",
"221 1258 OFFCURVE",
"221 414 OFFCURVE",
"221 256 CURVE SMOOTH",
"221 36 OFFCURVE",
"341 -25 OFFCURVE",
"490 -25 CURVE SMOOTH",
"557 -25 OFFCURVE",
"639 -5 OFFCURVE",
"726 51 CURVE"
);
},
{
closed = 1;
nodes = (
"30 810 LINE",
"707 810 LINE",
"707 948 LINE",
"30 948 LINE"
);
}
);
width = 835;
},
{
anchors = (
{
name = H;
position = "{475, 0}";
},
{
name = L;
position = "{475, -100}";
},
{
name = R;
position = "{835, 1000}";
},
{
name = U;
position = "{325, 1360}";
}
);
layerId = "F475B0A9-7A87-46A7-B4AD-E82CB5471E06";
paths = (
{
closed = 1;
nodes = (
"726 204 LINE",
"642 157 OFFCURVE",
"574 132 OFFCURVE",
"519 132 CURVE SMOOTH",
"434 132 OFFCURVE",
"397 174 OFFCURVE",
"397 371 CURVE SMOOTH",
"397 503 OFFCURVE",
"397 1258 OFFCURVE",
"397 1258 CURVE",
"221 1258 LINE",
"221 1258 OFFCURVE",
"221 414 OFFCURVE",
"221 256 CURVE SMOOTH",
"221 36 OFFCURVE",
"341 -25 OFFCURVE",
"490 -25 CURVE SMOOTH",
"557 -25 OFFCURVE",
"639 -5 OFFCURVE",
"726 51 CURVE"
);
},
{
closed = 1;
nodes = (
"30 810 LINE",
"707 810 LINE",
"707 948 LINE",
"30 948 LINE"
);
}
);
width = 835;
}
);
unicode = 0074;
},
{
glyphname = LtnSmU;
production = u;
layers = (
{
anchors = (
{
name = H;
position = "{525, 0}";
},
{
name = L;
position = "{589, -100}";
},
{
name = O;
position = "{700, 0}";
},
{
name = R;
position = "{1185, 1000}";
},
{
name = U;
position = "{589, 1100}";
}
);
layerId = "CEA11641-8665-47E8-AF62-91D5E9FF7384";
paths = (
{
closed = 1;
nodes = (
"1046 -1 LINE",
"1006 106 OFFCURVE",
"984 243 OFFCURVE",
"984 428 CURVE SMOOTH",
"984 615 OFFCURVE",
"984 972 OFFCURVE",
"984 972 CURVE",
"788 972 LINE",
"806 856 OFFCURVE",
"808 793 OFFCURVE",
"808 667 CURVE SMOOTH",
"808 400 LINE",
"757 283 OFFCURVE",
"605 132 OFFCURVE",
"493 132 CURVE SMOOTH",
"372 132 OFFCURVE",
"331 226 OFFCURVE",
"331 442 CURVE SMOOTH",
"331 574 OFFCURVE",
"331 972 OFFCURVE",
"331 972 CURVE",
"135 972 LINE",
"152 857 OFFCURVE",
"154 788 OFFCURVE",
"154 667 CURVE SMOOTH",
"154 649 OFFCURVE",
"154 403 OFFCURVE",
"154 385 CURVE SMOOTH",
"154 113 OFFCURVE",
"256 -25 OFFCURVE",
"459 -25 CURVE SMOOTH",
"593 -25 OFFCURVE",
"716 49 OFFCURVE",
"831 190 CURVE",
"841 118 OFFCURVE",
"866 43 OFFCURVE",
"884 -1 CURVE"
);
}
);
width = 1185;
},
{
anchors = (
{
name = H;
position = "{525, 0}";
},
{
name = L;
position = "{589, -100}";
},
{
name = O;
position = "{700, 0}";
},
{
name = R;
position = "{1185, 1000}";
},
{
name = U;
position = "{589, 1100}";
}
);
layerId = "F475B0A9-7A87-46A7-B4AD-E82CB5471E06";
paths = (
{
closed = 1;
nodes = (
"1046 -1 LINE",
"1006 106 OFFCURVE",
"984 243 OFFCURVE",
"984 428 CURVE SMOOTH",
"984 615 OFFCURVE",
"984 972 OFFCURVE",
"984 972 CURVE",
"788 972 LINE",
"806 856 OFFCURVE",
"808 793 OFFCURVE",
"808 667 CURVE SMOOTH",
"808 400 LINE",
"757 283 OFFCURVE",
"605 132 OFFCURVE",
"493 132 CURVE SMOOTH",
"372 132 OFFCURVE",
"331 226 OFFCURVE",
"331 442 CURVE SMOOTH",
"331 574 OFFCURVE",
"331 972 OFFCURVE",
"331 972 CURVE",
"135 972 LINE",
"152 857 OFFCURVE",
"154 788 OFFCURVE",
"154 667 CURVE SMOOTH",
"154 649 OFFCURVE",
"154 403 OFFCURVE",
"154 385 CURVE SMOOTH",
"154 113 OFFCURVE",
"256 -25 OFFCURVE",
"459 -25 CURVE SMOOTH",
"593 -25 OFFCURVE",
"716 49 OFFCURVE",
"831 190 CURVE",
"841 118 OFFCURVE",
"866 43 OFFCURVE",
"884 -1 CURVE"
);
}
);
width = 1185;
}
);
unicode = 0075;
},
{
glyphname = LtnSmV;
production = v;
layers = (
{
anchors = (
{
name = H;
position = "{549, 0}";
},
{
name = L;
position = "{535, -100}";
},
{
name = O;
position = "{725, 0}";
},
{
name = U;
position = "{535, 1100}";
}
);
layerId = "CEA11641-8665-47E8-AF62-91D5E9FF7384";
paths = (
{
closed = 1;
nodes = (
"802 973 LINE",
"511 191 LINE",
"220 973 LINE",
"20 973 LINE",
"72 863 OFFCURVE",
"137 712 OFFCURVE",
"168 634 CURVE SMOOTH",
"227 487 OFFCURVE",
"421 0 OFFCURVE",
"421 0 CURVE",
"602 0 LINE",
"602 0 OFFCURVE",
"804 511 OFFCURVE",
"855 634 CURVE SMOOTH",
"886 710 OFFCURVE",
"948 863 OFFCURVE",
"1003 973 CURVE"
);
}
);
width = 1070;
},
{
anchors = (
{
name = H;
position = "{549, 0}";
},
{
name = L;
position = "{535, -100}";
},
{
name = O;
position = "{725, 0}";
},
{
name = U;
position = "{535, 1100}";
}
);
layerId = "F475B0A9-7A87-46A7-B4AD-E82CB5471E06";
paths = (
{
closed = 1;
nodes = (
"802 973 LINE",
"511 191 LINE",
"220 973 LINE",
"20 973 LINE",
"72 863 OFFCURVE",
"137 712 OFFCURVE",
"168 634 CURVE SMOOTH",
"227 487 OFFCURVE",
"421 0 OFFCURVE",
"421 0 CURVE",
"602 0 LINE",
"602 0 OFFCURVE",
"804 511 OFFCURVE",
"855 634 CURVE SMOOTH",
"886 710 OFFCURVE",
"948 863 OFFCURVE",
"1003 973 CURVE"
);
}
);
width = 1070;
}
);
unicode = 0076;
},
{
glyphname = LtnSmW;
production = w;
layers = (
{
anchors = (
{
name = L;
position = "{775, -100}";
},
{
name = U;
position = "{775, 1100}";
}
);
layerId = "CEA11641-8665-47E8-AF62-91D5E9FF7384";
paths = (
{
closed = 1;
nodes = (
"670 973 LINE",
"422 205 LINE",
"221 973 LINE",
"45 973 LINE",
"90 827 OFFCURVE",
"117 736 OFFCURVE",
"145 634 CURVE SMOOTH",
"322 0 LINE",
"503 0 LINE",
"741 749 LINE",
"980 0 LINE",
"1161 0 LINE",
"1338 634 LINE SMOOTH",
"1370 749 OFFCURVE",
"1393 828 OFFCURVE",
"1438 973 CURVE",
"1261 973 LINE",
"1061 205 LINE",
"813 973 LINE"
);
}
);
width = 1550;
},
{
anchors = (
{
name = L;
position = "{775, -100}";
},
{
name = U;
position = "{775, 1100}";
}
);
layerId = "F475B0A9-7A87-46A7-B4AD-E82CB5471E06";
paths = (
{
closed = 1;
nodes = (
"670 973 LINE",
"422 205 LINE",
"221 973 LINE",
"45 973 LINE",
"90 827 OFFCURVE",
"117 736 OFFCURVE",
"145 634 CURVE SMOOTH",
"322 0 LINE",
"503 0 LINE",
"741 749 LINE",
"980 0 LINE",
"1161 0 LINE",
"1338 634 LINE SMOOTH",
"1370 749 OFFCURVE",
"1393 828 OFFCURVE",
"1438 973 CURVE",
"1261 973 LINE",
"1061 205 LINE",
"813 973 LINE"
);
}
);
width = 1550;
}
);
unicode = 0077;
},
{
glyphname = LtnSmX;
production = x;
layers = (
{
anchors = (
{
name = H;
position = "{900, 0}";
},
{
name = L;
position = "{542, -100}";
},
{
name = U;
position = "{542, 1100}";
}
);
layerId = "CEA11641-8665-47E8-AF62-91D5E9FF7384";
paths = (
{
closed = 1;
nodes = (
"770 0 LINE",
"990 0 LINE",
"887 135 OFFCURVE",
"863 162 OFFCURVE",
"794 258 CURVE SMOOTH",
"279 973 LINE",
"60 973 LINE",
"163 846 OFFCURVE",
"196 804 OFFCURVE",
"260 716 CURVE"
);
},
{
closed = 1;
nodes = (
"469 588 LINE",
"241 258 LINE SMOOTH",
"183 174 OFFCURVE",
"155 136 OFFCURVE",
"50 0 CURVE",
"265 0 LINE",
"533 385 LINE"
);
},
{
closed = 1;
nodes = (
"560 386 LINE",
"785 716 LINE SMOOTH",
"845 803 OFFCURVE",
"877 845 OFFCURVE",
"975 973 CURVE",
"761 973 LINE",
"498 587 LINE"
);
}
);
width = 1085;
},
{
anchors = (
{
name = H;
position = "{900, 0}";
},
{
name = L;
position = "{542, -100}";
},
{
name = U;
position = "{542, 1100}";
}
);
layerId = "F475B0A9-7A87-46A7-B4AD-E82CB5471E06";
paths = (
{
closed = 1;
nodes = (
"770 0 LINE",
"990 0 LINE",
"887 135 OFFCURVE",
"863 162 OFFCURVE",
"794 258 CURVE SMOOTH",
"279 973 LINE",
"60 973 LINE",
"163 846 OFFCURVE",
"196 804 OFFCURVE",
"260 716 CURVE"
);
},
{
closed = 1;
nodes = (
"469 588 LINE",
"241 258 LINE SMOOTH",
"183 174 OFFCURVE",
"155 136 OFFCURVE",
"50 0 CURVE",
"265 0 LINE",
"533 385 LINE"
);
},
{
closed = 1;
nodes = (
"560 386 LINE",
"785 716 LINE SMOOTH",
"845 803 OFFCURVE",
"877 845 OFFCURVE",
"975 973 CURVE",
"761 973 LINE",
"498 587 LINE"
);
}
);
width = 1085;
}
);
unicode = 0078;
},
{
glyphname = LtnSmY;
production = y;
layers = (
{
anchors = (
{
name = L;
position = "{795, -100}";
},
{
name = R;
position = "{1120, 1000}";
},
{
name = U;
position = "{535, 1100}";
}
);
layerId = "CEA11641-8665-47E8-AF62-91D5E9FF7384";
paths = (
{
closed = 1;
nodes = (
"581 36 LINE",
"219 951 LINE",
"28 951 LINE",
"101 803 OFFCURVE",
"145 700 OFFCURVE",
"180 613 CURVE SMOOTH",
"500 -179 LINE"
);
},
{
closed = 1;
nodes = (
"853 613 LINE",
"884 702 OFFCURVE",
"925 804 OFFCURVE",
"991 951 CURVE",
"800 951 LINE",
"800 951 OFFCURVE",
"537 198 OFFCURVE",
"476 31 CURVE SMOOTH",
"372 -258 OFFCURVE",
"300 -308 OFFCURVE",
"214 -308 CURVE SMOOTH",
"151 -308 OFFCURVE",
"77 -270 OFFCURVE",
"37 -236 CURVE",
"-20 -389 LINE",
"50 -440 OFFCURVE",
"127 -470 OFFCURVE",
"214 -470 CURVE SMOOTH",
"376 -470 OFFCURVE",
"491 -387 OFFCURVE",
"624 -22 CURVE"
);
}
);
width = 1060;
},
{
anchors = (
{
name = L;
position = "{795, -100}";
},
{
name = R;
position = "{1120, 1000}";
},
{
name = U;
position = "{535, 1100}";
}
);
layerId = "F475B0A9-7A87-46A7-B4AD-E82CB5471E06";
paths = (
{
closed = 1;
nodes = (
"581 36 LINE",
"219 951 LINE",
"28 951 LINE",
"101 803 OFFCURVE",
"145 700 OFFCURVE",
"180 613 CURVE SMOOTH",
"500 -179 LINE"
);
},
{
closed = 1;
nodes = (
"853 613 LINE",
"884 702 OFFCURVE",
"925 804 OFFCURVE",
"991 951 CURVE",
"800 951 LINE",
"800 951 OFFCURVE",
"537 198 OFFCURVE",
"476 31 CURVE SMOOTH",
"372 -258 OFFCURVE",
"300 -308 OFFCURVE",
"214 -308 CURVE SMOOTH",
"151 -308 OFFCURVE",
"77 -270 OFFCURVE",
"37 -236 CURVE",
"-20 -389 LINE",
"50 -440 OFFCURVE",
"127 -470 OFFCURVE",
"214 -470 CURVE SMOOTH",
"376 -470 OFFCURVE",
"491 -387 OFFCURVE",
"624 -22 CURVE"
);
}
);
width = 1060;
}
);
unicode = 0079;
},
{
glyphname = LtnSmZ;
production = z;
layers = (
{
anchors = (
{
name = H;
position = "{525, 0}";
},
{
name = L;
position = "{525, -100}";
},
{
name = U;
position = "{525, 1100}";
}
);
layerId = "CEA11641-8665-47E8-AF62-91D5E9FF7384";
paths = (
{
closed = 1;
nodes = (
"134 973 LINE",
"134 816 LINE",
"169 830 OFFCURVE",
"225 830 OFFCURVE",
"281 830 CURVE SMOOTH",
"654 830 LINE",
"105 105 LINE",
"105 0 LINE",
"906 0 LINE",
"906 157 LINE",
"849 143 OFFCURVE",
"790 143 OFFCURVE",
"735 143 CURVE SMOOTH",
"324 143 LINE",
"892 882 LINE",
"892 973 LINE"
);
}
);
width = 1040;
},
{
anchors = (
{
name = H;
position = "{525, 0}";
},
{
name = L;
position = "{525, -100}";
},
{
name = U;
position = "{525, 1100}";
}
);
layerId = "F475B0A9-7A87-46A7-B4AD-E82CB5471E06";
paths = (
{
closed = 1;
nodes = (
"134 973 LINE",
"134 816 LINE",
"169 830 OFFCURVE",
"225 830 OFFCURVE",
"281 830 CURVE SMOOTH",
"654 830 LINE",
"105 105 LINE",
"105 0 LINE",
"906 0 LINE",
"906 157 LINE",
"849 143 OFFCURVE",
"790 143 OFFCURVE",
"735 143 CURVE SMOOTH",
"324 143 LINE",
"892 882 LINE",
"892 973 LINE"
);
}
);
width = 1040;
}
);
unicode = 007A;
},
{
glyphname = LftCurlyBrac;
production = braceleft;
layers = (
{
layerId = "CEA11641-8665-47E8-AF62-91D5E9FF7384";
paths = (
{
closed = 1;
nodes = (
"210 568 CURVE SMOOTH",
"210 537 OFFCURVE",
"375 445 OFFCURVE",
"401 410 CURVE SMOOTH",
"424 380 OFFCURVE",
"414 -214 OFFCURVE",
"482 -291 CURVE SMOOTH",
"520 -334 OFFCURVE",
"674 -384 OFFCURVE",
"773 -410 CURVE",
"811 -276 LINE",
"747 -254 OFFCURVE",
"630 -208 OFFCURVE",
"611 -181 CURVE SMOOTH",
"579 -136 OFFCURVE",
"592 408 OFFCURVE",
"573 444 CURVE SMOOTH",
"554 478 OFFCURVE",
"424 547 OFFCURVE",
"420 568 CURVE",
"424 589 OFFCURVE",
"554 658 OFFCURVE",
"573 692 CURVE SMOOTH",
"592 728 OFFCURVE",
"579 1272 OFFCURVE",
"611 1317 CURVE SMOOTH",
"630 1343 OFFCURVE",
"747 1390 OFFCURVE",
"811 1412 CURVE",
"773 1546 LINE",
"674 1520 OFFCURVE",
"520 1469 OFFCURVE",
"482 1426 CURVE SMOOTH",
"414 1350 OFFCURVE",
"424 756 OFFCURVE",
"401 725 CURVE SMOOTH",
"375 691 OFFCURVE",
"210 598 OFFCURVE"
);
}
);
width = 1000;
},
{
layerId = "F475B0A9-7A87-46A7-B4AD-E82CB5471E06";
paths = (
{
closed = 1;
nodes = (
"210 568 CURVE SMOOTH",
"210 537 OFFCURVE",
"375 445 OFFCURVE",
"401 410 CURVE SMOOTH",
"424 380 OFFCURVE",
"414 -214 OFFCURVE",
"482 -291 CURVE SMOOTH",
"520 -334 OFFCURVE",
"674 -384 OFFCURVE",
"773 -410 CURVE",
"811 -276 LINE",
"747 -254 OFFCURVE",
"630 -208 OFFCURVE",
"611 -181 CURVE SMOOTH",
"579 -136 OFFCURVE",
"592 408 OFFCURVE",
"573 444 CURVE SMOOTH",
"554 478 OFFCURVE",
"424 547 OFFCURVE",
"420 568 CURVE",
"424 589 OFFCURVE",
"554 658 OFFCURVE",
"573 692 CURVE SMOOTH",
"592 728 OFFCURVE",
"579 1272 OFFCURVE",
"611 1317 CURVE SMOOTH",
"630 1343 OFFCURVE",
"747 1390 OFFCURVE",
"811 1412 CURVE",
"773 1546 LINE",
"674 1520 OFFCURVE",
"520 1469 OFFCURVE",
"482 1426 CURVE SMOOTH",
"414 1350 OFFCURVE",
"424 756 OFFCURVE",
"401 725 CURVE SMOOTH",
"375 691 OFFCURVE",
"210 598 OFFCURVE"
);
}
);
width = 1000;
}
);
unicode = 007B;
},
{
glyphname = VertLine;
production = bar;
layers = (
{
layerId = "CEA11641-8665-47E8-AF62-91D5E9FF7384";
paths = (
{
closed = 1;
nodes = (
"270 1508 LINE",
"270 -390 LINE",
"413 -390 LINE",
"413 1508 LINE"
);
}
);
width = 690;
},
{
layerId = "F475B0A9-7A87-46A7-B4AD-E82CB5471E06";
paths = (
{
closed = 1;
nodes = (
"270 1508 LINE",
"270 -390 LINE",
"413 -390 LINE",
"413 1508 LINE"
);
}
);
width = 690;
}
);
unicode = 007C;
},
{
glyphname = RtCurlyBrac;
production = braceright;
layers = (
{
layerId = "CEA11641-8665-47E8-AF62-91D5E9FF7384";
paths = (
{
closed = 1;
nodes = (
"761 568 CURVE SMOOTH",
"761 598 OFFCURVE",
"596 691 OFFCURVE",
"570 725 CURVE SMOOTH",
"547 756 OFFCURVE",
"557 1350 OFFCURVE",
"489 1426 CURVE SMOOTH",
"451 1469 OFFCURVE",
"297 1520 OFFCURVE",
"198 1546 CURVE",
"160 1412 LINE",
"224 1390 OFFCURVE",
"341 1343 OFFCURVE",
"360 1317 CURVE SMOOTH",
"392 1272 OFFCURVE",
"379 728 OFFCURVE",
"399 692 CURVE SMOOTH",
"417 658 OFFCURVE",
"547 589 OFFCURVE",
"551 568 CURVE",
"547 547 OFFCURVE",
"417 478 OFFCURVE",
"399 444 CURVE SMOOTH",
"379 408 OFFCURVE",
"392 -136 OFFCURVE",
"360 -181 CURVE SMOOTH",
"341 -208 OFFCURVE",
"224 -254 OFFCURVE",
"160 -276 CURVE",
"198 -410 LINE",
"297 -384 OFFCURVE",
"451 -334 OFFCURVE",
"489 -291 CURVE SMOOTH",
"557 -214 OFFCURVE",
"547 380 OFFCURVE",
"570 410 CURVE SMOOTH",
"596 445 OFFCURVE",
"761 537 OFFCURVE"
);
}
);
width = 1000;
},
{
layerId = "F475B0A9-7A87-46A7-B4AD-E82CB5471E06";
paths = (
{
closed = 1;
nodes = (
"761 568 CURVE SMOOTH",
"761 598 OFFCURVE",
"596 691 OFFCURVE",
"570 725 CURVE SMOOTH",
"547 756 OFFCURVE",
"557 1350 OFFCURVE",
"489 1426 CURVE SMOOTH",
"451 1469 OFFCURVE",
"297 1520 OFFCURVE",
"198 1546 CURVE",
"160 1412 LINE",
"224 1390 OFFCURVE",
"341 1343 OFFCURVE",
"360 1317 CURVE SMOOTH",
"392 1272 OFFCURVE",
"379 728 OFFCURVE",
"399 692 CURVE SMOOTH",
"417 658 OFFCURVE",
"547 589 OFFCURVE",
"551 568 CURVE",
"547 547 OFFCURVE",
"417 478 OFFCURVE",
"399 444 CURVE SMOOTH",
"379 408 OFFCURVE",
"392 -136 OFFCURVE",
"360 -181 CURVE SMOOTH",
"341 -208 OFFCURVE",
"224 -254 OFFCURVE",
"160 -276 CURVE",
"198 -410 LINE",
"297 -384 OFFCURVE",
"451 -334 OFFCURVE",
"489 -291 CURVE SMOOTH",
"557 -214 OFFCURVE",
"547 380 OFFCURVE",
"570 410 CURVE SMOOTH",
"596 445 OFFCURVE",
"761 537 OFFCURVE"
);
}
);
width = 1000;
}
);
unicode = 007D;
},
{
glyphname = Tilde;
production = asciitilde;
layers = (
{
layerId = "CEA11641-8665-47E8-AF62-91D5E9FF7384";
paths = (
{
closed = 1;
nodes = (
"120 374 LINE",
"125 421 OFFCURVE",
"155 460 OFFCURVE",
"230 460 CURVE SMOOTH",
"397 460 OFFCURVE",
"588 360 OFFCURVE",
"807 360 CURVE SMOOTH",
"959 360 OFFCURVE",
"1031 476 OFFCURVE",
"1031 599 CURVE",
"931 599 LINE",
"924 555 OFFCURVE",
"896 503 OFFCURVE",
"817 503 CURVE SMOOTH",
"591 503 OFFCURVE",
"441 603 OFFCURVE",
"230 603 CURVE SMOOTH",
"91 603 OFFCURVE",
"20 491 OFFCURVE",
"20 374 CURVE"
);
}
);
width = 1115;
},
{
layerId = "F475B0A9-7A87-46A7-B4AD-E82CB5471E06";
paths = (
{
closed = 1;
nodes = (
"120 374 LINE",
"125 421 OFFCURVE",
"155 460 OFFCURVE",
"230 460 CURVE SMOOTH",
"397 460 OFFCURVE",
"588 360 OFFCURVE",
"807 360 CURVE SMOOTH",
"959 360 OFFCURVE",
"1031 476 OFFCURVE",
"1031 599 CURVE",
"931 599 LINE",
"924 555 OFFCURVE",
"896 503 OFFCURVE",
"817 503 CURVE SMOOTH",
"591 503 OFFCURVE",
"441 603 OFFCURVE",
"230 603 CURVE SMOOTH",
"91 603 OFFCURVE",
"20 491 OFFCURVE",
"20 374 CURVE"
);
}
);
width = 1115;
}
);
unicode = 007E;
},
{
glyphname = InvExclamationMrk;
production = exclamdown;
layers = (
{
layerId = "CEA11641-8665-47E8-AF62-91D5E9FF7384";
paths = (
{
closed = 1;
nodes = (
"276 611 LINE",
"269 334 OFFCURVE",
"269 4 OFFCURVE",
"233 -410 CURVE",
"476 -410 LINE",
"439 4 OFFCURVE",
"439 334 OFFCURVE",
"433 611 CURVE"
);
},
{
closed = 1;
nodes = (
"227 914 CURVE SMOOTH",
"227 844 OFFCURVE",
"284 786 OFFCURVE",
"355 786 CURVE SMOOTH",
"425 786 OFFCURVE",
"483 844 OFFCURVE",
"483 914 CURVE SMOOTH",
"483 985 OFFCURVE",
"425 1042 OFFCURVE",
"355 1042 CURVE SMOOTH",
"284 1042 OFFCURVE",
"227 985 OFFCURVE"
);
}
);
width = 764;
},
{
layerId = "F475B0A9-7A87-46A7-B4AD-E82CB5471E06";
paths = (
{
closed = 1;
nodes = (
"276 611 LINE",
"269 334 OFFCURVE",
"269 4 OFFCURVE",
"233 -410 CURVE",
"476 -410 LINE",
"439 4 OFFCURVE",
"439 334 OFFCURVE",
"433 611 CURVE"
);
},
{
closed = 1;
nodes = (
"227 914 CURVE SMOOTH",
"227 844 OFFCURVE",
"284 786 OFFCURVE",
"355 786 CURVE SMOOTH",
"425 786 OFFCURVE",
"483 844 OFFCURVE",
"483 914 CURVE SMOOTH",
"483 985 OFFCURVE",
"425 1042 OFFCURVE",
"355 1042 CURVE SMOOTH",
"284 1042 OFFCURVE",
"227 985 OFFCURVE"
);
}
);
width = 764;
}
);
unicode = 00A1;
},
{
glyphname = CentSgn;
production = cent;
layers = (
{
layerId = "CEA11641-8665-47E8-AF62-91D5E9FF7384";
paths = (
{
closed = 1;
nodes = (
"676 1003 CURVE SMOOTH",
"388 1003 OFFCURVE",
"205 778 OFFCURVE",
"205 506 CURVE SMOOTH",
"205 215 OFFCURVE",
"402 38 OFFCURVE",
"645 38 CURVE SMOOTH",
"780 38 OFFCURVE",
"866 70 OFFCURVE",
"958 138 CURVE",
"940 297 LINE",
"860 227 OFFCURVE",
"772 188 OFFCURVE",
"663 188 CURVE SMOOTH",
"487 188 OFFCURVE",
"378 319 OFFCURVE",
"378 514 CURVE SMOOTH",
"378 728 OFFCURVE",
"502 854 OFFCURVE",
"663 854 CURVE SMOOTH",
"756 854 OFFCURVE",
"835 823 OFFCURVE",
"917 763 CURVE",
"948 926 LINE",
"882 972 OFFCURVE",
"797 1003 OFFCURVE"
);
},
{
closed = 1;
nodes = (
"587 1250 LINE",
"587 -210 LINE",
"711 -210 LINE",
"711 1250 LINE"
);
}
);
width = 1200;
},
{
layerId = "F475B0A9-7A87-46A7-B4AD-E82CB5471E06";
paths = (
{
closed = 1;
nodes = (
"676 1003 CURVE SMOOTH",
"388 1003 OFFCURVE",
"205 778 OFFCURVE",
"205 506 CURVE SMOOTH",
"205 215 OFFCURVE",
"402 38 OFFCURVE",
"645 38 CURVE SMOOTH",
"780 38 OFFCURVE",
"866 70 OFFCURVE",
"958 138 CURVE",
"940 297 LINE",
"860 227 OFFCURVE",
"772 188 OFFCURVE",
"663 188 CURVE SMOOTH",
"487 188 OFFCURVE",
"378 319 OFFCURVE",
"378 514 CURVE SMOOTH",
"378 728 OFFCURVE",
"502 854 OFFCURVE",
"663 854 CURVE SMOOTH",
"756 854 OFFCURVE",
"835 823 OFFCURVE",
"917 763 CURVE",
"948 926 LINE",
"882 972 OFFCURVE",
"797 1003 OFFCURVE"
);
},
{
closed = 1;
nodes = (
"587 1250 LINE",
"587 -210 LINE",
"711 -210 LINE",
"711 1250 LINE"
);
}
);
width = 1200;
}
);
unicode = 00A2;
},
{
glyphname = PoundSgn;
production = sterling;
layers = (
{
layerId = "CEA11641-8665-47E8-AF62-91D5E9FF7384";
paths = (
{
closed = 1;
nodes = (
"365 157 LINE",
"439 232 OFFCURVE",
"464 325 OFFCURVE",
"464 444 CURVE SMOOTH",
"464 606 OFFCURVE",
"431 857 OFFCURVE",
"431 1026 CURVE SMOOTH",
"431 1198 OFFCURVE",
"513 1264 OFFCURVE",
"632 1264 CURVE SMOOTH",
"687 1264 OFFCURVE",
"777 1242 OFFCURVE",
"824 1207 CURVE",
"868 1350 LINE",
"809 1392 OFFCURVE",
"706 1417 OFFCURVE",
"632 1417 CURVE SMOOTH",
"406 1417 OFFCURVE",
"255 1274 OFFCURVE",
"255 987 CURVE SMOOTH",
"255 810 OFFCURVE",
"287 570 OFFCURVE",
"287 374 CURVE SMOOTH",
"287 267 OFFCURVE",
"221 179 OFFCURVE",
"145 124 CURVE",
"145 0 LINE",
"975 0 LINE",
"975 172 LINE",
"899 158 OFFCURVE",
"747 157 OFFCURVE",
"559 157 CURVE SMOOTH"
);
},
{
closed = 1;
nodes = (
"155 658 LINE",
"736 658 LINE",
"736 797 LINE",
"155 797 LINE"
);
}
);
width = 1200;
},
{
layerId = "F475B0A9-7A87-46A7-B4AD-E82CB5471E06";
paths = (
{
closed = 1;
nodes = (
"365 157 LINE",
"439 232 OFFCURVE",
"464 325 OFFCURVE",
"464 444 CURVE SMOOTH",
"464 606 OFFCURVE",
"431 857 OFFCURVE",
"431 1026 CURVE SMOOTH",
"431 1198 OFFCURVE",
"513 1264 OFFCURVE",
"632 1264 CURVE SMOOTH",
"687 1264 OFFCURVE",
"777 1242 OFFCURVE",
"824 1207 CURVE",
"868 1350 LINE",
"809 1392 OFFCURVE",
"706 1417 OFFCURVE",
"632 1417 CURVE SMOOTH",
"406 1417 OFFCURVE",
"255 1274 OFFCURVE",
"255 987 CURVE SMOOTH",
"255 810 OFFCURVE",
"287 570 OFFCURVE",
"287 374 CURVE SMOOTH",
"287 267 OFFCURVE",
"221 179 OFFCURVE",
"145 124 CURVE",
"145 0 LINE",
"975 0 LINE",
"975 172 LINE",
"899 158 OFFCURVE",
"747 157 OFFCURVE",
"559 157 CURVE SMOOTH"
);
},
{
closed = 1;
nodes = (
"155 658 LINE",
"736 658 LINE",
"736 797 LINE",
"155 797 LINE"
);
}
);
width = 1200;
}
);
unicode = 00A3;
},
{
glyphname = CurrSgn;
production = currency;
layers = (
{
layerId = "CEA11641-8665-47E8-AF62-91D5E9FF7384";
paths = (
{
closed = 1;
nodes = (
"1111 407 LINE",
"910 608 LINE",
"963 679 OFFCURVE",
"991 759 OFFCURVE",
"991 851 CURVE SMOOTH",
"991 943 OFFCURVE",
"958 1031 OFFCURVE",
"908 1099 CURVE",
"1111 1303 LINE",
"1022 1392 LINE",
"815 1185 LINE",
"748 1237 OFFCURVE",
"668 1268 OFFCURVE",
"578 1268 CURVE SMOOTH",
"486 1268 OFFCURVE",
"401 1239 OFFCURVE",
"332 1187 CURVE",
"127 1392 LINE",
"37 1303 LINE",
"242 1097 LINE",
"184 1029 OFFCURVE",
"157 939 OFFCURVE",
"157 848 CURVE SMOOTH",
"157 757 OFFCURVE",
"186 679 OFFCURVE",
"238 608 CURVE",
"37 407 LINE",
"127 318 LINE",
"328 519 LINE",
"400 461 OFFCURVE",
"481 432 OFFCURVE",
"578 432 CURVE SMOOTH",
"668 432 OFFCURVE",
"750 463 OFFCURVE",
"820 519 CURVE",
"1022 318 LINE"
);
},
{
closed = 1;
nodes = (
"865 851 CURVE SMOOTH",
"865 687 OFFCURVE",
"744 557 OFFCURVE",
"578 557 CURVE SMOOTH",
"410 557 OFFCURVE",
"282 681 OFFCURVE",
"282 848 CURVE SMOOTH",
"282 1019 OFFCURVE",
"408 1142 OFFCURVE",
"578 1142 CURVE SMOOTH",
"742 1142 OFFCURVE",
"865 1013 OFFCURVE"
);
}
);
width = 1200;
},
{
layerId = "F475B0A9-7A87-46A7-B4AD-E82CB5471E06";
paths = (
{
closed = 1;
nodes = (
"1111 407 LINE",
"910 608 LINE",
"963 679 OFFCURVE",
"991 759 OFFCURVE",
"991 851 CURVE SMOOTH",
"991 943 OFFCURVE",
"958 1031 OFFCURVE",
"908 1099 CURVE",
"1111 1303 LINE",
"1022 1392 LINE",
"815 1185 LINE",
"748 1237 OFFCURVE",
"668 1268 OFFCURVE",
"578 1268 CURVE SMOOTH",
"486 1268 OFFCURVE",
"401 1239 OFFCURVE",
"332 1187 CURVE",
"127 1392 LINE",
"37 1303 LINE",
"242 1097 LINE",
"184 1029 OFFCURVE",
"157 939 OFFCURVE",
"157 848 CURVE SMOOTH",
"157 757 OFFCURVE",
"186 679 OFFCURVE",
"238 608 CURVE",
"37 407 LINE",
"127 318 LINE",
"328 519 LINE",
"400 461 OFFCURVE",
"481 432 OFFCURVE",
"578 432 CURVE SMOOTH",
"668 432 OFFCURVE",
"750 463 OFFCURVE",
"820 519 CURVE",
"1022 318 LINE"
);
},
{
closed = 1;
nodes = (
"865 851 CURVE SMOOTH",
"865 687 OFFCURVE",
"744 557 OFFCURVE",
"578 557 CURVE SMOOTH",
"410 557 OFFCURVE",
"282 681 OFFCURVE",
"282 848 CURVE SMOOTH",
"282 1019 OFFCURVE",
"408 1142 OFFCURVE",
"578 1142 CURVE SMOOTH",
"742 1142 OFFCURVE",
"865 1013 OFFCURVE"
);
}
);
width = 1200;
}
);
unicode = 00A4;
},
{
glyphname = YenSgn;
production = yen;
layers = (
{
layerId = "CEA11641-8665-47E8-AF62-91D5E9FF7384";
paths = (
{
closed = 1;
nodes = (
"521 508 LINE",
"645 612 LINE",
"256 1323 LINE",
"64 1323 LINE",
"158 1188 OFFCURVE",
"213 1085 OFFCURVE",
"276 965 CURVE"
);
},
{
closed = 1;
nodes = (
"633 508 LINE",
"878 965 LINE SMOOTH",
"941 1083 OFFCURVE",
"987 1170 OFFCURVE",
"1086 1323 CURVE",
"894 1323 LINE",
"525 612 LINE"
);
},
{
closed = 1;
nodes = (
"496 630 LINE",
"496 394 LINE SMOOTH",
"496 216 OFFCURVE",
"496 73 OFFCURVE",
"484 0 CURVE",
"666 0 LINE",
"654 73 OFFCURVE",
"654 216 OFFCURVE",
"654 394 CURVE SMOOTH",
"654 630 LINE"
);
},
{
closed = 1;
nodes = (
"194 305 LINE",
"965 305 LINE",
"965 444 LINE",
"194 444 LINE"
);
},
{
closed = 1;
nodes = (
"194 544 LINE",
"965 544 LINE",
"965 682 LINE",
"194 682 LINE"
);
}
);
width = 1200;
},
{
layerId = "F475B0A9-7A87-46A7-B4AD-E82CB5471E06";
paths = (
{
closed = 1;
nodes = (
"521 508 LINE",
"645 612 LINE",
"256 1323 LINE",
"64 1323 LINE",
"158 1188 OFFCURVE",
"213 1085 OFFCURVE",
"276 965 CURVE"
);
},
{
closed = 1;
nodes = (
"633 508 LINE",
"878 965 LINE SMOOTH",
"941 1083 OFFCURVE",
"987 1170 OFFCURVE",
"1086 1323 CURVE",
"894 1323 LINE",
"525 612 LINE"
);
},
{
closed = 1;
nodes = (
"496 630 LINE",
"496 394 LINE SMOOTH",
"496 216 OFFCURVE",
"496 73 OFFCURVE",
"484 0 CURVE",
"666 0 LINE",
"654 73 OFFCURVE",
"654 216 OFFCURVE",
"654 394 CURVE SMOOTH",
"654 630 LINE"
);
},
{
closed = 1;
nodes = (
"194 305 LINE",
"965 305 LINE",
"965 444 LINE",
"194 444 LINE"
);
},
{
closed = 1;
nodes = (
"194 544 LINE",
"965 544 LINE",
"965 682 LINE",
"194 682 LINE"
);
}
);
width = 1200;
}
);
unicode = 00A5;
},
{
glyphname = BrokenBar;
production = brokenbar;
layers = (
{
layerId = "CEA11641-8665-47E8-AF62-91D5E9FF7384";
paths = (
{
closed = 1;
nodes = (
"440 407 LINE",
"440 -390 LINE",
"583 -390 LINE",
"583 407 LINE"
);
},
{
closed = 1;
nodes = (
"583 721 LINE",
"583 1508 LINE",
"440 1508 LINE",
"440 721 LINE"
);
}
);
width = 1024;
},
{
layerId = "F475B0A9-7A87-46A7-B4AD-E82CB5471E06";
paths = (
{
closed = 1;
nodes = (
"440 407 LINE",
"440 -390 LINE",
"583 -390 LINE",
"583 407 LINE"
);
},
{
closed = 1;
nodes = (
"583 721 LINE",
"583 1508 LINE",
"440 1508 LINE",
"440 721 LINE"
);
}
);
width = 1024;
}
);
unicode = 00A6;
},
{
glyphname = SectionSgn;
production = section;
layers = (
{
layerId = "CEA11641-8665-47E8-AF62-91D5E9FF7384";
paths = (
{
closed = 1;
nodes = (
"477 121 LINE",
"692 121 OFFCURVE",
"845 266 OFFCURVE",
"845 467 CURVE SMOOTH",
"845 610 OFFCURVE",
"754 699 OFFCURVE",
"582 823 CURVE SMOOTH",
"413 945 OFFCURVE",
"301 1013 OFFCURVE",
"301 1111 CURVE SMOOTH",
"301 1176 OFFCURVE",
"356 1242 OFFCURVE",
"487 1242 CURVE SMOOTH",
"605 1242 OFFCURVE",
"704 1189 OFFCURVE",
"768 1152 CURVE",
"802 1319 LINE",
"736 1355 OFFCURVE",
"635 1395 OFFCURVE",
"496 1395 CURVE SMOOTH",
"225 1395 OFFCURVE",
"129 1225 OFFCURVE",
"129 1071 CURVE SMOOTH",
"129 952 OFFCURVE",
"221 846 OFFCURVE",
"423 719 CURVE SMOOTH",
"618 597 OFFCURVE",
"673 517 OFFCURVE",
"673 436 CURVE SMOOTH",
"673 348 OFFCURVE",
"594 274 OFFCURVE",
"482 274 CURVE"
);
},
{
closed = 1;
nodes = (
"496 832 LINE",
"291 832 OFFCURVE",
"129 718 OFFCURVE",
"129 523 CURVE SMOOTH",
"129 355 OFFCURVE",
"220 260 OFFCURVE",
"391 141 CURVE SMOOTH",
"560 23 OFFCURVE",
"673 -57 OFFCURVE",
"673 -179 CURVE SMOOTH",
"673 -245 OFFCURVE",
"594 -317 OFFCURVE",
"482 -317 CURVE SMOOTH",
"381 -317 OFFCURVE",
"244 -266 OFFCURVE",
"158 -189 CURVE",
"110 -360 LINE",
"185 -419 OFFCURVE",
"323 -470 OFFCURVE",
"477 -470 CURVE SMOOTH",
"682 -470 OFFCURVE",
"845 -327 OFFCURVE",
"845 -155 CURVE SMOOTH",
"845 -11 OFFCURVE",
"753 118 OFFCURVE",
"551 245 CURVE SMOOTH",
"356 367 OFFCURVE",
"301 442 OFFCURVE",
"301 527 CURVE SMOOTH",
"301 620 OFFCURVE",
"380 680 OFFCURVE",
"492 680 CURVE"
);
}
);
width = 1024;
},
{
layerId = "F475B0A9-7A87-46A7-B4AD-E82CB5471E06";
paths = (
{
closed = 1;
nodes = (
"477 121 LINE",
"692 121 OFFCURVE",
"845 266 OFFCURVE",
"845 467 CURVE SMOOTH",
"845 610 OFFCURVE",
"754 699 OFFCURVE",
"582 823 CURVE SMOOTH",
"413 945 OFFCURVE",
"301 1013 OFFCURVE",
"301 1111 CURVE SMOOTH",
"301 1176 OFFCURVE",
"356 1242 OFFCURVE",
"487 1242 CURVE SMOOTH",
"605 1242 OFFCURVE",
"704 1189 OFFCURVE",
"768 1152 CURVE",
"802 1319 LINE",
"736 1355 OFFCURVE",
"635 1395 OFFCURVE",
"496 1395 CURVE SMOOTH",
"225 1395 OFFCURVE",
"129 1225 OFFCURVE",
"129 1071 CURVE SMOOTH",
"129 952 OFFCURVE",
"221 846 OFFCURVE",
"423 719 CURVE SMOOTH",
"618 597 OFFCURVE",
"673 517 OFFCURVE",
"673 436 CURVE SMOOTH",
"673 348 OFFCURVE",
"594 274 OFFCURVE",
"482 274 CURVE"
);
},
{
closed = 1;
nodes = (
"496 832 LINE",
"291 832 OFFCURVE",
"129 718 OFFCURVE",
"129 523 CURVE SMOOTH",
"129 355 OFFCURVE",
"220 260 OFFCURVE",
"391 141 CURVE SMOOTH",
"560 23 OFFCURVE",
"673 -57 OFFCURVE",
"673 -179 CURVE SMOOTH",
"673 -245 OFFCURVE",
"594 -317 OFFCURVE",
"482 -317 CURVE SMOOTH",
"381 -317 OFFCURVE",
"244 -266 OFFCURVE",
"158 -189 CURVE",
"110 -360 LINE",
"185 -419 OFFCURVE",
"323 -470 OFFCURVE",
"477 -470 CURVE SMOOTH",
"682 -470 OFFCURVE",
"845 -327 OFFCURVE",
"845 -155 CURVE SMOOTH",
"845 -11 OFFCURVE",
"753 118 OFFCURVE",
"551 245 CURVE SMOOTH",
"356 367 OFFCURVE",
"301 442 OFFCURVE",
"301 527 CURVE SMOOTH",
"301 620 OFFCURVE",
"380 680 OFFCURVE",
"492 680 CURVE"
);
}
);
width = 1024;
}
);
unicode = 00A7;
},
{
glyphname = CopyrightSgn;
production = copyright;
layers = (
{
layerId = "CEA11641-8665-47E8-AF62-91D5E9FF7384";
paths = (
{
closed = 1;
nodes = (
"723 1301 CURVE SMOOTH",
"1008 1301 OFFCURVE",
"1281 1091 OFFCURVE",
"1281 695 CURVE SMOOTH",
"1281 299 OFFCURVE",
"1008 89 OFFCURVE",
"723 89 CURVE SMOOTH",
"437 89 OFFCURVE",
"169 299 OFFCURVE",
"169 695 CURVE SMOOTH",
"169 1091 OFFCURVE",
"437 1301 OFFCURVE"
);
},
{
closed = 1;
nodes = (
"723 1416 CURVE SMOOTH",
"381 1416 OFFCURVE",
"50 1172 OFFCURVE",
"50 695 CURVE SMOOTH",
"50 209 OFFCURVE",
"381 -25 OFFCURVE",
"723 -25 CURVE SMOOTH",
"1055 -25 OFFCURVE",
"1400 209 OFFCURVE",
"1400 695 CURVE SMOOTH",
"1400 1172 OFFCURVE",
"1055 1416 OFFCURVE"
);
},
{
closed = 1;
nodes = (
"966 481 LINE",
"899 413 OFFCURVE",
"816 366 OFFCURVE",
"727 366 CURVE SMOOTH",
"565 366 OFFCURVE",
"460 531 OFFCURVE",
"460 700 CURVE SMOOTH",
"460 916 OFFCURVE",
"584 1034 OFFCURVE",
"732 1034 CURVE SMOOTH",
"806 1034 OFFCURVE",
"870 1008 OFFCURVE",
"947 939 CURVE",
"985 1053 LINE",
"898 1118 OFFCURVE",
"819 1139 OFFCURVE",
"732 1139 CURVE SMOOTH",
"537 1139 OFFCURVE",
"341 980 OFFCURVE",
"341 686 CURVE SMOOTH",
"341 430 OFFCURVE",
"492 256 OFFCURVE",
"718 256 CURVE SMOOTH",
"810 256 OFFCURVE",
"919 291 OFFCURVE",
"990 357 CURVE"
);
}
);
width = 1515;
},
{
layerId = "F475B0A9-7A87-46A7-B4AD-E82CB5471E06";
paths = (
{
closed = 1;
nodes = (
"723 1301 CURVE SMOOTH",
"1008 1301 OFFCURVE",
"1281 1091 OFFCURVE",
"1281 695 CURVE SMOOTH",
"1281 299 OFFCURVE",
"1008 89 OFFCURVE",
"723 89 CURVE SMOOTH",
"437 89 OFFCURVE",
"169 299 OFFCURVE",
"169 695 CURVE SMOOTH",
"169 1091 OFFCURVE",
"437 1301 OFFCURVE"
);
},
{
closed = 1;
nodes = (
"723 1416 CURVE SMOOTH",
"381 1416 OFFCURVE",
"50 1172 OFFCURVE",
"50 695 CURVE SMOOTH",
"50 209 OFFCURVE",
"381 -25 OFFCURVE",
"723 -25 CURVE SMOOTH",
"1055 -25 OFFCURVE",
"1400 209 OFFCURVE",
"1400 695 CURVE SMOOTH",
"1400 1172 OFFCURVE",
"1055 1416 OFFCURVE"
);
},
{
closed = 1;
nodes = (
"966 481 LINE",
"899 413 OFFCURVE",
"816 366 OFFCURVE",
"727 366 CURVE SMOOTH",
"565 366 OFFCURVE",
"460 531 OFFCURVE",
"460 700 CURVE SMOOTH",
"460 916 OFFCURVE",
"584 1034 OFFCURVE",
"732 1034 CURVE SMOOTH",
"806 1034 OFFCURVE",
"870 1008 OFFCURVE",
"947 939 CURVE",
"985 1053 LINE",
"898 1118 OFFCURVE",
"819 1139 OFFCURVE",
"732 1139 CURVE SMOOTH",
"537 1139 OFFCURVE",
"341 980 OFFCURVE",
"341 686 CURVE SMOOTH",
"341 430 OFFCURVE",
"492 256 OFFCURVE",
"718 256 CURVE SMOOTH",
"810 256 OFFCURVE",
"919 291 OFFCURVE",
"990 357 CURVE"
);
}
);
width = 1515;
}
);
unicode = 00A9;
},
{
glyphname = FemOrdIndicator;
production = ordfeminine;
layers = (
{
layerId = "CEA11641-8665-47E8-AF62-91D5E9FF7384";
paths = (
{
closed = 1;
nodes = (
"78 500 LINE",
"738 500 LINE",
"738 595 LINE",
"78 595 LINE"
);
},
{
closed = 1;
nodes = (
"582 901 LINE",
"582 846 OFFCURVE",
"593 711 OFFCURVE",
"612 672 CURVE",
"729 672 LINE",
"703 741 OFFCURVE",
"686 844 OFFCURVE",
"686 1000 CURVE SMOOTH",
"686 1289 LINE",
"618 1305 OFFCURVE",
"528 1317 OFFCURVE",
"441 1317 CURVE SMOOTH",
"192 1317 OFFCURVE",
"81 1123 OFFCURVE",
"81 925 CURVE SMOOTH",
"81 751 OFFCURVE",
"170 656 OFFCURVE",
"281 656 CURVE SMOOTH",
"421 656 OFFCURVE",
"526 822 OFFCURVE",
"582 963 CURVE"
);
},
{
closed = 1;
nodes = (
"432 1217 CURVE SMOOTH",
"499 1217 OFFCURVE",
"540 1210 OFFCURVE",
"562 1205 CURVE",
"562 1165 LINE SMOOTH",
"562 1076 OFFCURVE",
"420 761 OFFCURVE",
"301 761 CURVE SMOOTH",
"249 761 OFFCURVE",
"205 830 OFFCURVE",
"205 925 CURVE SMOOTH",
"205 1075 OFFCURVE",
"257 1217 OFFCURVE"
);
}
);
width = 808;
},
{
layerId = "F475B0A9-7A87-46A7-B4AD-E82CB5471E06";
paths = (
{
closed = 1;
nodes = (
"78 500 LINE",
"738 500 LINE",
"738 595 LINE",
"78 595 LINE"
);
},
{
closed = 1;
nodes = (
"582 901 LINE",
"582 846 OFFCURVE",
"593 711 OFFCURVE",
"612 672 CURVE",
"729 672 LINE",
"703 741 OFFCURVE",
"686 844 OFFCURVE",
"686 1000 CURVE SMOOTH",
"686 1289 LINE",
"618 1305 OFFCURVE",
"528 1317 OFFCURVE",
"441 1317 CURVE SMOOTH",
"192 1317 OFFCURVE",
"81 1123 OFFCURVE",
"81 925 CURVE SMOOTH",
"81 751 OFFCURVE",
"170 656 OFFCURVE",
"281 656 CURVE SMOOTH",
"421 656 OFFCURVE",
"526 822 OFFCURVE",
"582 963 CURVE"
);
},
{
closed = 1;
nodes = (
"432 1217 CURVE SMOOTH",
"499 1217 OFFCURVE",
"540 1210 OFFCURVE",
"562 1205 CURVE",
"562 1165 LINE SMOOTH",
"562 1076 OFFCURVE",
"420 761 OFFCURVE",
"301 761 CURVE SMOOTH",
"249 761 OFFCURVE",
"205 830 OFFCURVE",
"205 925 CURVE SMOOTH",
"205 1075 OFFCURVE",
"257 1217 OFFCURVE"
);
}
);
width = 808;
}
);
unicode = 00AA;
},
{
glyphname = LftPtngDblAngQuotMrk;
production = guillemotleft;
layers = (
{
layerId = "CEA11641-8665-47E8-AF62-91D5E9FF7384";
paths = (
{
closed = 1;
nodes = (
"666 0 LINE",
"294 488 LINE",
"666 973 LINE",
"490 973 LINE",
"75 488 LINE",
"493 0 LINE"
);
},
{
closed = 1;
nodes = (
"1134 0 LINE",
"762 488 LINE",
"1134 973 LINE",
"957 973 LINE",
"542 488 LINE",
"960 0 LINE"
);
}
);
width = 1300;
},
{
layerId = "F475B0A9-7A87-46A7-B4AD-E82CB5471E06";
paths = (
{
closed = 1;
nodes = (
"666 0 LINE",
"294 488 LINE",
"666 973 LINE",
"490 973 LINE",
"75 488 LINE",
"493 0 LINE"
);
},
{
closed = 1;
nodes = (
"1134 0 LINE",
"762 488 LINE",
"1134 973 LINE",
"957 973 LINE",
"542 488 LINE",
"960 0 LINE"
);
}
);
width = 1300;
}
);
unicode = 00AB;
},
{
glyphname = NotSgn;
production = logicalnot;
layers = (
{
layerId = "CEA11641-8665-47E8-AF62-91D5E9FF7384";
paths = (
{
closed = 1;
nodes = (
"1021 340 LINE",
"1021 779 LINE",
"110 779 LINE",
"110 636 LINE",
"878 636 LINE",
"878 340 LINE"
);
}
);
width = 1200;
},
{
layerId = "F475B0A9-7A87-46A7-B4AD-E82CB5471E06";
paths = (
{
closed = 1;
nodes = (
"1021 340 LINE",
"1021 779 LINE",
"110 779 LINE",
"110 636 LINE",
"878 636 LINE",
"878 340 LINE"
);
}
);
width = 1200;
}
);
unicode = 00AC;
},
{
glyphname = RegisteredSgn;
production = registered;
layers = (
{
layerId = "CEA11641-8665-47E8-AF62-91D5E9FF7384";
paths = (
{
closed = 1;
nodes = (
"823 1416 CURVE SMOOTH",
"481 1416 OFFCURVE",
"150 1172 OFFCURVE",
"150 695 CURVE SMOOTH",
"150 209 OFFCURVE",
"481 -25 OFFCURVE",
"823 -25 CURVE SMOOTH",
"1155 -25 OFFCURVE",
"1500 209 OFFCURVE",
"1500 695 CURVE SMOOTH",
"1500 1172 OFFCURVE",
"1155 1416 OFFCURVE"
);
},
{
closed = 1;
nodes = (
"823 1301 CURVE SMOOTH",
"1108 1301 OFFCURVE",
"1381 1091 OFFCURVE",
"1381 695 CURVE SMOOTH",
"1381 299 OFFCURVE",
"1108 89 OFFCURVE",
"823 89 CURVE SMOOTH",
"537 89 OFFCURVE",
"269 299 OFFCURVE",
"269 695 CURVE SMOOTH",
"269 1091 OFFCURVE",
"537 1301 OFFCURVE"
);
},
{
closed = 1;
nodes = (
"651 636 LINE",
"769 636 LINE",
"1018 276 LINE",
"1166 276 LINE",
"1133 312 OFFCURVE",
"949 559 OFFCURVE",
"885 648 CURVE",
"979 672 OFFCURVE",
"1080 741 OFFCURVE",
"1080 881 CURVE SMOOTH",
"1080 1048 OFFCURVE",
"948 1125 OFFCURVE",
"765 1125 CURVE SMOOTH",
"623 1125 OFFCURVE",
"527 1115 OFFCURVE",
"527 1115 CURVE",
"534 1066 OFFCURVE",
"534 975 OFFCURVE",
"534 856 CURVE SMOOTH",
"534 522 LINE SMOOTH",
"534 402 OFFCURVE",
"534 324 OFFCURVE",
"527 276 CURVE",
"660 276 LINE",
"652 323 OFFCURVE",
"651 402 OFFCURVE",
"651 522 CURVE"
);
},
{
closed = 1;
nodes = (
"651 1022 LINE",
"683 1023 OFFCURVE",
"719 1025 OFFCURVE",
"761 1025 CURVE SMOOTH",
"901 1025 OFFCURVE",
"961 967 OFFCURVE",
"961 872 CURVE SMOOTH",
"961 781 OFFCURVE",
"889 731 OFFCURVE",
"761 731 CURVE",
"651 731 LINE"
);
}
);
width = 1615;
},
{
layerId = "F475B0A9-7A87-46A7-B4AD-E82CB5471E06";
paths = (
{
closed = 1;
nodes = (
"823 1416 CURVE SMOOTH",
"481 1416 OFFCURVE",
"150 1172 OFFCURVE",
"150 695 CURVE SMOOTH",
"150 209 OFFCURVE",
"481 -25 OFFCURVE",
"823 -25 CURVE SMOOTH",
"1155 -25 OFFCURVE",
"1500 209 OFFCURVE",
"1500 695 CURVE SMOOTH",
"1500 1172 OFFCURVE",
"1155 1416 OFFCURVE"
);
},
{
closed = 1;
nodes = (
"823 1301 CURVE SMOOTH",
"1108 1301 OFFCURVE",
"1381 1091 OFFCURVE",
"1381 695 CURVE SMOOTH",
"1381 299 OFFCURVE",
"1108 89 OFFCURVE",
"823 89 CURVE SMOOTH",
"537 89 OFFCURVE",
"269 299 OFFCURVE",
"269 695 CURVE SMOOTH",
"269 1091 OFFCURVE",
"537 1301 OFFCURVE"
);
},
{
closed = 1;
nodes = (
"651 636 LINE",
"769 636 LINE",
"1018 276 LINE",
"1166 276 LINE",
"1133 312 OFFCURVE",
"949 559 OFFCURVE",
"885 648 CURVE",
"979 672 OFFCURVE",
"1080 741 OFFCURVE",
"1080 881 CURVE SMOOTH",
"1080 1048 OFFCURVE",
"948 1125 OFFCURVE",
"765 1125 CURVE SMOOTH",
"623 1125 OFFCURVE",
"527 1115 OFFCURVE",
"527 1115 CURVE",
"534 1066 OFFCURVE",
"534 975 OFFCURVE",
"534 856 CURVE SMOOTH",
"534 522 LINE SMOOTH",
"534 402 OFFCURVE",
"534 324 OFFCURVE",
"527 276 CURVE",
"660 276 LINE",
"652 323 OFFCURVE",
"651 402 OFFCURVE",
"651 522 CURVE"
);
},
{
closed = 1;
nodes = (
"651 1022 LINE",
"683 1023 OFFCURVE",
"719 1025 OFFCURVE",
"761 1025 CURVE SMOOTH",
"901 1025 OFFCURVE",
"961 967 OFFCURVE",
"961 872 CURVE SMOOTH",
"961 781 OFFCURVE",
"889 731 OFFCURVE",
"761 731 CURVE",
"651 731 LINE"
);
}
);
width = 1615;
}
);
unicode = 00AE;
},
{
glyphname = Macron;
production = macron;
layers = (
{
layerId = "CEA11641-8665-47E8-AF62-91D5E9FF7384";
paths = (
{
closed = 1;
nodes = (
"0 1240 LINE",
"677 1240 LINE",
"677 1383 LINE",
"0 1383 LINE"
);
}
);
width = 710;
},
{
layerId = "F475B0A9-7A87-46A7-B4AD-E82CB5471E06";
paths = (
{
closed = 1;
nodes = (
"0 1240 LINE",
"677 1240 LINE",
"677 1383 LINE",
"0 1383 LINE"
);
}
);
width = 710;
}
);
unicode = 00AF;
},
{
glyphname = DegreeSgn;
production = degree;
layers = (
{
layerId = "CEA11641-8665-47E8-AF62-91D5E9FF7384";
paths = (
{
closed = 1;
nodes = (
"437 1224 CURVE",
"437 1152 OFFCURVE",
"380 1095 OFFCURVE",
"309 1095 CURVE SMOOTH",
"237 1095 OFFCURVE",
"180 1152 OFFCURVE",
"180 1224 CURVE SMOOTH",
"180 1295 OFFCURVE",
"237 1352 OFFCURVE",
"309 1352 CURVE SMOOTH",
"380 1352 OFFCURVE",
"437 1295 OFFCURVE"
);
},
{
closed = 1;
nodes = (
"70 1224 CURVE",
"70 1090 OFFCURVE",
"175 985 OFFCURVE",
"309 985 CURVE SMOOTH",
"442 985 OFFCURVE",
"547 1090 OFFCURVE",
"547 1224 CURVE SMOOTH",
"547 1357 OFFCURVE",
"442 1462 OFFCURVE",
"309 1462 CURVE SMOOTH",
"175 1462 OFFCURVE",
"70 1357 OFFCURVE"
);
}
);
width = 640;
},
{
layerId = "F475B0A9-7A87-46A7-B4AD-E82CB5471E06";
paths = (
{
closed = 1;
nodes = (
"437 1224 CURVE",
"437 1152 OFFCURVE",
"380 1095 OFFCURVE",
"309 1095 CURVE SMOOTH",
"237 1095 OFFCURVE",
"180 1152 OFFCURVE",
"180 1224 CURVE SMOOTH",
"180 1295 OFFCURVE",
"237 1352 OFFCURVE",
"309 1352 CURVE SMOOTH",
"380 1352 OFFCURVE",
"437 1295 OFFCURVE"
);
},
{
closed = 1;
nodes = (
"70 1224 CURVE",
"70 1090 OFFCURVE",
"175 985 OFFCURVE",
"309 985 CURVE SMOOTH",
"442 985 OFFCURVE",
"547 1090 OFFCURVE",
"547 1224 CURVE SMOOTH",
"547 1357 OFFCURVE",
"442 1462 OFFCURVE",
"309 1462 CURVE SMOOTH",
"175 1462 OFFCURVE",
"70 1357 OFFCURVE"
);
}
);
width = 640;
}
);
unicode = 00B0;
},
{
glyphname = PlusMinusSgn;
production = plusminus;
layers = (
{
layerId = "CEA11641-8665-47E8-AF62-91D5E9FF7384";
paths = (
{
closed = 1;
nodes = (
"155 806 LINE",
"508 806 LINE",
"508 458 LINE",
"651 458 LINE",
"651 806 LINE",
"1004 806 LINE",
"1004 949 LINE",
"651 949 LINE",
"651 1311 LINE",
"508 1311 LINE",
"508 949 LINE",
"155 949 LINE"
);
},
{
closed = 1;
nodes = (
"155 200 LINE",
"1004 200 LINE",
"1004 343 LINE",
"155 343 LINE"
);
}
);
width = 1200;
},
{
layerId = "F475B0A9-7A87-46A7-B4AD-E82CB5471E06";
paths = (
{
closed = 1;
nodes = (
"155 806 LINE",
"508 806 LINE",
"508 458 LINE",
"651 458 LINE",
"651 806 LINE",
"1004 806 LINE",
"1004 949 LINE",
"651 949 LINE",
"651 1311 LINE",
"508 1311 LINE",
"508 949 LINE",
"155 949 LINE"
);
},
{
closed = 1;
nodes = (
"155 200 LINE",
"1004 200 LINE",
"1004 343 LINE",
"155 343 LINE"
);
}
);
width = 1200;
}
);
unicode = 00B1;
},
{
glyphname = MicroSgn;
production = mu;
layers = (
{
layerId = "CEA11641-8665-47E8-AF62-91D5E9FF7384";
paths = (
{
closed = 1;
nodes = (
"1046 -23 LINE",
"1006 84 OFFCURVE",
"984 222 OFFCURVE",
"984 407 CURVE SMOOTH",
"984 594 OFFCURVE",
"984 951 OFFCURVE",
"984 951 CURVE",
"788 951 LINE",
"806 834 OFFCURVE",
"808 771 OFFCURVE",
"808 645 CURVE SMOOTH",
"808 378 LINE",
"767 259 OFFCURVE",
"640 111 OFFCURVE",
"544 111 CURVE SMOOTH",
"438 111 OFFCURVE",
"331 205 OFFCURVE",
"331 421 CURVE SMOOTH",
"331 553 OFFCURVE",
"331 951 OFFCURVE",
"331 951 CURVE",
"135 951 LINE",
"152 836 OFFCURVE",
"154 766 OFFCURVE",
"154 645 CURVE SMOOTH",
"154 627 OFFCURVE",
"154 382 OFFCURVE",
"154 364 CURVE SMOOTH",
"154 -490 LINE",
"354 -490 LINE",
"338 -409 OFFCURVE",
"331 -318 OFFCURVE",
"331 -166 CURVE",
"331 54 LINE",
"366 3 OFFCURVE",
"438 -46 OFFCURVE",
"526 -46 CURVE SMOOTH",
"649 -46 OFFCURVE",
"771 73 OFFCURVE",
"831 168 CURVE",
"841 97 OFFCURVE",
"866 21 OFFCURVE",
"884 -23 CURVE"
);
}
);
width = 1185;
},
{
layerId = "F475B0A9-7A87-46A7-B4AD-E82CB5471E06";
paths = (
{
closed = 1;
nodes = (
"1046 -23 LINE",
"1006 84 OFFCURVE",
"984 222 OFFCURVE",
"984 407 CURVE SMOOTH",
"984 594 OFFCURVE",
"984 951 OFFCURVE",
"984 951 CURVE",
"788 951 LINE",
"806 834 OFFCURVE",
"808 771 OFFCURVE",
"808 645 CURVE SMOOTH",
"808 378 LINE",
"767 259 OFFCURVE",
"640 111 OFFCURVE",
"544 111 CURVE SMOOTH",
"438 111 OFFCURVE",
"331 205 OFFCURVE",
"331 421 CURVE SMOOTH",
"331 553 OFFCURVE",
"331 951 OFFCURVE",
"331 951 CURVE",
"135 951 LINE",
"152 836 OFFCURVE",
"154 766 OFFCURVE",
"154 645 CURVE SMOOTH",
"154 627 OFFCURVE",
"154 382 OFFCURVE",
"154 364 CURVE SMOOTH",
"154 -490 LINE",
"354 -490 LINE",
"338 -409 OFFCURVE",
"331 -318 OFFCURVE",
"331 -166 CURVE",
"331 54 LINE",
"366 3 OFFCURVE",
"438 -46 OFFCURVE",
"526 -46 CURVE SMOOTH",
"649 -46 OFFCURVE",
"771 73 OFFCURVE",
"831 168 CURVE",
"841 97 OFFCURVE",
"866 21 OFFCURVE",
"884 -23 CURVE"
);
}
);
width = 1185;
}
);
unicode = 00B5;
},
{
glyphname = PilcrowSgn;
production = paragraph;
layers = (
{
layerId = "CEA11641-8665-47E8-AF62-91D5E9FF7384";
paths = (
{
closed = 1;
nodes = (
"923 1283 LINE",
"923 1393 LINE",
"422 1393 LINE SMOOTH",
"271 1393 OFFCURVE",
"50 1318 OFFCURVE",
"50 1062 CURVE SMOOTH",
"50 806 OFFCURVE",
"272 730 OFFCURVE",
"403 730 CURVE",
"403 0 LINE",
"532 0 LINE",
"532 1283 LINE",
"684 1283 LINE",
"684 0 LINE",
"813 0 LINE",
"813 1283 LINE"
);
}
);
width = 1025;
},
{
layerId = "F475B0A9-7A87-46A7-B4AD-E82CB5471E06";
paths = (
{
closed = 1;
nodes = (
"923 1283 LINE",
"923 1393 LINE",
"422 1393 LINE SMOOTH",
"271 1393 OFFCURVE",
"50 1318 OFFCURVE",
"50 1062 CURVE SMOOTH",
"50 806 OFFCURVE",
"272 730 OFFCURVE",
"403 730 CURVE",
"403 0 LINE",
"532 0 LINE",
"532 1283 LINE",
"684 1283 LINE",
"684 0 LINE",
"813 0 LINE",
"813 1283 LINE"
);
}
);
width = 1025;
}
);
unicode = 00B6;
},
{
glyphname = MiddleDot;
production = periodcentered;
layers = (
{
layerId = "CEA11641-8665-47E8-AF62-91D5E9FF7384";
paths = (
{
closed = 1;
nodes = (
"205 703 CURVE SMOOTH",
"205 632 OFFCURVE",
"262 575 OFFCURVE",
"333 575 CURVE SMOOTH",
"403 575 OFFCURVE",
"461 632 OFFCURVE",
"461 703 CURVE SMOOTH",
"461 773 OFFCURVE",
"403 831 OFFCURVE",
"333 831 CURVE SMOOTH",
"262 831 OFFCURVE",
"205 773 OFFCURVE"
);
}
);
width = 679;
},
{
layerId = "F475B0A9-7A87-46A7-B4AD-E82CB5471E06";
paths = (
{
closed = 1;
nodes = (
"205 703 CURVE SMOOTH",
"205 632 OFFCURVE",
"262 575 OFFCURVE",
"333 575 CURVE SMOOTH",
"403 575 OFFCURVE",
"461 632 OFFCURVE",
"461 703 CURVE SMOOTH",
"461 773 OFFCURVE",
"403 831 OFFCURVE",
"333 831 CURVE SMOOTH",
"262 831 OFFCURVE",
"205 773 OFFCURVE"
);
}
);
width = 679;
}
);
unicode = 00B7;
},
{
glyphname = MascOrdIndicator;
production = ordmasculine;
layers = (
{
layerId = "CEA11641-8665-47E8-AF62-91D5E9FF7384";
paths = (
{
closed = 1;
nodes = (
"71 985 CURVE SMOOTH",
"71 772 OFFCURVE",
"199 656 OFFCURVE",
"382 656 CURVE SMOOTH",
"558 656 OFFCURVE",
"705 772 OFFCURVE",
"705 985 CURVE SMOOTH",
"705 1198 OFFCURVE",
"579 1317 OFFCURVE",
"395 1317 CURVE SMOOTH",
"220 1317 OFFCURVE",
"71 1198 OFFCURVE"
);
},
{
closed = 1;
nodes = (
"195 985 CURVE SMOOTH",
"195 1130 OFFCURVE",
"281 1217 OFFCURVE",
"389 1217 CURVE SMOOTH",
"503 1217 OFFCURVE",
"582 1130 OFFCURVE",
"582 985 CURVE SMOOTH",
"582 841 OFFCURVE",
"496 756 OFFCURVE",
"389 756 CURVE SMOOTH",
"274 756 OFFCURVE",
"195 841 OFFCURVE"
);
},
{
closed = 1;
nodes = (
"71 500 LINE",
"705 500 LINE",
"705 595 LINE",
"71 595 LINE"
);
}
);
width = 798;
},
{
layerId = "F475B0A9-7A87-46A7-B4AD-E82CB5471E06";
paths = (
{
closed = 1;
nodes = (
"71 985 CURVE SMOOTH",
"71 772 OFFCURVE",
"199 656 OFFCURVE",
"382 656 CURVE SMOOTH",
"558 656 OFFCURVE",
"705 772 OFFCURVE",
"705 985 CURVE SMOOTH",
"705 1198 OFFCURVE",
"579 1317 OFFCURVE",
"395 1317 CURVE SMOOTH",
"220 1317 OFFCURVE",
"71 1198 OFFCURVE"
);
},
{
closed = 1;
nodes = (
"195 985 CURVE SMOOTH",
"195 1130 OFFCURVE",
"281 1217 OFFCURVE",
"389 1217 CURVE SMOOTH",
"503 1217 OFFCURVE",
"582 1130 OFFCURVE",
"582 985 CURVE SMOOTH",
"582 841 OFFCURVE",
"496 756 OFFCURVE",
"389 756 CURVE SMOOTH",
"274 756 OFFCURVE",
"195 841 OFFCURVE"
);
},
{
closed = 1;
nodes = (
"71 500 LINE",
"705 500 LINE",
"705 595 LINE",
"71 595 LINE"
);
}
);
width = 798;
}
);
unicode = 00BA;
},
{
glyphname = RtPtngDblAngQuotMrk;
production = guillemotright;
layers = (
{
layerId = "CEA11641-8665-47E8-AF62-91D5E9FF7384";
paths = (
{
closed = 1;
nodes = (
"756 0 LINE",
"1174 488 LINE",
"759 973 LINE",
"582 973 LINE",
"955 488 LINE",
"582 0 LINE"
);
},
{
closed = 1;
nodes = (
"289 0 LINE",
"706 488 LINE",
"291 973 LINE",
"115 973 LINE",
"487 488 LINE",
"115 0 LINE"
);
}
);
width = 1300;
},
{
layerId = "F475B0A9-7A87-46A7-B4AD-E82CB5471E06";
paths = (
{
closed = 1;
nodes = (
"756 0 LINE",
"1174 488 LINE",
"759 973 LINE",
"582 973 LINE",
"955 488 LINE",
"582 0 LINE"
);
},
{
closed = 1;
nodes = (
"289 0 LINE",
"706 488 LINE",
"291 973 LINE",
"115 973 LINE",
"487 488 LINE",
"115 0 LINE"
);
}
);
width = 1300;
}
);
unicode = 00BB;
},
{
glyphname = VulgFracOneQuarter;
production = onequarter;
layers = (
{
layerId = "CEA11641-8665-47E8-AF62-91D5E9FF7384";
paths = (
{
closed = 1;
nodes = (
"291 775 LINE",
"115 775 LINE",
"115 675 LINE",
"587 675 LINE",
"587 775 LINE",
"415 775 LINE",
"415 1524 LINE",
"305 1524 LINE",
"105 1405 LINE",
"124 1300 LINE",
"291 1400 LINE"
);
},
{
closed = 1;
nodes = (
"1256 1524 LINE",
"224 -50 LINE",
"348 -50 LINE",
"1380 1524 LINE"
);
},
{
closed = 1;
nodes = (
"959 346 LINE",
"1202 685 LINE",
"1202 346 LINE"
);
},
{
closed = 1;
nodes = (
"1336 60 OFFCURVE",
"1331 204 OFFCURVE",
"1331 246 CURVE",
"1455 246 LINE",
"1455 346 LINE",
"1331 346 LINE",
"1331 847 LINE",
"1202 847 LINE",
"830 345 LINE",
"830 246 LINE",
"1202 246 LINE",
"1202 -2 LINE",
"1345 -2 LINE"
);
}
);
width = 1600;
},
{
layerId = "F475B0A9-7A87-46A7-B4AD-E82CB5471E06";
paths = (
{
closed = 1;
nodes = (
"291 775 LINE",
"115 775 LINE",
"115 675 LINE",
"587 675 LINE",
"587 775 LINE",
"415 775 LINE",
"415 1524 LINE",
"305 1524 LINE",
"105 1405 LINE",
"124 1300 LINE",
"291 1400 LINE"
);
},
{
closed = 1;
nodes = (
"1256 1524 LINE",
"224 -50 LINE",
"348 -50 LINE",
"1380 1524 LINE"
);
},
{
closed = 1;
nodes = (
"959 346 LINE",
"1202 685 LINE",
"1202 346 LINE"
);
},
{
closed = 1;
nodes = (
"1336 60 OFFCURVE",
"1333 163 OFFCURVE",
"1331 246 CURVE",
"1455 246 LINE",
"1455 346 LINE",
"1331 346 LINE",
"1331 847 LINE",
"1202 847 LINE",
"830 345 LINE",
"830 246 LINE",
"1202 246 LINE",
"1202 -2 LINE",
"1345 -2 LINE"
);
}
);
width = 1600;
}
);
unicode = 00BC;
},
{
glyphname = VulgFracOneHalf;
production = onehalf;
layers = (
{
layerId = "CEA11641-8665-47E8-AF62-91D5E9FF7384";
paths = (
{
closed = 1;
nodes = (
"1221 1524 LINE",
"199 -50 LINE",
"323 -50 LINE",
"1345 1524 LINE"
);
},
{
closed = 1;
nodes = (
"256 775 LINE",
"80 775 LINE",
"80 675 LINE",
"552 675 LINE",
"552 775 LINE",
"380 775 LINE",
"380 1524 LINE",
"270 1524 LINE",
"70 1405 LINE",
"89 1300 LINE",
"256 1400 LINE"
);
},
{
closed = 1;
nodes = (
"1482 107 LINE",
"1436 100 OFFCURVE",
"1346 98 OFFCURVE",
"1234 98 CURVE SMOOTH",
"1096 98 LINE",
"1221 195 OFFCURVE",
"1444 416 OFFCURVE",
"1444 608 CURVE SMOOTH",
"1444 756 OFFCURVE",
"1323 852 OFFCURVE",
"1185 852 CURVE SMOOTH",
"1089 852 OFFCURVE",
"980 801 OFFCURVE",
"933 737 CURVE",
"962 632 LINE",
"1013 694 OFFCURVE",
"1097 737 OFFCURVE",
"1167 737 CURVE SMOOTH",
"1249 737 OFFCURVE",
"1320 707 OFFCURVE",
"1320 599 CURVE SMOOTH",
"1320 440 OFFCURVE",
"1089 214 OFFCURVE",
"933 103 CURVE",
"933 -2 LINE",
"1482 -2 LINE"
);
}
);
width = 1600;
},
{
layerId = "F475B0A9-7A87-46A7-B4AD-E82CB5471E06";
paths = (
{
closed = 1;
nodes = (
"1221 1524 LINE",
"199 -50 LINE",
"323 -50 LINE",
"1345 1524 LINE"
);
},
{
closed = 1;
nodes = (
"256 775 LINE",
"80 775 LINE",
"80 675 LINE",
"552 675 LINE",
"552 775 LINE",
"380 775 LINE",
"380 1524 LINE",
"270 1524 LINE",
"70 1405 LINE",
"89 1300 LINE",
"256 1400 LINE"
);
},
{
closed = 1;
nodes = (
"1482 107 LINE",
"1436 100 OFFCURVE",
"1346 98 OFFCURVE",
"1234 98 CURVE SMOOTH",
"1096 98 LINE",
"1221 195 OFFCURVE",
"1444 416 OFFCURVE",
"1444 608 CURVE SMOOTH",
"1444 756 OFFCURVE",
"1323 852 OFFCURVE",
"1185 852 CURVE SMOOTH",
"1089 852 OFFCURVE",
"980 801 OFFCURVE",
"933 737 CURVE",
"962 632 LINE",
"1013 694 OFFCURVE",
"1097 737 OFFCURVE",
"1167 737 CURVE SMOOTH",
"1249 737 OFFCURVE",
"1320 707 OFFCURVE",
"1320 599 CURVE SMOOTH",
"1320 440 OFFCURVE",
"1089 214 OFFCURVE",
"933 103 CURVE",
"933 -2 LINE",
"1482 -2 LINE"
);
}
);
width = 1600;
}
);
unicode = 00BD;
},
{
glyphname = VulgFracThreeQuarters;
production = threequarters;
layers = (
{
layerId = "CEA11641-8665-47E8-AF62-91D5E9FF7384";
paths = (
{
closed = 1;
nodes = (
"529 661 OFFCURVE",
"650 784 OFFCURVE",
"650 918 CURVE SMOOTH",
"650 1060 OFFCURVE",
"540 1135 OFFCURVE",
"459 1143 CURVE",
"540 1153 OFFCURVE",
"621 1225 OFFCURVE",
"621 1319 CURVE SMOOTH",
"621 1441 OFFCURVE",
"525 1529 OFFCURVE",
"383 1529 CURVE SMOOTH",
"299 1529 OFFCURVE",
"230 1503 OFFCURVE",
"163 1453 CURVE",
"187 1352 LINE",
"264 1408 OFFCURVE",
"312 1419 OFFCURVE",
"373 1419 CURVE SMOOTH",
"446 1419 OFFCURVE",
"507 1391 OFFCURVE",
"507 1314 CURVE SMOOTH",
"507 1244 OFFCURVE",
"434 1185 OFFCURVE",
"321 1185 CURVE SMOOTH",
"278 1185 LINE",
"278 1080 LINE",
"321 1080 LINE SMOOTH",
"456 1080 OFFCURVE",
"530 1021 OFFCURVE",
"530 928 CURVE SMOOTH",
"530 817 OFFCURVE",
"455 770 OFFCURVE",
"359 770 CURVE SMOOTH",
"277 770 OFFCURVE",
"192 811 OFFCURVE",
"139 871 CURVE",
"125 747 LINE",
"179 699 OFFCURVE",
"268 661 OFFCURVE",
"364 661 CURVE SMOOTH"
);
},
{
closed = 1;
nodes = (
"1247 1524 LINE",
"225 -50 LINE",
"349 -50 LINE",
"1372 1524 LINE"
);
},
{
closed = 1;
nodes = (
"955 346 LINE",
"1198 685 LINE",
"1198 346 LINE"
);
},
{
closed = 1;
nodes = (
"1332 60 OFFCURVE",
"1327 204 OFFCURVE",
"1327 246 CURVE",
"1451 246 LINE",
"1451 346 LINE",
"1327 346 LINE",
"1327 847 LINE",
"1198 847 LINE",
"826 345 LINE",
"826 246 LINE",
"1198 246 LINE",
"1198 -2 LINE",
"1341 -2 LINE"
);
}
);
width = 1600;
},
{
layerId = "F475B0A9-7A87-46A7-B4AD-E82CB5471E06";
paths = (
{
closed = 1;
nodes = (
"529 661 OFFCURVE",
"650 784 OFFCURVE",
"650 918 CURVE SMOOTH",
"650 1060 OFFCURVE",
"540 1135 OFFCURVE",
"459 1143 CURVE",
"540 1153 OFFCURVE",
"621 1225 OFFCURVE",
"621 1319 CURVE SMOOTH",
"621 1441 OFFCURVE",
"525 1529 OFFCURVE",
"383 1529 CURVE SMOOTH",
"299 1529 OFFCURVE",
"230 1503 OFFCURVE",
"163 1453 CURVE",
"187 1352 LINE",
"264 1408 OFFCURVE",
"312 1419 OFFCURVE",
"373 1419 CURVE SMOOTH",
"446 1419 OFFCURVE",
"507 1391 OFFCURVE",
"507 1314 CURVE SMOOTH",
"507 1244 OFFCURVE",
"434 1185 OFFCURVE",
"321 1185 CURVE SMOOTH",
"278 1185 LINE",
"278 1080 LINE",
"321 1080 LINE SMOOTH",
"456 1080 OFFCURVE",
"530 1021 OFFCURVE",
"530 928 CURVE SMOOTH",
"530 817 OFFCURVE",
"455 770 OFFCURVE",
"359 770 CURVE SMOOTH",
"277 770 OFFCURVE",
"192 811 OFFCURVE",
"139 871 CURVE",
"125 747 LINE",
"179 699 OFFCURVE",
"268 661 OFFCURVE",
"364 661 CURVE SMOOTH"
);
},
{
closed = 1;
nodes = (
"1247 1524 LINE",
"225 -50 LINE",
"349 -50 LINE",
"1372 1524 LINE"
);
},
{
closed = 1;
nodes = (
"955 346 LINE",
"1198 685 LINE",
"1198 346 LINE"
);
},
{
closed = 1;
nodes = (
"1332 60 OFFCURVE",
"1327 204 OFFCURVE",
"1327 246 CURVE",
"1451 246 LINE",
"1451 346 LINE",
"1327 346 LINE",
"1327 847 LINE",
"1198 847 LINE",
"826 345 LINE",
"826 246 LINE",
"1198 246 LINE",
"1198 -2 LINE",
"1341 -2 LINE"
);
}
);
width = 1600;
}
);
unicode = 00BE;
},
{
glyphname = InvQstnMrk;
production = questiondown;
layers = (
{
layerId = "CEA11641-8665-47E8-AF62-91D5E9FF7384";
paths = (
{
closed = 1;
nodes = (
"755 -134 LINE",
"683 -210 OFFCURVE",
"596 -243 OFFCURVE",
"520 -243 CURVE SMOOTH",
"379 -243 OFFCURVE",
"336 -171 OFFCURVE",
"336 -114 CURVE SMOOTH",
"336 -58 OFFCURVE",
"348 -5 OFFCURVE",
"469 124 CURVE SMOOTH",
"572 234 OFFCURVE",
"588 326 OFFCURVE",
"588 639 CURVE",
"421 639 LINE",
"421 345 OFFCURVE",
"405 298 OFFCURVE",
"289 162 CURVE SMOOTH",
"179 35 OFFCURVE",
"140 -26 OFFCURVE",
"140 -124 CURVE SMOOTH",
"140 -317 OFFCURVE",
"291 -410 OFFCURVE",
"493 -410 CURVE SMOOTH",
"612 -410 OFFCURVE",
"735 -365 OFFCURVE",
"798 -305 CURVE"
);
},
{
closed = 1;
nodes = (
"638 915 CURVE SMOOTH",
"638 986 OFFCURVE",
"581 1043 OFFCURVE",
"510 1043 CURVE SMOOTH",
"440 1043 OFFCURVE",
"382 986 OFFCURVE",
"382 915 CURVE SMOOTH",
"382 845 OFFCURVE",
"440 787 OFFCURVE",
"510 787 CURVE SMOOTH",
"581 787 OFFCURVE",
"638 845 OFFCURVE"
);
}
);
width = 1050;
},
{
layerId = "F475B0A9-7A87-46A7-B4AD-E82CB5471E06";
paths = (
{
closed = 1;
nodes = (
"755 -134 LINE",
"683 -210 OFFCURVE",
"596 -243 OFFCURVE",
"520 -243 CURVE SMOOTH",
"379 -243 OFFCURVE",
"336 -171 OFFCURVE",
"336 -114 CURVE SMOOTH",
"336 -58 OFFCURVE",
"348 -5 OFFCURVE",
"469 124 CURVE SMOOTH",
"572 234 OFFCURVE",
"588 326 OFFCURVE",
"588 639 CURVE",
"421 639 LINE",
"421 345 OFFCURVE",
"405 298 OFFCURVE",
"289 162 CURVE SMOOTH",
"179 35 OFFCURVE",
"140 -26 OFFCURVE",
"140 -124 CURVE SMOOTH",
"140 -317 OFFCURVE",
"291 -410 OFFCURVE",
"493 -410 CURVE SMOOTH",
"612 -410 OFFCURVE",
"735 -365 OFFCURVE",
"798 -305 CURVE"
);
},
{
closed = 1;
nodes = (
"638 915 CURVE SMOOTH",
"638 986 OFFCURVE",
"581 1043 OFFCURVE",
"510 1043 CURVE SMOOTH",
"440 1043 OFFCURVE",
"382 986 OFFCURVE",
"382 915 CURVE SMOOTH",
"382 845 OFFCURVE",
"440 787 OFFCURVE",
"510 787 CURVE SMOOTH",
"581 787 OFFCURVE",
"638 845 OFFCURVE"
);
}
);
width = 1050;
}
);
unicode = 00BF;
},
{
glyphname = LtnCapARingAbv;
production = Aring;
layers = (
{
anchors = (
{
name = H;
position = "{1230, 0}";
},
{
name = L;
position = "{687, -100}";
},
{
name = O;
position = "{1450, 0}";
},
{
name = U;
position = "{689, 2065}";
}
);
layerId = "CEA11641-8665-47E8-AF62-91D5E9FF7384";
paths = (
{
closed = 1;
nodes = (
"236 0 LINE",
"363 367 LINE",
"950 367 LINE",
"1080 0 LINE",
"1275 0 LINE",
"1242 76 OFFCURVE",
"1206 161 OFFCURVE",
"1142 339 CURVE SMOOTH",
"760 1393 LINE",
"555 1393 LINE",
"174 339 LINE SMOOTH",
"109 160 OFFCURVE",
"74 77 OFFCURVE",
"40 0 CURVE"
);
},
{
closed = 1;
nodes = (
"899 515 LINE",
"415 515 LINE",
"655 1207 LINE"
);
},
{
closed = 1;
nodes = (
"755 1732 CURVE SMOOTH",
"755 1674 OFFCURVE",
"716 1636 OFFCURVE",
"659 1636 CURVE SMOOTH",
"602 1636 OFFCURVE",
"564 1674 OFFCURVE",
"564 1732 CURVE SMOOTH",
"564 1789 OFFCURVE",
"602 1827 OFFCURVE",
"659 1827 CURVE SMOOTH",
"716 1827 OFFCURVE",
"755 1789 OFFCURVE"
);
},
{
closed = 1;
nodes = (
"454 1732 CURVE SMOOTH",
"454 1617 OFFCURVE",
"545 1526 OFFCURVE",
"659 1526 CURVE SMOOTH",
"774 1526 OFFCURVE",
"864 1617 OFFCURVE",
"864 1732 CURVE SMOOTH",
"864 1846 OFFCURVE",
"774 1937 OFFCURVE",
"659 1937 CURVE SMOOTH",
"545 1937 OFFCURVE",
"454 1846 OFFCURVE"
);
}
);
width = 1395;
},
{
anchors = (
{
name = H;
position = "{1230, 0}";
},
{
name = L;
position = "{687, -100}";
},
{
name = O;
position = "{1450, 0}";
},
{
name = U;
position = "{689, 2065}";
}
);
layerId = "F475B0A9-7A87-46A7-B4AD-E82CB5471E06";
paths = (
{
closed = 1;
nodes = (
"236 0 LINE",
"363 367 LINE",
"950 367 LINE",
"1080 0 LINE",
"1275 0 LINE",
"1242 76 OFFCURVE",
"1206 161 OFFCURVE",
"1142 339 CURVE SMOOTH",
"760 1393 LINE",
"555 1393 LINE",
"174 339 LINE SMOOTH",
"109 160 OFFCURVE",
"74 77 OFFCURVE",
"40 0 CURVE"
);
},
{
closed = 1;
nodes = (
"899 515 LINE",
"415 515 LINE",
"655 1207 LINE"
);
},
{
closed = 1;
nodes = (
"755 1732 CURVE SMOOTH",
"755 1674 OFFCURVE",
"716 1636 OFFCURVE",
"659 1636 CURVE SMOOTH",
"602 1636 OFFCURVE",
"564 1674 OFFCURVE",
"564 1732 CURVE SMOOTH",
"564 1789 OFFCURVE",
"602 1827 OFFCURVE",
"659 1827 CURVE SMOOTH",
"716 1827 OFFCURVE",
"755 1789 OFFCURVE"
);
},
{
closed = 1;
nodes = (
"454 1732 CURVE SMOOTH",
"454 1617 OFFCURVE",
"545 1526 OFFCURVE",
"659 1526 CURVE SMOOTH",
"774 1526 OFFCURVE",
"864 1617 OFFCURVE",
"864 1732 CURVE SMOOTH",
"864 1846 OFFCURVE",
"774 1937 OFFCURVE",
"659 1937 CURVE SMOOTH",
"545 1937 OFFCURVE",
"454 1846 OFFCURVE"
);
}
);
width = 1395;
}
);
unicode = 00C5;
},
{
glyphname = LtnCapAe;
production = AE;
layers = (
{
anchors = (
{
name = L;
position = "{1015, -100}";
},
{
name = U;
position = "{1015, 1530}";
}
);
background = {
paths = (
{
closed = 1;
nodes = (
"1511 653 LINE",
"1511 806 LINE",
"1063 806 LINE",
"1063 1235 LINE",
"1583 1235 LINE",
"1583 1393 LINE",
"776 1393 LINE",
"285 381 LINE SMOOTH",
"219 245 OFFCURVE",
"166 141 OFFCURVE",
"80 0 CURVE",
"271 0 LINE",
"881 1235 LINE",
"881 232 OFFCURVE",
"881 76 OFFCURVE",
"867 0 CURVE",
"1611 0 LINE",
"1611 172 LINE",
"1535 158 OFFCURVE",
"1407 157 OFFCURVE",
"1219 157 CURVE SMOOTH",
"1063 157 LINE",
"1063 653 LINE"
);
},
{
closed = 1;
nodes = (
"1012 367 LINE",
"955 515 LINE",
"442 515 LINE",
"384 367 LINE"
);
}
);
};
layerId = "CEA11641-8665-47E8-AF62-91D5E9FF7384";
paths = (
{
closed = 1;
nodes = (
"1063 157 LINE",
"1063 653 LINE",
"1511 653 LINE",
"1511 806 LINE",
"1063 806 LINE",
"1063 1235 LINE",
"1583 1235 LINE",
"1583 1393 LINE",
"776 1393 LINE",
"285 381 LINE SMOOTH",
"219 245 OFFCURVE",
"166 141 OFFCURVE",
"80 0 CURVE",
"271 0 LINE",
"452 367 LINE",
"881 367 LINE",
"881 116 OFFCURVE",
"875 44 OFFCURVE",
"867 0 CURVE",
"1611 0 LINE",
"1611 172 LINE",
"1535 158 OFFCURVE",
"1407 157 OFFCURVE",
"1219 157 CURVE SMOOTH"
);
},
{
closed = 1;
nodes = (
"881 515 LINE",
"525 515 LINE",
"881 1235 LINE"
);
}
);
width = 1805;
},
{
anchors = (
{
name = L;
position = "{1015, -100}";
},
{
name = U;
position = "{1015, 1530}";
}
);
background = {
paths = (
{
closed = 1;
nodes = (
"1012 367 LINE",
"955 515 LINE",
"442 515 LINE",
"384 367 LINE"
);
},
{
closed = 1;
nodes = (
"1511 653 LINE",
"1511 806 LINE",
"1063 806 LINE",
"1063 1235 LINE",
"1583 1235 LINE",
"1583 1393 LINE",
"776 1393 LINE",
"285 381 LINE SMOOTH",
"219 245 OFFCURVE",
"166 141 OFFCURVE",
"80 0 CURVE",
"271 0 LINE",
"881 1235 LINE",
"881 232 OFFCURVE",
"881 76 OFFCURVE",
"867 0 CURVE",
"1611 0 LINE",
"1611 172 LINE",
"1535 158 OFFCURVE",
"1407 157 OFFCURVE",
"1219 157 CURVE SMOOTH",
"1063 157 LINE",
"1063 653 LINE"
);
}
);
};
layerId = "F475B0A9-7A87-46A7-B4AD-E82CB5471E06";
paths = (
{
closed = 1;
nodes = (
"1063 157 LINE",
"1063 653 LINE",
"1511 653 LINE",
"1511 806 LINE",
"1063 806 LINE",
"1063 1235 LINE",
"1583 1235 LINE",
"1583 1393 LINE",
"776 1393 LINE",
"285 381 LINE SMOOTH",
"219 245 OFFCURVE",
"166 141 OFFCURVE",
"80 0 CURVE",
"271 0 LINE",
"452 367 LINE",
"881 367 LINE",
"881 116 OFFCURVE",
"875 44 OFFCURVE",
"867 0 CURVE",
"1611 0 LINE",
"1611 172 LINE",
"1535 158 OFFCURVE",
"1407 157 OFFCURVE",
"1219 157 CURVE SMOOTH"
);
},
{
closed = 1;
nodes = (
"881 515 LINE",
"525 515 LINE",
"881 1235 LINE"
);
}
);
width = 1805;
}
);
unicode = 00C6;
},
{
glyphname = LtnCapEth;
production = Eth;
layers = (
{
anchors = (
{
name = L;
position = "{715, -100}";
},
{
name = U;
position = "{715, 1530}";
}
);
layerId = "CEA11641-8665-47E8-AF62-91D5E9FF7384";
paths = (
{
closed = 1;
nodes = (
"0 796 LINE",
"0 658 LINE",
"167 658 LINE",
"167 434 LINE SMOOTH",
"167 245 OFFCURVE",
"167 76 OFFCURVE",
"153 0 CURVE",
"153 0 OFFCURVE",
"446 -10 OFFCURVE",
"568 -10 CURVE SMOOTH",
"847 -10 OFFCURVE",
"1255 138 OFFCURVE",
"1255 706 CURVE SMOOTH",
"1255 1329 OFFCURVE",
"791 1402 OFFCURVE",
"587 1402 CURVE SMOOTH",
"458 1402 OFFCURVE",
"234 1398 OFFCURVE",
"153 1392 CURVE",
"167 1316 OFFCURVE",
"167 1141 OFFCURVE",
"167 954 CURVE SMOOTH",
"167 796 LINE"
);
},
{
closed = 1;
nodes = (
"348 1245 LINE",
"396 1246 OFFCURVE",
"500 1249 OFFCURVE",
"563 1249 CURVE SMOOTH",
"838 1249 OFFCURVE",
"1068 1113 OFFCURVE",
"1068 686 CURVE SMOOTH",
"1068 293 OFFCURVE",
"814 147 OFFCURVE",
"558 147 CURVE SMOOTH",
"467 147 OFFCURVE",
"393 153 OFFCURVE",
"348 157 CURVE",
"348 658 LINE",
"711 658 LINE",
"711 796 LINE",
"348 796 LINE"
);
}
);
width = 1435;
},
{
anchors = (
{
name = L;
position = "{715, -100}";
},
{
name = U;
position = "{715, 1530}";
}
);
layerId = "F475B0A9-7A87-46A7-B4AD-E82CB5471E06";
paths = (
{
closed = 1;
nodes = (
"0 796 LINE",
"0 658 LINE",
"167 658 LINE",
"167 434 LINE SMOOTH",
"167 245 OFFCURVE",
"167 76 OFFCURVE",
"153 0 CURVE",
"153 0 OFFCURVE",
"446 -10 OFFCURVE",
"568 -10 CURVE SMOOTH",
"847 -10 OFFCURVE",
"1255 138 OFFCURVE",
"1255 706 CURVE SMOOTH",
"1255 1329 OFFCURVE",
"791 1402 OFFCURVE",
"587 1402 CURVE SMOOTH",
"458 1402 OFFCURVE",
"234 1398 OFFCURVE",
"153 1392 CURVE",
"167 1316 OFFCURVE",
"167 1141 OFFCURVE",
"167 954 CURVE SMOOTH",
"167 796 LINE"
);
},
{
closed = 1;
nodes = (
"348 1245 LINE",
"396 1246 OFFCURVE",
"500 1249 OFFCURVE",
"563 1249 CURVE SMOOTH",
"838 1249 OFFCURVE",
"1068 1113 OFFCURVE",
"1068 686 CURVE SMOOTH",
"1068 293 OFFCURVE",
"814 147 OFFCURVE",
"558 147 CURVE SMOOTH",
"467 147 OFFCURVE",
"393 153 OFFCURVE",
"348 157 CURVE",
"348 658 LINE",
"711 658 LINE",
"711 796 LINE",
"348 796 LINE"
);
}
);
width = 1435;
}
);
unicode = 00D0;
},
{
glyphname = MultSgn;
production = multiply;
layers = (
{
layerId = "CEA11641-8665-47E8-AF62-91D5E9FF7384";
paths = (
{
closed = 1;
nodes = (
"198 989 LINE",
"482 704 LINE",
"203 424 LINE",
"304 323 LINE",
"583 603 LINE",
"859 328 LINE",
"960 429 LINE",
"685 704 LINE",
"965 984 LINE",
"864 1085 LINE",
"583 805 LINE",
"299 1090 LINE"
);
}
);
width = 1200;
},
{
layerId = "F475B0A9-7A87-46A7-B4AD-E82CB5471E06";
paths = (
{
closed = 1;
nodes = (
"198 989 LINE",
"482 704 LINE",
"203 424 LINE",
"304 323 LINE",
"583 603 LINE",
"859 328 LINE",
"960 429 LINE",
"685 704 LINE",
"965 984 LINE",
"864 1085 LINE",
"583 805 LINE",
"299 1090 LINE"
);
}
);
width = 1200;
}
);
unicode = 00D7;
},
{
glyphname = LtnCapOStrk;
production = Oslash;
layers = (
{
anchors = (
{
name = L;
position = "{717, -100}";
},
{
name = U;
position = "{717, 1530}";
}
);
layerId = "CEA11641-8665-47E8-AF62-91D5E9FF7384";
paths = (
{
closed = 1;
nodes = (
"1097 679 CURVE SMOOTH",
"1097 340 OFFCURVE",
"925 140 OFFCURVE",
"691 140 CURVE SMOOTH",
"443 140 OFFCURVE",
"281 359 OFFCURVE",
"281 707 CURVE SMOOTH",
"281 1037 OFFCURVE",
"450 1246 OFFCURVE",
"691 1246 CURVE SMOOTH",
"934 1246 OFFCURVE",
"1097 1031 OFFCURVE"
);
},
{
closed = 1;
nodes = (
"1283 703 CURVE SMOOTH",
"1283 1159 OFFCURVE",
"1004 1413 OFFCURVE",
"701 1413 CURVE SMOOTH",
"393 1413 OFFCURVE",
"95 1140 OFFCURVE",
"95 683 CURVE SMOOTH",
"95 226 OFFCURVE",
"375 -27 OFFCURVE",
"682 -27 CURVE SMOOTH",
"986 -27 OFFCURVE",
"1283 245 OFFCURVE"
);
},
{
closed = 1;
nodes = (
"1016 1456 LINE",
"190 -75 LINE",
"332 -75 LINE",
"1155 1456 LINE"
);
}
);
width = 1460;
},
{
anchors = (
{
name = L;
position = "{717, -100}";
},
{
name = U;
position = "{717, 1530}";
}
);
layerId = "F475B0A9-7A87-46A7-B4AD-E82CB5471E06";
paths = (
{
closed = 1;
nodes = (
"1097 679 CURVE SMOOTH",
"1097 340 OFFCURVE",
"925 140 OFFCURVE",
"691 140 CURVE SMOOTH",
"443 140 OFFCURVE",
"281 359 OFFCURVE",
"281 707 CURVE SMOOTH",
"281 1037 OFFCURVE",
"450 1246 OFFCURVE",
"691 1246 CURVE SMOOTH",
"934 1246 OFFCURVE",
"1097 1031 OFFCURVE"
);
},
{
closed = 1;
nodes = (
"1283 703 CURVE SMOOTH",
"1283 1159 OFFCURVE",
"1004 1413 OFFCURVE",
"701 1413 CURVE SMOOTH",
"393 1413 OFFCURVE",
"95 1140 OFFCURVE",
"95 683 CURVE SMOOTH",
"95 226 OFFCURVE",
"375 -27 OFFCURVE",
"682 -27 CURVE SMOOTH",
"986 -27 OFFCURVE",
"1283 245 OFFCURVE"
);
},
{
closed = 1;
nodes = (
"1016 1456 LINE",
"190 -75 LINE",
"332 -75 LINE",
"1155 1456 LINE"
);
}
);
width = 1460;
}
);
unicode = 00D8;
},
{
glyphname = LtnCapThorn;
production = Thorn;
layers = (
{
anchors = (
{
name = L;
position = "{638, -100}";
},
{
name = U;
position = "{638, 1530}";
}
);
layerId = "CEA11641-8665-47E8-AF62-91D5E9FF7384";
paths = (
{
closed = 1;
nodes = (
"356 281 CURVE",
"418 275 OFFCURVE",
"497 272 OFFCURVE",
"566 272 CURVE SMOOTH",
"880 272 OFFCURVE",
"1072 445 OFFCURVE",
"1072 725 CURVE SMOOTH",
"1072 1004 OFFCURVE",
"875 1145 OFFCURVE",
"566 1145 CURVE SMOOTH",
"491 1145 OFFCURVE",
"420 1143 OFFCURVE",
"356 1142 CURVE",
"356 1393 LINE",
"160 1393 LINE",
"174 1317 OFFCURVE",
"174 1141 OFFCURVE",
"174 954 CURVE SMOOTH",
"174 415 LINE SMOOTH",
"174 227 OFFCURVE",
"174 76 OFFCURVE",
"160 0 CURVE",
"370 0 LINE",
"357 74 OFFCURVE",
"356 281 OFFCURVE"
);
},
{
closed = 1;
nodes = (
"356 987 LINE",
"420 990 OFFCURVE",
"466 992 OFFCURVE",
"556 992 CURVE SMOOTH",
"810 992 OFFCURVE",
"890 859 OFFCURVE",
"890 706 CURVE SMOOTH",
"890 552 OFFCURVE",
"818 420 OFFCURVE",
"551 420 CURVE SMOOTH",
"480 420 OFFCURVE",
"416 422 OFFCURVE",
"356 429 CURVE"
);
}
);
width = 1196;
},
{
anchors = (
{
name = L;
position = "{638, -100}";
},
{
name = U;
position = "{638, 1530}";
}
);
layerId = "F475B0A9-7A87-46A7-B4AD-E82CB5471E06";
paths = (
{
closed = 1;
nodes = (
"356 281 CURVE",
"418 275 OFFCURVE",
"497 272 OFFCURVE",
"566 272 CURVE SMOOTH",
"880 272 OFFCURVE",
"1072 445 OFFCURVE",
"1072 725 CURVE SMOOTH",
"1072 1004 OFFCURVE",
"875 1145 OFFCURVE",
"566 1145 CURVE SMOOTH",
"491 1145 OFFCURVE",
"420 1143 OFFCURVE",
"356 1142 CURVE",
"356 1393 LINE",
"160 1393 LINE",
"174 1317 OFFCURVE",
"174 1141 OFFCURVE",
"174 954 CURVE SMOOTH",
"174 415 LINE SMOOTH",
"174 227 OFFCURVE",
"174 76 OFFCURVE",
"160 0 CURVE",
"370 0 LINE",
"357 74 OFFCURVE",
"356 281 OFFCURVE"
);
},
{
closed = 1;
nodes = (
"356 987 LINE",
"420 990 OFFCURVE",
"466 992 OFFCURVE",
"556 992 CURVE SMOOTH",
"810 992 OFFCURVE",
"890 859 OFFCURVE",
"890 706 CURVE SMOOTH",
"890 552 OFFCURVE",
"818 420 OFFCURVE",
"551 420 CURVE SMOOTH",
"480 420 OFFCURVE",
"416 422 OFFCURVE",
"356 429 CURVE"
);
}
);
width = 1196;
}
);
unicode = 00DE;
},
